G04 DipTrace 3.3.0.0*
G04 BoardOutline.gbr*
%MOIN*%
G04 #@! TF.FileFunction,Profile*
G04 #@! TF.Part,Single*
%ADD11C,0.005512*%
%FSLAX26Y26*%
G04*
G70*
G90*
G75*
G01*
G04 BoardOutline*
%LPD*%
X3740472Y3464882D2*
D11*
X551496D1*
G03X394016Y3307402I13J-157493D01*
G01*
Y551496D1*
G03X551496Y394016I157493J13D01*
G01*
X3740472D1*
G03X3897953Y551496I-13J157493D01*
G01*
Y3307402D1*
G03X3740472Y3464882I-157493J-13D01*
G01*
D3*
X699134Y1417638D2*
G02X699134Y1417638I442913J0D01*
G01*
X2707008Y1407795D2*
X2708087Y1439378D1*
X2711318Y1470807D1*
X2716687Y1501929D1*
X2724166Y1532592D1*
X2733719Y1562647D1*
X2745300Y1591948D1*
X2758852Y1620351D1*
X2774309Y1647719D1*
X2791597Y1673919D1*
X2810630Y1698821D1*
X2831316Y1722306D1*
X2853554Y1744258D1*
X2877237Y1764572D1*
X2902247Y1783147D1*
X2928465Y1799893D1*
X2955761Y1814730D1*
X2984003Y1827583D1*
X3013053Y1838392D1*
X3042771Y1847102D1*
X3073010Y1853673D1*
X3103624Y1858071D1*
X3134464Y1860275D1*
X3165379D1*
X3196218Y1858071D1*
X3226832Y1853673D1*
X3257072Y1847102D1*
X3286789Y1838392D1*
X3315840Y1827583D1*
X3344082Y1814730D1*
X3371378Y1799893D1*
X3397595Y1783147D1*
X3422606Y1764572D1*
X3446288Y1744258D1*
X3468526Y1722306D1*
X3489213Y1698821D1*
X3508246Y1673919D1*
X3525533Y1647719D1*
X3540991Y1620351D1*
X3554543Y1591948D1*
X3566124Y1562647D1*
X3575677Y1532592D1*
X3583156Y1501929D1*
X3588524Y1470807D1*
X3591756Y1439378D1*
X3592835Y1407795D1*
X3591756Y1376213D1*
X3588524Y1344784D1*
X3583156Y1313662D1*
X3575677Y1282999D1*
X3566124Y1252944D1*
X3554543Y1223643D1*
X3540991Y1195239D1*
X3525533Y1167871D1*
X3508246Y1141672D1*
X3489213Y1116769D1*
X3468526Y1093285D1*
X3446288Y1071332D1*
X3422606Y1051019D1*
X3397595Y1032444D1*
X3371378Y1015697D1*
X3344082Y1000861D1*
X3315840Y988007D1*
X3286789Y977199D1*
X3257072Y968488D1*
X3226832Y961918D1*
X3196218Y957520D1*
X3165379Y955315D1*
X3134464D1*
X3103624Y957520D1*
X3073010Y961918D1*
X3042771Y968488D1*
X3013053Y977199D1*
X2984003Y988007D1*
X2955761Y1000861D1*
X2928465Y1015697D1*
X2902247Y1032444D1*
X2877237Y1051019D1*
X2853554Y1071332D1*
X2831316Y1093285D1*
X2810630Y1116769D1*
X2791597Y1141672D1*
X2774309Y1167871D1*
X2758852Y1195239D1*
X2745300Y1223643D1*
X2733719Y1252944D1*
X2724166Y1282999D1*
X2716687Y1313662D1*
X2711318Y1344784D1*
X2708087Y1376213D1*
X2707008Y1407795D1*
M02*
