G04 DipTrace 3.3.0.0*
G04 Bottom.gbr*
%MOIN*%
G04 #@! TF.FileFunction,Copper,L2,Bot*
G04 #@! TF.Part,Single*
G04 #@! TA.AperFunction,Conductor*
%ADD14C,0.025*%
%ADD15C,0.02*%
%ADD16C,0.011*%
G04 #@! TA.AperFunction,CopperBalancing*
%ADD19C,0.01*%
G04 #@! TA.AperFunction,ComponentPad*
%ADD25O,0.07874X0.11811*%
%ADD26O,0.11811X0.07874*%
%ADD27R,0.066929X0.066929*%
%ADD28C,0.066929*%
%ADD29R,0.059055X0.059055*%
%ADD30C,0.059055*%
%ADD31C,0.2*%
%ADD32R,0.070866X0.070866*%
%ADD33C,0.070866*%
%ADD34R,0.098425X0.098425*%
%ADD35C,0.098425*%
%ADD36R,0.059X0.059*%
%ADD37C,0.059*%
%ADD38C,0.06*%
G04 #@! TA.AperFunction,ViaPad*
%ADD43C,0.04*%
%FSLAX26Y26*%
G04*
G70*
G90*
G75*
G01*
G04 Bottom*
%LPD*%
X2670640Y581496D2*
D14*
Y566761D1*
X2793386Y444016D1*
X3249134D1*
X3553465Y748346D1*
X3720787D1*
X3803386Y830945D1*
Y2124016D1*
X3743386Y2184016D1*
Y2244016D1*
X3593386Y2534016D2*
D15*
Y2494016D1*
X1913386D1*
X1493386Y2914016D1*
X708661D1*
X472756Y3149921D1*
X2678386Y3319016D2*
D16*
Y3339016D1*
X2650945Y3366457D1*
X2549528D1*
X2526960Y3343889D1*
Y3255307D1*
X2460945Y3189291D1*
X2342835D1*
X2303465Y3228661D1*
X1151496D1*
X1072756Y3149921D1*
X3178386Y3319016D2*
X3078386D1*
X2978386D1*
X3178386Y2694016D2*
X3078386D1*
X2978386D1*
X3178386D2*
Y2699016D1*
X3133386Y2744016D1*
Y3264016D1*
X3078386Y3319016D1*
X2578386D2*
X2567441D1*
X2579055Y3307402D1*
Y3268031D1*
X2470787Y3159764D1*
X2332992D1*
X2293622Y3199134D1*
X1421969D1*
X1372756Y3149921D1*
X2770640Y581496D2*
Y656761D1*
X2403386Y1024016D1*
X1172756Y3149921D2*
Y3094646D1*
X1223386Y3044016D1*
X1653386D1*
X2053386Y2644016D1*
X2613386D1*
X2663386Y2694016D1*
X2678386D1*
X2578386D2*
Y2699016D1*
X2176693Y3100709D1*
X1521969D1*
X1472756Y3149921D1*
X872756Y2249921D2*
Y2703386D1*
X993386Y2824016D1*
X1396987D1*
X1426199Y2794803D1*
X1072756Y2249921D2*
Y2244646D1*
X1933386Y1384016D1*
X1080000Y2680630D2*
X1146614Y2614016D1*
X1243386D1*
X1353386Y2504016D1*
X1693386D1*
X1813386Y2384016D1*
X2103386D1*
X2172756Y2314646D1*
Y2249921D1*
X2165669Y1235748D2*
D15*
X2279055D1*
X3078386Y2035079D1*
Y2194016D1*
X2165669Y1335748D2*
X2320000D1*
X3013386Y2029134D1*
Y2159016D1*
X2978386Y2194016D1*
X2878386D2*
Y1963031D1*
X2372362Y1457008D1*
X2186929D1*
X2165669Y1435748D1*
X2778386Y2194016D2*
Y2187835D1*
X2677480Y2086929D1*
X2576299D1*
X2441260Y1951890D1*
Y1653858D1*
X2323150Y1535748D1*
X2165669D1*
X3278386Y2694016D2*
D16*
X3323386D1*
X3373386Y2744016D1*
Y3224016D1*
X3278386Y3319016D1*
Y2694016D2*
Y2659016D1*
X3203386Y2584016D1*
X1953386D1*
X1553386Y2984016D1*
X1038661D1*
X872756Y3149921D1*
D43*
X2403386Y1024016D3*
X1933386Y1384016D3*
X1080000Y2680630D3*
X2933386Y3144016D3*
X3003386D3*
X3063386D3*
X3003386Y2374016D3*
X2933386D3*
X3073386D3*
X563386Y2944016D3*
Y2454016D3*
X873386Y3034016D3*
X933386Y2404016D3*
X863386Y2814016D3*
X505333Y3410643D2*
D19*
X3562005D1*
X3682716D2*
X3786634D1*
X495450Y3400774D2*
X3554837D1*
X3689884D2*
X3796517D1*
X485587Y3390906D2*
X3550501D1*
X3694220D2*
X3806380D1*
X475724Y3381037D2*
X2532142D1*
X2668341D2*
X3548314D1*
X3696407D2*
X3816243D1*
X465860Y3371168D2*
X2522259D1*
X2678204D2*
X3547982D1*
X3696739D2*
X3826107D1*
X455978Y3361299D2*
X2512396D1*
X2697247D2*
X2759524D1*
X2797247D2*
X2859524D1*
X2897247D2*
X2959524D1*
X2997247D2*
X3059524D1*
X3097247D2*
X3159524D1*
X3197247D2*
X3231478D1*
X3325294D2*
X3549485D1*
X3695235D2*
X3835989D1*
X446114Y3351430D2*
X2505403D1*
X2711876D2*
X2744896D1*
X2811876D2*
X2844896D1*
X2911876D2*
X2944896D1*
X3011876D2*
X3044896D1*
X3111876D2*
X3144896D1*
X3211876D2*
X3231478D1*
X3325294D2*
X3553001D1*
X3691720D2*
X3845853D1*
X439396Y3341562D2*
X2504056D1*
X2619376D2*
X2637396D1*
X2719376D2*
X2737396D1*
X2819376D2*
X2837396D1*
X2919376D2*
X2937396D1*
X3019376D2*
X3037396D1*
X3119376D2*
X3137396D1*
X3219376D2*
X3231478D1*
X3325294D2*
X3559017D1*
X3685704D2*
X3852591D1*
X439396Y3331693D2*
X2504056D1*
X2623497D2*
X2633274D1*
X2723497D2*
X2733274D1*
X2823497D2*
X2833274D1*
X2923497D2*
X2933274D1*
X3223497D2*
X3231478D1*
X3325294D2*
X3568899D1*
X3675841D2*
X3852591D1*
X439396Y3321824D2*
X2504056D1*
X2625196D2*
X2631578D1*
X2725196D2*
X2731578D1*
X2825196D2*
X2831578D1*
X2925196D2*
X2931578D1*
X3225196D2*
X3231470D1*
X3325294D2*
X3590013D1*
X3654708D2*
X3852591D1*
X439396Y3311955D2*
X2504056D1*
X2624747D2*
X2632028D1*
X2724747D2*
X2732028D1*
X2824747D2*
X2832028D1*
X2924747D2*
X2932028D1*
X3224747D2*
X3231501D1*
X3325294D2*
X3852591D1*
X439396Y3302087D2*
X2504056D1*
X2622052D2*
X2634720D1*
X2722052D2*
X2734720D1*
X2822052D2*
X2834720D1*
X2922052D2*
X2934720D1*
X3222052D2*
X3231478D1*
X3327286D2*
X3852591D1*
X439396Y3292218D2*
X2504056D1*
X2616642D2*
X2640130D1*
X2716642D2*
X2740130D1*
X2816642D2*
X2840130D1*
X2916642D2*
X2940130D1*
X3016642D2*
X3040130D1*
X3216642D2*
X3231478D1*
X3337149D2*
X3852591D1*
X439396Y3282349D2*
X2504056D1*
X2606993D2*
X2649778D1*
X2706993D2*
X2749778D1*
X2806993D2*
X2849778D1*
X2906993D2*
X2949778D1*
X3006993D2*
X3049778D1*
X3206993D2*
X3231478D1*
X3347032D2*
X3852591D1*
X439396Y3272480D2*
X2504056D1*
X2601954D2*
X3092942D1*
X3154591D2*
X3292942D1*
X3356896D2*
X3852591D1*
X439396Y3262612D2*
X2502298D1*
X2601271D2*
X3102825D1*
X3156290D2*
X3302825D1*
X3366759D2*
X3487962D1*
X3520528D2*
X3852591D1*
X439396Y3252743D2*
X2492435D1*
X2595743D2*
X3110482D1*
X3156290D2*
X3312689D1*
X3376622D2*
X3468685D1*
X3539825D2*
X3852591D1*
X439396Y3242874D2*
X1133743D1*
X2321232D2*
X2482552D1*
X2585860D2*
X3110482D1*
X3156290D2*
X3322552D1*
X3386505D2*
X3458958D1*
X3549532D2*
X3852591D1*
X439396Y3233005D2*
X1123860D1*
X2331095D2*
X2472689D1*
X2575997D2*
X3110482D1*
X3156290D2*
X3332415D1*
X3394357D2*
X3452923D1*
X3555587D2*
X3852591D1*
X439396Y3223136D2*
X1113997D1*
X2340958D2*
X2462825D1*
X2566134D2*
X3110482D1*
X3156290D2*
X3342298D1*
X3396290D2*
X3449310D1*
X3559200D2*
X3852591D1*
X439396Y3213268D2*
X1104134D1*
X2350821D2*
X2452942D1*
X2556271D2*
X3110482D1*
X3156290D2*
X3350482D1*
X3396290D2*
X3447649D1*
X3560860D2*
X3852591D1*
X439396Y3203399D2*
X1094271D1*
X1158204D2*
X1394271D1*
X2546388D2*
X3110482D1*
X3156290D2*
X3350482D1*
X3396290D2*
X3447474D1*
X3561017D2*
X3852591D1*
X439396Y3193530D2*
X455911D1*
X489610D2*
X563333D1*
X582189D2*
X663333D1*
X682189D2*
X763333D1*
X782189D2*
X855911D1*
X889610D2*
X1055911D1*
X1148341D2*
X1155911D1*
X1189610D2*
X1255911D1*
X1289610D2*
X1355911D1*
X2536524D2*
X3110482D1*
X3156290D2*
X3350482D1*
X3396290D2*
X3447474D1*
X3561017D2*
X3852591D1*
X505607Y3183661D2*
X542864D1*
X602638D2*
X642864D1*
X702638D2*
X742864D1*
X802638D2*
X839896D1*
X905607D2*
X1039896D1*
X1205607D2*
X1239896D1*
X1305607D2*
X1339896D1*
X2526661D2*
X3110482D1*
X3156290D2*
X3350482D1*
X3396290D2*
X3447474D1*
X3561017D2*
X3852591D1*
X513536Y3173793D2*
X534310D1*
X611212D2*
X634310D1*
X711212D2*
X734310D1*
X811212D2*
X831966D1*
X913536D2*
X1031966D1*
X1213536D2*
X1231966D1*
X1313536D2*
X1331966D1*
X2211212D2*
X2231966D1*
X2516778D2*
X3110482D1*
X3156290D2*
X3350482D1*
X3396290D2*
X3447474D1*
X3561017D2*
X3852591D1*
X517989Y3163924D2*
X529603D1*
X615899D2*
X629603D1*
X715899D2*
X729603D1*
X815899D2*
X827513D1*
X917989D2*
X1027513D1*
X1118732D2*
X1127513D1*
X1217989D2*
X1227513D1*
X1317989D2*
X1327513D1*
X1418732D2*
X1427513D1*
X2215899D2*
X2227513D1*
X2506915D2*
X3110482D1*
X3156290D2*
X3350482D1*
X3396290D2*
X3447767D1*
X3560724D2*
X3852591D1*
X519962Y3154055D2*
X527532D1*
X617970D2*
X627532D1*
X717970D2*
X727532D1*
X817970D2*
X825540D1*
X919962D2*
X1025540D1*
X1119962D2*
X1125527D1*
X1219962D2*
X1225527D1*
X1319962D2*
X1325527D1*
X1419962D2*
X1425527D1*
X2217970D2*
X2225540D1*
X2497052D2*
X3110482D1*
X3156290D2*
X3350482D1*
X3396290D2*
X3449700D1*
X3558810D2*
X3852591D1*
X519806Y3144186D2*
X527708D1*
X617794D2*
X627708D1*
X717794D2*
X727708D1*
X817794D2*
X825716D1*
X919806D2*
X1025716D1*
X1119806D2*
X1125721D1*
X1219806D2*
X1225721D1*
X1319806D2*
X1325721D1*
X1419806D2*
X1425721D1*
X2217794D2*
X2225716D1*
X2487189D2*
X3110482D1*
X3156290D2*
X3350482D1*
X3396290D2*
X3453607D1*
X3554884D2*
X3852591D1*
X615333Y3134318D2*
X630169D1*
X715333D2*
X730169D1*
X815333D2*
X828060D1*
X920333D2*
X1028060D1*
X1117462D2*
X1128060D1*
X1217462D2*
X1228060D1*
X1317462D2*
X1328060D1*
X1417462D2*
X1428060D1*
X2215333D2*
X2228060D1*
X2317462D2*
X3110482D1*
X3156290D2*
X3350482D1*
X3396290D2*
X3460071D1*
X3548439D2*
X3852591D1*
X610138Y3124449D2*
X635364D1*
X710138D2*
X735364D1*
X810138D2*
X832982D1*
X930196D2*
X1032982D1*
X1112540D2*
X1132982D1*
X1212540D2*
X1232982D1*
X1312540D2*
X1332982D1*
X1412540D2*
X1432982D1*
X2210138D2*
X2232982D1*
X2312540D2*
X3110482D1*
X3156290D2*
X3350482D1*
X3396290D2*
X3470521D1*
X3537989D2*
X3852591D1*
X600665Y3114580D2*
X644857D1*
X700665D2*
X744857D1*
X800665D2*
X841692D1*
X940060D2*
X1041692D1*
X1103829D2*
X1141692D1*
X1203829D2*
X1241692D1*
X1303829D2*
X1341692D1*
X1403829D2*
X1441692D1*
X2200665D2*
X2241692D1*
X2303829D2*
X3110482D1*
X3156290D2*
X3350482D1*
X3396290D2*
X3494173D1*
X3514337D2*
X3852591D1*
X439396Y3104711D2*
X461321D1*
X556310D2*
X861321D1*
X949942D2*
X1061321D1*
X1084200D2*
X1149857D1*
X1195665D2*
X1261321D1*
X1284200D2*
X1361321D1*
X1384200D2*
X1461321D1*
X2204669D2*
X2261321D1*
X2284200D2*
X3110482D1*
X3156290D2*
X3350482D1*
X3396290D2*
X3852591D1*
X439396Y3094843D2*
X489505D1*
X566173D2*
X895872D1*
X959806D2*
X1149857D1*
X1204532D2*
X1495872D1*
X2214532D2*
X3110482D1*
X3156290D2*
X3350482D1*
X3396290D2*
X3852591D1*
X439396Y3084974D2*
X499368D1*
X576036D2*
X905735D1*
X969669D2*
X1152103D1*
X1214396D2*
X1505735D1*
X2224396D2*
X3110482D1*
X3156290D2*
X3350482D1*
X3396290D2*
X3852591D1*
X439396Y3075105D2*
X509232D1*
X585899D2*
X915599D1*
X979552D2*
X1160325D1*
X1224259D2*
X2170325D1*
X2234259D2*
X3110482D1*
X3156290D2*
X3350482D1*
X3396290D2*
X3852591D1*
X439396Y3065236D2*
X519114D1*
X595782D2*
X925462D1*
X989415D2*
X1170189D1*
X1659806D2*
X2180189D1*
X2244142D2*
X3110482D1*
X3156290D2*
X3350482D1*
X3396290D2*
X3852591D1*
X439396Y3055367D2*
X528978D1*
X605646D2*
X935345D1*
X999278D2*
X1180071D1*
X1674005D2*
X2190071D1*
X2254005D2*
X3110482D1*
X3156290D2*
X3350482D1*
X3396290D2*
X3852591D1*
X439396Y3045499D2*
X538841D1*
X615509D2*
X945208D1*
X1009142D2*
X1189935D1*
X1683868D2*
X2199935D1*
X2263868D2*
X3110482D1*
X3156290D2*
X3350482D1*
X3396290D2*
X3852591D1*
X439396Y3035630D2*
X548704D1*
X625392D2*
X955071D1*
X1019024D2*
X1199798D1*
X1693751D2*
X2209798D1*
X2273751D2*
X3110482D1*
X3156290D2*
X3350482D1*
X3396290D2*
X3852591D1*
X439396Y3025761D2*
X558587D1*
X635255D2*
X964954D1*
X1028888D2*
X1210286D1*
X1703614D2*
X2219661D1*
X2283614D2*
X3110482D1*
X3156290D2*
X3350482D1*
X3396290D2*
X3852591D1*
X439396Y3015892D2*
X568450D1*
X645118D2*
X974817D1*
X1038751D2*
X1649544D1*
X1713478D2*
X2229544D1*
X2293478D2*
X3110482D1*
X3156290D2*
X3350482D1*
X3396290D2*
X3852591D1*
X439396Y3006024D2*
X578314D1*
X654982D2*
X984681D1*
X1048634D2*
X1659407D1*
X1723341D2*
X2239407D1*
X2303341D2*
X3110482D1*
X3156290D2*
X3350482D1*
X3396290D2*
X3852591D1*
X439396Y2996155D2*
X588196D1*
X664864D2*
X994544D1*
X1573224D2*
X1669271D1*
X1733224D2*
X2249271D1*
X2313224D2*
X3110482D1*
X3156290D2*
X3350482D1*
X3396290D2*
X3852591D1*
X439396Y2986286D2*
X598060D1*
X674728D2*
X1004427D1*
X1583087D2*
X1679153D1*
X1743087D2*
X2259153D1*
X2323087D2*
X3110482D1*
X3156290D2*
X3350482D1*
X3396290D2*
X3852591D1*
X439396Y2976417D2*
X607923D1*
X684591D2*
X1014290D1*
X1592950D2*
X1689017D1*
X1752950D2*
X2269017D1*
X2332950D2*
X3110482D1*
X3156290D2*
X3350482D1*
X3396290D2*
X3852591D1*
X439396Y2966549D2*
X617786D1*
X694454D2*
X1024446D1*
X1602833D2*
X1698880D1*
X1762833D2*
X2278880D1*
X2342833D2*
X3110482D1*
X3156290D2*
X3350482D1*
X3396290D2*
X3852591D1*
X439396Y2956680D2*
X627669D1*
X704337D2*
X1548743D1*
X1612696D2*
X1708743D1*
X1772696D2*
X2288743D1*
X2352696D2*
X3110482D1*
X3156290D2*
X3350482D1*
X3396290D2*
X3852591D1*
X439396Y2946811D2*
X637532D1*
X714200D2*
X1558626D1*
X1622560D2*
X1718626D1*
X1782560D2*
X2298626D1*
X2362560D2*
X3110482D1*
X3156290D2*
X3350482D1*
X3396290D2*
X3852591D1*
X439396Y2936942D2*
X647396D1*
X1507482D2*
X1568489D1*
X1632423D2*
X1728489D1*
X1792423D2*
X2308489D1*
X2372423D2*
X3110482D1*
X3156290D2*
X3350482D1*
X3396290D2*
X3852591D1*
X439396Y2927073D2*
X657259D1*
X1518673D2*
X1578353D1*
X1642306D2*
X1738353D1*
X1802306D2*
X2318353D1*
X2382306D2*
X3110482D1*
X3156290D2*
X3350482D1*
X3396290D2*
X3852591D1*
X439396Y2917205D2*
X474993D1*
X489571D2*
X667142D1*
X1528536D2*
X1588216D1*
X1652169D2*
X1748216D1*
X1812169D2*
X2328216D1*
X2392169D2*
X3110482D1*
X3156290D2*
X3350482D1*
X3396290D2*
X3852591D1*
X439396Y2907336D2*
X452786D1*
X511778D2*
X677005D1*
X1538399D2*
X1598099D1*
X1662032D2*
X1758099D1*
X1822032D2*
X2338099D1*
X2402032D2*
X3110482D1*
X3156290D2*
X3350482D1*
X3396290D2*
X3852591D1*
X520548Y2897467D2*
X686868D1*
X1548263D2*
X1607962D1*
X1671915D2*
X1767962D1*
X1831915D2*
X2347962D1*
X2411915D2*
X3110482D1*
X3156290D2*
X3350482D1*
X3396290D2*
X3852591D1*
X525372Y2887598D2*
X1481458D1*
X1558146D2*
X1617825D1*
X1681778D2*
X1777825D1*
X1841778D2*
X2357825D1*
X2421778D2*
X3110482D1*
X3156290D2*
X3350482D1*
X3396290D2*
X3852591D1*
X527540Y2877730D2*
X1491341D1*
X1568009D2*
X1627708D1*
X1691642D2*
X1787708D1*
X1851642D2*
X2367708D1*
X2431642D2*
X3110482D1*
X3156290D2*
X3350482D1*
X3396290D2*
X3852591D1*
X527462Y2867861D2*
X1501204D1*
X1577872D2*
X1637571D1*
X1701505D2*
X1797571D1*
X1861505D2*
X2377571D1*
X2441505D2*
X3110482D1*
X3156290D2*
X3350482D1*
X3396290D2*
X3852591D1*
X525118Y2857992D2*
X1359583D1*
X1492814D2*
X1511067D1*
X1587735D2*
X1647435D1*
X1711388D2*
X1807435D1*
X1871388D2*
X2387435D1*
X2451388D2*
X2653138D1*
X2703634D2*
X2753138D1*
X2803634D2*
X2853138D1*
X2903634D2*
X2953138D1*
X3003634D2*
X3053138D1*
X3103634D2*
X3110482D1*
X3156290D2*
X3253138D1*
X3303634D2*
X3350482D1*
X3396290D2*
X3852591D1*
X439396Y2848123D2*
X444479D1*
X520079D2*
X1359583D1*
X1492814D2*
X1520950D1*
X1597618D2*
X1657298D1*
X1721251D2*
X1817298D1*
X1881251D2*
X2397298D1*
X2461251D2*
X2641888D1*
X2714884D2*
X2741888D1*
X2814884D2*
X2841888D1*
X2914884D2*
X2941888D1*
X3014884D2*
X3041888D1*
X3156290D2*
X3241888D1*
X3314884D2*
X3350482D1*
X3396290D2*
X3852591D1*
X439396Y2838255D2*
X453665D1*
X510899D2*
X975657D1*
X1492814D2*
X1530814D1*
X1607482D2*
X1667181D1*
X1731114D2*
X1827181D1*
X1891114D2*
X2407181D1*
X2471114D2*
X2635716D1*
X2721056D2*
X2735716D1*
X2821056D2*
X2835716D1*
X2921056D2*
X2935716D1*
X3021056D2*
X3035716D1*
X3156290D2*
X3235716D1*
X3321056D2*
X3350482D1*
X3396290D2*
X3852591D1*
X439396Y2828386D2*
X965794D1*
X1492814D2*
X1540677D1*
X1617345D2*
X1677044D1*
X1740978D2*
X1837044D1*
X1900978D2*
X2417044D1*
X2480978D2*
X2632454D1*
X2724317D2*
X2732454D1*
X2824317D2*
X2832454D1*
X2924317D2*
X2932454D1*
X3024317D2*
X3032454D1*
X3156290D2*
X3232454D1*
X3324317D2*
X3350482D1*
X3396290D2*
X3852591D1*
X439396Y2818517D2*
X955911D1*
X1492814D2*
X1550540D1*
X1627228D2*
X1686907D1*
X1750860D2*
X1846907D1*
X1910860D2*
X2426907D1*
X2490860D2*
X2631497D1*
X2725274D2*
X2731478D1*
X2825274D2*
X2831478D1*
X2925274D2*
X2931478D1*
X3025274D2*
X3031478D1*
X3156290D2*
X3231497D1*
X3325274D2*
X3350482D1*
X3396290D2*
X3852591D1*
X439396Y2808648D2*
X946048D1*
X1492814D2*
X1560423D1*
X1637091D2*
X1696790D1*
X1760724D2*
X1856790D1*
X1920724D2*
X2436790D1*
X2500724D2*
X2632669D1*
X2724103D2*
X2732669D1*
X2824103D2*
X2832669D1*
X2924103D2*
X2932669D1*
X3024103D2*
X3032669D1*
X3156290D2*
X3232669D1*
X3324103D2*
X3350482D1*
X3396290D2*
X3852591D1*
X439396Y2798780D2*
X936185D1*
X1000118D2*
X1359583D1*
X1492814D2*
X1570286D1*
X1646954D2*
X1706653D1*
X1770587D2*
X1866653D1*
X1930587D2*
X2446653D1*
X2510587D2*
X2636185D1*
X2720587D2*
X2736185D1*
X2820587D2*
X2836185D1*
X2920587D2*
X2936185D1*
X3020587D2*
X3036185D1*
X3156290D2*
X3236185D1*
X3320587D2*
X3350482D1*
X3396290D2*
X3852591D1*
X439396Y2788911D2*
X926302D1*
X990255D2*
X1359583D1*
X1492814D2*
X1580149D1*
X1656817D2*
X1716517D1*
X1780470D2*
X1876517D1*
X1940470D2*
X2456517D1*
X2520470D2*
X2642747D1*
X2714024D2*
X2742747D1*
X2814024D2*
X2842747D1*
X2914024D2*
X2942747D1*
X3014024D2*
X3042747D1*
X3156290D2*
X3242747D1*
X3314024D2*
X3350482D1*
X3396290D2*
X3852591D1*
X439396Y2779042D2*
X916439D1*
X980392D2*
X1254192D1*
X1259633D2*
X1359583D1*
X1492814D2*
X1590032D1*
X1666700D2*
X1726380D1*
X1790333D2*
X1886380D1*
X1950333D2*
X2466380D1*
X2530333D2*
X2654817D1*
X2701954D2*
X2754817D1*
X2801954D2*
X2854817D1*
X2901954D2*
X2954817D1*
X3001954D2*
X3054817D1*
X3101954D2*
X3110482D1*
X3156290D2*
X3254817D1*
X3301954D2*
X3350482D1*
X3396290D2*
X3540560D1*
X3646212D2*
X3852591D1*
X439396Y2769173D2*
X906575D1*
X970509D2*
X1224036D1*
X1289786D2*
X1359583D1*
X1492814D2*
X1599896D1*
X1676564D2*
X1736263D1*
X1800196D2*
X1896263D1*
X1960196D2*
X2476263D1*
X2540196D2*
X3110482D1*
X3156290D2*
X3350482D1*
X3396290D2*
X3540560D1*
X3646212D2*
X3852591D1*
X439396Y2759304D2*
X896712D1*
X960646D2*
X1213060D1*
X1300743D2*
X1359583D1*
X1492814D2*
X1609759D1*
X1686427D2*
X1746126D1*
X1810060D2*
X1906126D1*
X1970060D2*
X2486126D1*
X2550060D2*
X3110482D1*
X3156290D2*
X3350482D1*
X3396290D2*
X3540560D1*
X3646212D2*
X3852591D1*
X439396Y2749436D2*
X886829D1*
X950782D2*
X1206321D1*
X1307501D2*
X1359583D1*
X1492814D2*
X1619622D1*
X1696310D2*
X1755989D1*
X1819942D2*
X1915989D1*
X1979942D2*
X2495989D1*
X2559942D2*
X3110482D1*
X3159942D2*
X3346829D1*
X3396290D2*
X3540560D1*
X3646212D2*
X3852591D1*
X439396Y2739567D2*
X876966D1*
X940899D2*
X1202161D1*
X1311661D2*
X1359583D1*
X1492814D2*
X1629505D1*
X1706173D2*
X1765872D1*
X1829806D2*
X1925872D1*
X1989806D2*
X2505872D1*
X2585040D2*
X2671732D1*
X2685040D2*
X2771732D1*
X2785040D2*
X2871732D1*
X2885040D2*
X2971732D1*
X2985040D2*
X3071732D1*
X3085040D2*
X3110950D1*
X3185040D2*
X3231478D1*
X3325294D2*
X3336966D1*
X3395821D2*
X3540560D1*
X3646212D2*
X3852591D1*
X439396Y2729698D2*
X867103D1*
X931036D2*
X1200032D1*
X1313790D2*
X1359583D1*
X1492814D2*
X1639368D1*
X1716036D2*
X1775735D1*
X1839669D2*
X1935735D1*
X1999669D2*
X2515735D1*
X2608263D2*
X2648509D1*
X2708263D2*
X2748509D1*
X2808263D2*
X2848509D1*
X2908263D2*
X2948509D1*
X3008263D2*
X3048509D1*
X3108263D2*
X3115814D1*
X3208263D2*
X3231478D1*
X3390958D2*
X3540560D1*
X3646212D2*
X3852591D1*
X439396Y2719829D2*
X857220D1*
X921173D2*
X1199681D1*
X1314142D2*
X1649232D1*
X1725899D2*
X1785599D1*
X1849552D2*
X1945599D1*
X2009552D2*
X2525599D1*
X2617345D2*
X2639427D1*
X2717345D2*
X2739427D1*
X2817345D2*
X2839427D1*
X2917345D2*
X2939427D1*
X3017345D2*
X3039427D1*
X3117345D2*
X3125599D1*
X3217345D2*
X3231478D1*
X3381173D2*
X3540560D1*
X3646212D2*
X3852591D1*
X439396Y2709961D2*
X850872D1*
X911310D2*
X1057435D1*
X1102560D2*
X1201067D1*
X1312755D2*
X1659114D1*
X1735782D2*
X1795462D1*
X1859415D2*
X1955462D1*
X2019415D2*
X2534349D1*
X2622423D2*
X2634349D1*
X2722423D2*
X2734349D1*
X2822423D2*
X2834349D1*
X2922423D2*
X2934349D1*
X3222423D2*
X3231478D1*
X3371310D2*
X3540560D1*
X3646212D2*
X3852591D1*
X439396Y2700092D2*
X849857D1*
X901427D2*
X1048235D1*
X1111759D2*
X1204368D1*
X1309454D2*
X1668978D1*
X1745646D2*
X1805345D1*
X1869278D2*
X1965345D1*
X2029278D2*
X2531888D1*
X2624884D2*
X2631885D1*
X2724884D2*
X2731885D1*
X2824884D2*
X2831885D1*
X2924884D2*
X2931885D1*
X3224884D2*
X3231476D1*
X3361427D2*
X3540560D1*
X3646212D2*
X3852591D1*
X439396Y2690223D2*
X849857D1*
X895665D2*
X1043880D1*
X1116114D2*
X1209954D1*
X1303868D2*
X1678841D1*
X1755509D2*
X1815208D1*
X1879142D2*
X1975208D1*
X2039142D2*
X2531634D1*
X2725138D2*
X2731645D1*
X2825138D2*
X2831645D1*
X2925138D2*
X2931645D1*
X3225138D2*
X3231501D1*
X3351564D2*
X3540560D1*
X3646212D2*
X3852591D1*
X439396Y2680354D2*
X849857D1*
X895665D2*
X1042610D1*
X1117403D2*
X1218860D1*
X1294962D2*
X1688704D1*
X1765392D2*
X1825071D1*
X1889024D2*
X1985071D1*
X2049024D2*
X2533567D1*
X2723204D2*
X2733567D1*
X2823204D2*
X2833567D1*
X2923204D2*
X2933567D1*
X3223204D2*
X3231478D1*
X3341700D2*
X3852591D1*
X439396Y2670486D2*
X849857D1*
X895665D2*
X1044036D1*
X1122110D2*
X1234954D1*
X1278868D2*
X1698587D1*
X1775255D2*
X1834954D1*
X1898888D2*
X1994954D1*
X2058888D2*
X2537982D1*
X2718790D2*
X2737982D1*
X2818790D2*
X2837982D1*
X2918790D2*
X2937982D1*
X3018790D2*
X3037982D1*
X3118790D2*
X3137982D1*
X3218790D2*
X3231478D1*
X3325294D2*
X3852591D1*
X439396Y2660617D2*
X849857D1*
X895665D2*
X1048587D1*
X1131993D2*
X1708450D1*
X1785118D2*
X1844817D1*
X1908751D2*
X2004817D1*
X2710880D2*
X2745892D1*
X2810880D2*
X2845892D1*
X2910880D2*
X2945892D1*
X3010880D2*
X3045892D1*
X3110880D2*
X3145892D1*
X3210880D2*
X3231478D1*
X3325294D2*
X3852591D1*
X439396Y2650748D2*
X849857D1*
X895665D2*
X1058216D1*
X1141857D2*
X1718314D1*
X1794982D2*
X1854681D1*
X1918634D2*
X2014681D1*
X2652091D2*
X2662064D1*
X2694708D2*
X2762064D1*
X2794708D2*
X2862064D1*
X2894708D2*
X2962064D1*
X2994708D2*
X3062064D1*
X3094708D2*
X3162064D1*
X3194708D2*
X3231478D1*
X3325294D2*
X3852591D1*
X439396Y2640879D2*
X849857D1*
X895665D2*
X1087786D1*
X1151720D2*
X1728196D1*
X1804864D2*
X1864544D1*
X1928497D2*
X2024544D1*
X2642228D2*
X3228274D1*
X3292228D2*
X3852591D1*
X439396Y2631010D2*
X849857D1*
X895665D2*
X1097649D1*
X1258204D2*
X1738060D1*
X1814728D2*
X1874427D1*
X1938360D2*
X2034427D1*
X2632345D2*
X3218411D1*
X3282345D2*
X3852591D1*
X439396Y2621142D2*
X849857D1*
X895665D2*
X1107513D1*
X1268224D2*
X1747923D1*
X1824591D2*
X1884290D1*
X1948224D2*
X3208548D1*
X3272482D2*
X3852591D1*
X439396Y2611273D2*
X849857D1*
X895665D2*
X1117376D1*
X1278107D2*
X1757786D1*
X1834454D2*
X1894153D1*
X1958107D2*
X3198665D1*
X3262618D2*
X3852591D1*
X439396Y2601404D2*
X470657D1*
X493907D2*
X849857D1*
X895665D2*
X1127259D1*
X1287970D2*
X1767669D1*
X1844337D2*
X1904017D1*
X3252755D2*
X3852591D1*
X439396Y2591535D2*
X451810D1*
X512755D2*
X849857D1*
X895665D2*
X1233899D1*
X1297833D2*
X1777532D1*
X1854200D2*
X1913899D1*
X3242872D2*
X3852591D1*
X521095Y2581667D2*
X849857D1*
X895665D2*
X1243763D1*
X1307716D2*
X1787396D1*
X1864064D2*
X1923763D1*
X3233009D2*
X3571985D1*
X3614786D2*
X3852591D1*
X525646Y2571798D2*
X849857D1*
X895665D2*
X1253626D1*
X1317579D2*
X1797259D1*
X1873946D2*
X1933626D1*
X3223146D2*
X3556907D1*
X3629864D2*
X3852591D1*
X527618Y2561929D2*
X849857D1*
X895665D2*
X1263509D1*
X1327442D2*
X1807142D1*
X1883810D2*
X3548704D1*
X3638067D2*
X3852591D1*
X527364Y2552060D2*
X849857D1*
X895665D2*
X1273372D1*
X1337306D2*
X1817005D1*
X1893673D2*
X3543802D1*
X3642970D2*
X3852591D1*
X524806Y2542192D2*
X849857D1*
X895665D2*
X1283235D1*
X1347189D2*
X1826868D1*
X1903536D2*
X3541204D1*
X3645567D2*
X3852591D1*
X439396Y2532323D2*
X445064D1*
X519493D2*
X849857D1*
X895665D2*
X1293099D1*
X1357052D2*
X1836751D1*
X1913419D2*
X3540579D1*
X3646192D2*
X3852591D1*
X439396Y2522454D2*
X454759D1*
X509806D2*
X849857D1*
X895665D2*
X1247005D1*
X1266817D2*
X1302982D1*
X1706212D2*
X1846614D1*
X1923282D2*
X3541868D1*
X3644903D2*
X3852591D1*
X439396Y2512585D2*
X849857D1*
X895665D2*
X1223060D1*
X1290763D2*
X1312845D1*
X1716778D2*
X1856478D1*
X3641583D2*
X3852591D1*
X439396Y2502717D2*
X849857D1*
X895665D2*
X1212493D1*
X1301329D2*
X1322708D1*
X1726661D2*
X1866341D1*
X3635704D2*
X3852591D1*
X439396Y2492848D2*
X849857D1*
X895665D2*
X1205950D1*
X1307853D2*
X1332591D1*
X1736524D2*
X1876224D1*
X3625880D2*
X3852591D1*
X439396Y2482979D2*
X849857D1*
X895665D2*
X1201966D1*
X1311857D2*
X1346302D1*
X1746388D2*
X1886087D1*
X3618360D2*
X3852591D1*
X439396Y2473110D2*
X849857D1*
X895665D2*
X1199954D1*
X1313868D2*
X1692317D1*
X1756271D2*
X1896263D1*
X3610509D2*
X3852591D1*
X439396Y2463241D2*
X849857D1*
X895665D2*
X1199720D1*
X1314103D2*
X1702181D1*
X1766134D2*
X3852591D1*
X439396Y2453373D2*
X849857D1*
X895665D2*
X1201243D1*
X1312579D2*
X1400345D1*
X1452071D2*
X1712064D1*
X1775997D2*
X3852591D1*
X439396Y2443504D2*
X849857D1*
X895665D2*
X1204661D1*
X1309161D2*
X1384251D1*
X1468146D2*
X1721927D1*
X1785860D2*
X3852591D1*
X439396Y2433635D2*
X849857D1*
X895665D2*
X1210442D1*
X1303380D2*
X1374798D1*
X1477599D2*
X1731790D1*
X1795743D2*
X3852591D1*
X439396Y2423766D2*
X849857D1*
X895665D2*
X1219642D1*
X1294161D2*
X1368548D1*
X1483849D2*
X1741673D1*
X1805607D2*
X3852591D1*
X439396Y2413898D2*
X849857D1*
X895665D2*
X1236751D1*
X1277071D2*
X1364505D1*
X1487892D2*
X1751536D1*
X1815470D2*
X3852591D1*
X439396Y2404029D2*
X849857D1*
X895665D2*
X1362239D1*
X1490157D2*
X1761399D1*
X2113282D2*
X3852591D1*
X439396Y2394160D2*
X849857D1*
X895665D2*
X1361575D1*
X1490821D2*
X1771263D1*
X2125216D2*
X3852591D1*
X439396Y2384291D2*
X849857D1*
X895665D2*
X1362454D1*
X1489962D2*
X1781146D1*
X2135079D2*
X3852591D1*
X439396Y2374423D2*
X849857D1*
X895665D2*
X1364915D1*
X1487482D2*
X1791009D1*
X2144942D2*
X3852591D1*
X439396Y2364554D2*
X849857D1*
X895665D2*
X1369212D1*
X1483185D2*
X1802337D1*
X2154825D2*
X3852591D1*
X439396Y2354685D2*
X849857D1*
X895665D2*
X1375814D1*
X1476583D2*
X2100735D1*
X2164689D2*
X3852591D1*
X439396Y2344816D2*
X849857D1*
X895665D2*
X1385833D1*
X1466564D2*
X2110618D1*
X2174552D2*
X3852591D1*
X439396Y2334948D2*
X849857D1*
X895665D2*
X1403607D1*
X1448790D2*
X2120482D1*
X2184435D2*
X3852591D1*
X439396Y2325079D2*
X849857D1*
X895665D2*
X2130345D1*
X2193009D2*
X3852591D1*
X439396Y2315210D2*
X849857D1*
X895665D2*
X2140228D1*
X2195646D2*
X3852591D1*
X439396Y2305341D2*
X849857D1*
X895665D2*
X2149857D1*
X2195665D2*
X3852591D1*
X439396Y2295472D2*
X849857D1*
X895665D2*
X1062923D1*
X1082599D2*
X1262923D1*
X1282599D2*
X1362923D1*
X1382599D2*
X1462923D1*
X1482599D2*
X1562923D1*
X1582599D2*
X2149857D1*
X2195665D2*
X3852591D1*
X439396Y2285604D2*
X445298D1*
X500196D2*
X545306D1*
X600196D2*
X645306D1*
X700196D2*
X745306D1*
X800196D2*
X842103D1*
X903419D2*
X945306D1*
X1000196D2*
X1042103D1*
X1103419D2*
X1145306D1*
X1200196D2*
X1242103D1*
X1303419D2*
X1342103D1*
X1403419D2*
X1442103D1*
X1503419D2*
X1542103D1*
X1603419D2*
X1745306D1*
X1800196D2*
X1845306D1*
X1900196D2*
X1945306D1*
X2000196D2*
X2045306D1*
X2100196D2*
X2142103D1*
X2203419D2*
X3614876D1*
X3671896D2*
X3692513D1*
X3794259D2*
X3852591D1*
X509903Y2275735D2*
X535618D1*
X609903D2*
X635618D1*
X709903D2*
X735618D1*
X809903D2*
X833196D1*
X912306D2*
X935618D1*
X1009903D2*
X1033196D1*
X1112306D2*
X1135618D1*
X1209903D2*
X1233196D1*
X1312306D2*
X1333196D1*
X1412306D2*
X1433196D1*
X1512306D2*
X1533196D1*
X1612306D2*
X1735618D1*
X1809903D2*
X1835618D1*
X1909903D2*
X1935618D1*
X2009903D2*
X2035618D1*
X2109903D2*
X2133196D1*
X2212306D2*
X3603919D1*
X3682853D2*
X3692513D1*
X3794259D2*
X3852591D1*
X515216Y2265866D2*
X530306D1*
X615216D2*
X630306D1*
X715216D2*
X730306D1*
X815216D2*
X828177D1*
X917325D2*
X930306D1*
X1015216D2*
X1028177D1*
X1117325D2*
X1130306D1*
X1215216D2*
X1228177D1*
X1317325D2*
X1328177D1*
X1417325D2*
X1428177D1*
X1517325D2*
X1528177D1*
X1617325D2*
X1730306D1*
X1815216D2*
X1830306D1*
X1915216D2*
X1930306D1*
X2015216D2*
X2030306D1*
X2115216D2*
X2128177D1*
X2217325D2*
X3597571D1*
X3794259D2*
X3852591D1*
X517755Y2255997D2*
X527767D1*
X617755D2*
X627767D1*
X717755D2*
X727767D1*
X817755D2*
X825755D1*
X919747D2*
X927767D1*
X1017755D2*
X1025755D1*
X1119747D2*
X1127767D1*
X1217755D2*
X1225755D1*
X1319747D2*
X1325748D1*
X1419747D2*
X1425748D1*
X1519747D2*
X1525748D1*
X1619747D2*
X1727767D1*
X1817755D2*
X1827767D1*
X1917755D2*
X1927767D1*
X2017755D2*
X2027767D1*
X2117755D2*
X2125755D1*
X2219747D2*
X3593978D1*
X3794259D2*
X3852591D1*
X518009Y2246129D2*
X527493D1*
X618009D2*
X627493D1*
X718009D2*
X727493D1*
X818009D2*
X825521D1*
X920001D2*
X927493D1*
X1018009D2*
X1025521D1*
X1120001D2*
X1127493D1*
X1218009D2*
X1225521D1*
X1320001D2*
X1325498D1*
X1420001D2*
X1425498D1*
X1520001D2*
X1525498D1*
X1620001D2*
X1727493D1*
X1818009D2*
X1827493D1*
X1918009D2*
X1927493D1*
X2018009D2*
X2027493D1*
X2118009D2*
X2125521D1*
X2220001D2*
X3592571D1*
X3794259D2*
X3852591D1*
X516017Y2236260D2*
X529485D1*
X616017D2*
X629485D1*
X716017D2*
X729485D1*
X816017D2*
X827415D1*
X918107D2*
X929485D1*
X1016017D2*
X1027415D1*
X1118107D2*
X1129485D1*
X1216017D2*
X1227415D1*
X1318107D2*
X1327415D1*
X1418107D2*
X1427415D1*
X1518107D2*
X1527415D1*
X1618107D2*
X1729485D1*
X1816017D2*
X1829485D1*
X1916017D2*
X1929485D1*
X2016017D2*
X2029485D1*
X2116017D2*
X2127415D1*
X2218107D2*
X2659427D1*
X2697345D2*
X2759427D1*
X2797345D2*
X2859427D1*
X2897345D2*
X2959427D1*
X2997345D2*
X3059427D1*
X3097345D2*
X3259427D1*
X3297345D2*
X3593138D1*
X3794259D2*
X3852591D1*
X511427Y2226391D2*
X534095D1*
X611427D2*
X634095D1*
X711427D2*
X734095D1*
X811427D2*
X831771D1*
X913751D2*
X934095D1*
X1011427D2*
X1031771D1*
X1122989D2*
X1134095D1*
X1211427D2*
X1231771D1*
X1313751D2*
X1331771D1*
X1413751D2*
X1431771D1*
X1513751D2*
X1531771D1*
X1613751D2*
X1734095D1*
X1811427D2*
X1834095D1*
X1911427D2*
X1934095D1*
X2011427D2*
X2034095D1*
X2111427D2*
X2131771D1*
X2213751D2*
X2644857D1*
X2711915D2*
X2744857D1*
X2811915D2*
X2844857D1*
X2911915D2*
X2944857D1*
X3011915D2*
X3044857D1*
X3111915D2*
X3244857D1*
X3311915D2*
X3595735D1*
X3794259D2*
X3852591D1*
X503028Y2216522D2*
X542474D1*
X603028D2*
X642474D1*
X703028D2*
X742474D1*
X803028D2*
X839544D1*
X905958D2*
X942474D1*
X1003028D2*
X1039544D1*
X1132853D2*
X1142474D1*
X1203028D2*
X1239544D1*
X1305958D2*
X1339544D1*
X1405958D2*
X1439544D1*
X1505958D2*
X1539544D1*
X1605958D2*
X1742474D1*
X1803028D2*
X1842474D1*
X1903028D2*
X1942474D1*
X2003028D2*
X2042474D1*
X2103028D2*
X2139544D1*
X2205958D2*
X2637376D1*
X2719396D2*
X2737376D1*
X2819396D2*
X2837376D1*
X2919396D2*
X2937376D1*
X3019396D2*
X3037376D1*
X3119396D2*
X3237376D1*
X3319396D2*
X3600794D1*
X3685978D2*
X3692513D1*
X3794259D2*
X3852591D1*
X439396Y2206654D2*
X461732D1*
X483790D2*
X561732D1*
X583790D2*
X661732D1*
X683790D2*
X761732D1*
X783790D2*
X854993D1*
X890509D2*
X961732D1*
X983790D2*
X1054993D1*
X1142716D2*
X1161732D1*
X1183790D2*
X1254993D1*
X1290509D2*
X1354993D1*
X1390509D2*
X1454993D1*
X1490509D2*
X1554993D1*
X1590509D2*
X1761732D1*
X1783790D2*
X1861732D1*
X1883790D2*
X1961732D1*
X1983790D2*
X2061732D1*
X2083790D2*
X2154993D1*
X2190509D2*
X2633255D1*
X2723517D2*
X2733255D1*
X2823517D2*
X2833255D1*
X2923517D2*
X2933255D1*
X3023517D2*
X3033255D1*
X3123517D2*
X3233255D1*
X3323517D2*
X3609368D1*
X3677403D2*
X3692513D1*
X3794259D2*
X3852591D1*
X439396Y2196785D2*
X1088646D1*
X1152579D2*
X2631575D1*
X2725196D2*
X2731578D1*
X2825196D2*
X2831578D1*
X2925196D2*
X2931578D1*
X3025196D2*
X3031578D1*
X3125196D2*
X3231575D1*
X3325196D2*
X3626399D1*
X3660372D2*
X3692513D1*
X3794259D2*
X3852591D1*
X439396Y2186916D2*
X1098509D1*
X1162462D2*
X2632044D1*
X2724728D2*
X2732027D1*
X2824728D2*
X2832027D1*
X2924728D2*
X2932027D1*
X3024728D2*
X3032027D1*
X3124728D2*
X3232044D1*
X3324728D2*
X3713489D1*
X3782364D2*
X3852591D1*
X439396Y2177047D2*
X1108392D1*
X1172325D2*
X2634739D1*
X2722032D2*
X2729271D1*
X2822032D2*
X2834739D1*
X2922032D2*
X2934739D1*
X3122032D2*
X3234739D1*
X3322032D2*
X3714329D1*
X3792228D2*
X3852591D1*
X439396Y2167178D2*
X1118255D1*
X1182189D2*
X2640149D1*
X2816622D2*
X2840149D1*
X2916622D2*
X2940149D1*
X3116622D2*
X3240149D1*
X3316622D2*
X3718899D1*
X3802091D2*
X3852591D1*
X439396Y2157310D2*
X1128118D1*
X1192071D2*
X2649817D1*
X2806954D2*
X2849817D1*
X2906954D2*
X2949817D1*
X3040782D2*
X3049817D1*
X3106954D2*
X3249817D1*
X3306954D2*
X3728216D1*
X3811954D2*
X3852591D1*
X439396Y2147441D2*
X1137982D1*
X1201935D2*
X2699661D1*
X2776329D2*
X2850989D1*
X2905782D2*
X2985989D1*
X3040782D2*
X3050989D1*
X3105782D2*
X3738099D1*
X3821837D2*
X3852591D1*
X439396Y2137572D2*
X1147864D1*
X1211798D2*
X2689778D1*
X2766466D2*
X2850989D1*
X2905782D2*
X2985989D1*
X3040782D2*
X3050989D1*
X3105782D2*
X3747962D1*
X3829903D2*
X3852591D1*
X439396Y2127703D2*
X1157728D1*
X1221661D2*
X2679915D1*
X2756583D2*
X2850989D1*
X2905782D2*
X2985989D1*
X3040782D2*
X3050989D1*
X3105782D2*
X3757825D1*
X3833048D2*
X3852591D1*
X439396Y2117835D2*
X1167591D1*
X1231544D2*
X2670052D1*
X2746720D2*
X2850989D1*
X2905782D2*
X2985989D1*
X3040782D2*
X3050989D1*
X3105782D2*
X3767689D1*
X3833282D2*
X3852591D1*
X439396Y2107966D2*
X1177474D1*
X1241407D2*
X2559349D1*
X2736857D2*
X2850989D1*
X2905782D2*
X2985989D1*
X3040782D2*
X3050989D1*
X3105782D2*
X3773489D1*
X3833282D2*
X3852591D1*
X439396Y2098097D2*
X1187337D1*
X1251271D2*
X2116458D1*
X2210314D2*
X2549134D1*
X2726993D2*
X2850989D1*
X2905782D2*
X2985989D1*
X3040782D2*
X3050989D1*
X3105782D2*
X3773489D1*
X3833282D2*
X3852591D1*
X439396Y2088228D2*
X1197200D1*
X1261153D2*
X2116458D1*
X2210314D2*
X2539271D1*
X2717110D2*
X2850989D1*
X2905782D2*
X2985989D1*
X3040782D2*
X3050989D1*
X3105782D2*
X3773489D1*
X3833282D2*
X3852591D1*
X439396Y2078360D2*
X1207064D1*
X1271017D2*
X2116458D1*
X2210314D2*
X2529388D1*
X2707247D2*
X2850989D1*
X2905782D2*
X2985989D1*
X3040782D2*
X3050989D1*
X3105782D2*
X3773489D1*
X3833282D2*
X3852591D1*
X439396Y2068491D2*
X1216946D1*
X1280880D2*
X2116458D1*
X2210314D2*
X2519524D1*
X2697384D2*
X2850989D1*
X2905782D2*
X2985989D1*
X3040782D2*
X3050989D1*
X3105782D2*
X3773489D1*
X3833282D2*
X3852591D1*
X439396Y2058622D2*
X1226810D1*
X1290743D2*
X2116458D1*
X2210314D2*
X2509661D1*
X2586329D2*
X2850989D1*
X2905782D2*
X2985989D1*
X3040782D2*
X3050989D1*
X3105782D2*
X3773489D1*
X3833282D2*
X3852591D1*
X439396Y2048753D2*
X1236673D1*
X1300626D2*
X2116458D1*
X2210314D2*
X2499778D1*
X2576466D2*
X2850989D1*
X2905782D2*
X2985989D1*
X3040782D2*
X3050989D1*
X3105782D2*
X3773489D1*
X3833282D2*
X3852591D1*
X439396Y2038885D2*
X1246536D1*
X1310489D2*
X2116458D1*
X2210314D2*
X2489915D1*
X2566583D2*
X2850989D1*
X2905782D2*
X2984798D1*
X3105782D2*
X3773489D1*
X3833282D2*
X3852591D1*
X439396Y2029016D2*
X1256419D1*
X1320353D2*
X2116458D1*
X2210314D2*
X2480052D1*
X2556720D2*
X2850989D1*
X2905782D2*
X2974935D1*
X3105079D2*
X3773489D1*
X3833282D2*
X3852591D1*
X439396Y2019147D2*
X1266282D1*
X1330235D2*
X2116458D1*
X2210314D2*
X2470189D1*
X2546857D2*
X2850989D1*
X2905782D2*
X2965071D1*
X3100431D2*
X3773489D1*
X3833282D2*
X3852591D1*
X439396Y2009278D2*
X1276146D1*
X1340099D2*
X2116458D1*
X2210314D2*
X2460306D1*
X2536993D2*
X2850989D1*
X2905782D2*
X2955189D1*
X3090919D2*
X3773489D1*
X3833282D2*
X3852591D1*
X439396Y1999409D2*
X1286028D1*
X1349962D2*
X2155403D1*
X2171368D2*
X2450442D1*
X2527110D2*
X2850989D1*
X2905782D2*
X2945325D1*
X3081056D2*
X3773489D1*
X3833282D2*
X3852591D1*
X439396Y1989541D2*
X1295892D1*
X1359825D2*
X2133274D1*
X2193497D2*
X2440579D1*
X2517247D2*
X2850989D1*
X2905782D2*
X2935462D1*
X3071192D2*
X3773489D1*
X3833282D2*
X3852591D1*
X439396Y1979672D2*
X1305755D1*
X1369708D2*
X2124290D1*
X2202482D2*
X2430716D1*
X2507384D2*
X2850989D1*
X2905782D2*
X2925579D1*
X3061310D2*
X3773489D1*
X3833282D2*
X3852591D1*
X439396Y1969803D2*
X1315618D1*
X1379571D2*
X2119251D1*
X2207521D2*
X2420872D1*
X2497501D2*
X2846829D1*
X2905782D2*
X2915716D1*
X3051446D2*
X3773489D1*
X3833282D2*
X3852591D1*
X439396Y1959934D2*
X1325501D1*
X1389435D2*
X2116849D1*
X2209923D2*
X2415110D1*
X2487638D2*
X2836946D1*
X3041583D2*
X3773489D1*
X3833282D2*
X3852591D1*
X439396Y1950066D2*
X1335364D1*
X1399298D2*
X2116634D1*
X2210138D2*
X2413860D1*
X2477774D2*
X2827083D1*
X3031700D2*
X3773489D1*
X3833282D2*
X3852591D1*
X439396Y1940197D2*
X1345228D1*
X1409181D2*
X2118587D1*
X2208185D2*
X2413860D1*
X2468653D2*
X2817220D1*
X3021837D2*
X3773489D1*
X3833282D2*
X3852591D1*
X439396Y1930328D2*
X1355110D1*
X1419044D2*
X2123040D1*
X2203732D2*
X2413860D1*
X2468653D2*
X2807357D1*
X3011974D2*
X3773489D1*
X3833282D2*
X3852591D1*
X439396Y1920459D2*
X1364974D1*
X1428907D2*
X2131028D1*
X2195743D2*
X2413860D1*
X2468653D2*
X2797474D1*
X3002110D2*
X3773489D1*
X3833282D2*
X3852591D1*
X439396Y1910591D2*
X1374837D1*
X1438790D2*
X2147435D1*
X2179337D2*
X2413860D1*
X2468653D2*
X2787610D1*
X2992228D2*
X3773489D1*
X3833282D2*
X3852591D1*
X439396Y1900722D2*
X1384700D1*
X1448653D2*
X2413860D1*
X2468653D2*
X2777747D1*
X2982364D2*
X3773489D1*
X3833282D2*
X3852591D1*
X439396Y1890853D2*
X1108626D1*
X1175470D2*
X1394583D1*
X1458517D2*
X2134954D1*
X2191817D2*
X2413860D1*
X2468653D2*
X2767864D1*
X2972501D2*
X3117083D1*
X3182755D2*
X3773489D1*
X3833282D2*
X3852591D1*
X439396Y1880984D2*
X1046321D1*
X1237774D2*
X1404446D1*
X1468380D2*
X2125208D1*
X2201564D2*
X2413860D1*
X2468653D2*
X2758001D1*
X2962618D2*
X3056126D1*
X3243712D2*
X3773489D1*
X3833282D2*
X3852591D1*
X439396Y1871115D2*
X990560D1*
X1293536D2*
X1414310D1*
X1478263D2*
X2119759D1*
X2207013D2*
X2413860D1*
X2468653D2*
X2748138D1*
X2952755D2*
X2999642D1*
X3300196D2*
X3773489D1*
X3833282D2*
X3852591D1*
X439396Y1861247D2*
X970989D1*
X1313107D2*
X1424192D1*
X1488126D2*
X2117024D1*
X2209747D2*
X2413860D1*
X2468653D2*
X2738274D1*
X2942892D2*
X2980169D1*
X3319669D2*
X3773489D1*
X3833282D2*
X3852591D1*
X439396Y1851378D2*
X951634D1*
X1332462D2*
X1434056D1*
X1497989D2*
X2116536D1*
X2210235D2*
X2413860D1*
X2468653D2*
X2728392D1*
X2933028D2*
X2961224D1*
X3338614D2*
X3773489D1*
X3833282D2*
X3852591D1*
X439396Y1841509D2*
X932259D1*
X1351837D2*
X1443919D1*
X1507872D2*
X2118196D1*
X2208575D2*
X2413860D1*
X2468653D2*
X2718528D1*
X2923146D2*
X2942278D1*
X3357579D2*
X3773489D1*
X3833282D2*
X3852591D1*
X439396Y1831640D2*
X912884D1*
X1371212D2*
X1453782D1*
X1517735D2*
X2122278D1*
X2204493D2*
X2413860D1*
X2468653D2*
X2708665D1*
X2913282D2*
X2923333D1*
X3376524D2*
X3773489D1*
X3833282D2*
X3852591D1*
X439396Y1821772D2*
X893528D1*
X1390567D2*
X1463665D1*
X1527599D2*
X2129681D1*
X2197091D2*
X2413860D1*
X2468653D2*
X2698782D1*
X3395470D2*
X3773489D1*
X3833282D2*
X3852591D1*
X439396Y1811903D2*
X874153D1*
X1409942D2*
X1473528D1*
X1537462D2*
X2144056D1*
X2182716D2*
X2413860D1*
X2468653D2*
X2688919D1*
X3414415D2*
X3773489D1*
X3833282D2*
X3852591D1*
X439396Y1802034D2*
X857357D1*
X1426739D2*
X1483392D1*
X1547345D2*
X2413860D1*
X2468653D2*
X2679056D1*
X3432325D2*
X3773489D1*
X3833282D2*
X3852591D1*
X439396Y1792165D2*
X847415D1*
X1436681D2*
X1493274D1*
X1557208D2*
X2136810D1*
X2189962D2*
X2413860D1*
X2468653D2*
X2669192D1*
X3442540D2*
X3773489D1*
X3833282D2*
X3852591D1*
X439396Y1782297D2*
X837552D1*
X1446544D2*
X1503138D1*
X1567071D2*
X2126204D1*
X2200567D2*
X2413860D1*
X2468653D2*
X2659310D1*
X3452189D2*
X3773489D1*
X3833282D2*
X3852591D1*
X439396Y1772428D2*
X827669D1*
X1456427D2*
X1513001D1*
X1576954D2*
X2120306D1*
X2206466D2*
X2413860D1*
X2468653D2*
X2649446D1*
X3461837D2*
X3773489D1*
X3833282D2*
X3852591D1*
X439396Y1762559D2*
X817806D1*
X1466290D2*
X1522864D1*
X1586817D2*
X2117259D1*
X2209513D2*
X2413860D1*
X2468653D2*
X2639583D1*
X3471485D2*
X3773489D1*
X3833282D2*
X3852591D1*
X439396Y1752690D2*
X807942D1*
X1476153D2*
X1532747D1*
X1596681D2*
X2116478D1*
X2210294D2*
X2413860D1*
X2468653D2*
X2629700D1*
X3481153D2*
X3773489D1*
X3833282D2*
X3852591D1*
X439396Y1742822D2*
X798079D1*
X1486017D2*
X1542610D1*
X1606544D2*
X2117845D1*
X2208927D2*
X2413860D1*
X2468653D2*
X2619837D1*
X3490802D2*
X3773489D1*
X3833282D2*
X3852591D1*
X439396Y1732953D2*
X788196D1*
X1495899D2*
X1552474D1*
X1616427D2*
X2121575D1*
X2205196D2*
X2413860D1*
X2468653D2*
X2609974D1*
X3500450D2*
X3773489D1*
X3833282D2*
X3852591D1*
X439396Y1723084D2*
X778333D1*
X1505763D2*
X1562337D1*
X1626290D2*
X2128431D1*
X2198341D2*
X2413860D1*
X2468653D2*
X2600110D1*
X3510118D2*
X3773489D1*
X3833282D2*
X3852591D1*
X439396Y1713215D2*
X768470D1*
X1515626D2*
X1572220D1*
X1636153D2*
X2141302D1*
X2185470D2*
X2413860D1*
X2468653D2*
X2590228D1*
X3519767D2*
X3773489D1*
X3833282D2*
X3852591D1*
X439396Y1703346D2*
X758587D1*
X1525489D2*
X1582083D1*
X1646036D2*
X2413860D1*
X2468653D2*
X2580364D1*
X3529415D2*
X3773489D1*
X3833282D2*
X3852591D1*
X439396Y1693478D2*
X751341D1*
X1532755D2*
X1591946D1*
X1655899D2*
X2413860D1*
X2468653D2*
X2570501D1*
X3538263D2*
X3773489D1*
X3833282D2*
X3852591D1*
X439396Y1683609D2*
X746302D1*
X1537774D2*
X1601829D1*
X1665763D2*
X2413860D1*
X2468653D2*
X2560618D1*
X3543517D2*
X3773489D1*
X3833282D2*
X3852591D1*
X439396Y1673740D2*
X741282D1*
X1542814D2*
X1611692D1*
X1675626D2*
X2413860D1*
X2468653D2*
X2550755D1*
X3548439D2*
X3773489D1*
X3833282D2*
X3852591D1*
X439396Y1663871D2*
X736263D1*
X1547833D2*
X1621556D1*
X1685509D2*
X2412942D1*
X2468653D2*
X2540892D1*
X3553360D2*
X3773489D1*
X3833282D2*
X3852591D1*
X439396Y1654003D2*
X731224D1*
X1552872D2*
X1631419D1*
X1695372D2*
X2403060D1*
X2468653D2*
X2531028D1*
X2735646D2*
X2741549D1*
X3558282D2*
X3773489D1*
X3833282D2*
X3852591D1*
X439396Y1644134D2*
X726204D1*
X1557892D2*
X1641302D1*
X1705235D2*
X2393196D1*
X2466798D2*
X2521146D1*
X2725782D2*
X2736653D1*
X3563204D2*
X3773489D1*
X3833282D2*
X3852591D1*
X439396Y1634265D2*
X721165D1*
X1562931D2*
X1651165D1*
X1715099D2*
X2383333D1*
X2460001D2*
X2511282D1*
X2715899D2*
X2731732D1*
X3568126D2*
X3773489D1*
X3833282D2*
X3852591D1*
X439396Y1624396D2*
X716146D1*
X1567950D2*
X1661028D1*
X1724982D2*
X2373470D1*
X2450138D2*
X2501419D1*
X2706036D2*
X2726810D1*
X3573028D2*
X3773489D1*
X3833282D2*
X3852591D1*
X439396Y1614528D2*
X711107D1*
X1572989D2*
X1670911D1*
X1734845D2*
X2363587D1*
X2440255D2*
X2491556D1*
X2696173D2*
X2721888D1*
X3577950D2*
X3773489D1*
X3833282D2*
X3852591D1*
X439396Y1604659D2*
X706087D1*
X1578009D2*
X1680774D1*
X1744708D2*
X2353724D1*
X2430392D2*
X2481673D1*
X2686310D2*
X2716966D1*
X3582872D2*
X3773489D1*
X3833282D2*
X3852591D1*
X439396Y1594790D2*
X701048D1*
X1583048D2*
X1690638D1*
X1754591D2*
X2343860D1*
X2420528D2*
X2471810D1*
X2676427D2*
X2712044D1*
X3587794D2*
X3773489D1*
X3833282D2*
X3852591D1*
X439396Y1584921D2*
X696028D1*
X1588067D2*
X1700501D1*
X1764454D2*
X2333997D1*
X2410665D2*
X2461946D1*
X2666564D2*
X2707122D1*
X3592716D2*
X3773489D1*
X3833282D2*
X3852591D1*
X439396Y1575052D2*
X691009D1*
X1593087D2*
X1710384D1*
X1774317D2*
X2140911D1*
X2190431D2*
X2324114D1*
X2400782D2*
X2452064D1*
X2656700D2*
X2702220D1*
X3597638D2*
X3773489D1*
X3833282D2*
X3852591D1*
X439396Y1565184D2*
X686478D1*
X1597618D2*
X1720247D1*
X1784181D2*
X2129407D1*
X2201915D2*
X2314251D1*
X2390919D2*
X2442200D1*
X2646817D2*
X2697298D1*
X3602560D2*
X3773489D1*
X3833282D2*
X3852591D1*
X439396Y1555315D2*
X684505D1*
X1599591D2*
X1730110D1*
X1794064D2*
X2123118D1*
X2381056D2*
X2432337D1*
X2636954D2*
X2693528D1*
X3606329D2*
X3773489D1*
X3833282D2*
X3852591D1*
X439396Y1545446D2*
X682942D1*
X1601153D2*
X1739993D1*
X1803927D2*
X2119778D1*
X2371192D2*
X2422474D1*
X2627091D2*
X2691927D1*
X3607931D2*
X3773489D1*
X3833282D2*
X3852591D1*
X439396Y1535577D2*
X681380D1*
X1602716D2*
X1749857D1*
X1813790D2*
X2118743D1*
X2361310D2*
X2412591D1*
X2617228D2*
X2690384D1*
X3609454D2*
X3773489D1*
X3833282D2*
X3852591D1*
X439396Y1525709D2*
X679817D1*
X1604278D2*
X1759720D1*
X1823673D2*
X2119857D1*
X2351446D2*
X2402728D1*
X2607345D2*
X2688860D1*
X3610978D2*
X3773489D1*
X3833282D2*
X3852591D1*
X439396Y1515840D2*
X678255D1*
X1605841D2*
X1769583D1*
X1833536D2*
X2123274D1*
X2341485D2*
X2392864D1*
X2597482D2*
X2687337D1*
X3612521D2*
X3773489D1*
X3833282D2*
X3852591D1*
X439396Y1505971D2*
X676692D1*
X1607403D2*
X1779466D1*
X1843399D2*
X2129700D1*
X2201642D2*
X2382982D1*
X2587618D2*
X2685794D1*
X3614044D2*
X3773489D1*
X3833282D2*
X3852591D1*
X439396Y1496102D2*
X675130D1*
X1608966D2*
X1789329D1*
X1853263D2*
X2141478D1*
X2189864D2*
X2373118D1*
X2577735D2*
X2684271D1*
X3615567D2*
X3773489D1*
X3833282D2*
X3852591D1*
X439396Y1486234D2*
X673567D1*
X1610528D2*
X1799192D1*
X1863146D2*
X2363255D1*
X2567872D2*
X2682747D1*
X3617091D2*
X3773489D1*
X3833282D2*
X3852591D1*
X439396Y1476365D2*
X672005D1*
X1612091D2*
X1809056D1*
X1873009D2*
X2143235D1*
X2558009D2*
X2681224D1*
X3618634D2*
X3773489D1*
X3833282D2*
X3852591D1*
X439396Y1466496D2*
X670442D1*
X1613653D2*
X1818939D1*
X1882872D2*
X2130560D1*
X2548146D2*
X2679681D1*
X3620157D2*
X3773489D1*
X3833282D2*
X3852591D1*
X439396Y1456627D2*
X668880D1*
X1615216D2*
X1828802D1*
X1892755D2*
X2123763D1*
X2538263D2*
X2678157D1*
X3621681D2*
X3773489D1*
X3833282D2*
X3852591D1*
X439396Y1446759D2*
X667317D1*
X1616778D2*
X1838665D1*
X1902618D2*
X2120071D1*
X2528399D2*
X2676634D1*
X3623224D2*
X3773489D1*
X3833282D2*
X3852591D1*
X439396Y1436890D2*
X665755D1*
X1618341D2*
X1848548D1*
X1912482D2*
X2118763D1*
X2518536D2*
X2675091D1*
X3624747D2*
X3773489D1*
X3833282D2*
X3852591D1*
X439396Y1427021D2*
X664192D1*
X1619903D2*
X1858411D1*
X1922345D2*
X2119583D1*
X2211759D2*
X2372942D1*
X2508673D2*
X2673567D1*
X3626271D2*
X3773489D1*
X3833282D2*
X3852591D1*
X439396Y1417152D2*
X663138D1*
X1620958D2*
X1868274D1*
X1949454D2*
X2122669D1*
X2208673D2*
X2363060D1*
X2498790D2*
X2672044D1*
X3627794D2*
X3773489D1*
X3833282D2*
X3852591D1*
X439396Y1407283D2*
X664329D1*
X1619767D2*
X1878138D1*
X1962384D2*
X2128626D1*
X2202716D2*
X2353196D1*
X2488927D2*
X2671009D1*
X3628829D2*
X3773489D1*
X3833282D2*
X3852591D1*
X439396Y1397415D2*
X665892D1*
X1618185D2*
X1888021D1*
X1968224D2*
X2139368D1*
X2191974D2*
X2343333D1*
X2479064D2*
X2672200D1*
X3627638D2*
X3773489D1*
X3833282D2*
X3852591D1*
X439396Y1387546D2*
X667454D1*
X1616622D2*
X1896165D1*
X1970607D2*
X2333470D1*
X2469181D2*
X2673724D1*
X3626114D2*
X3773489D1*
X3833282D2*
X3852591D1*
X439396Y1377677D2*
X669036D1*
X1615060D2*
X1896536D1*
X1970235D2*
X2145931D1*
X2185411D2*
X2323587D1*
X2459317D2*
X2675247D1*
X3624591D2*
X3773489D1*
X3833282D2*
X3852591D1*
X439396Y1367808D2*
X670599D1*
X1613497D2*
X1899798D1*
X1966974D2*
X2131790D1*
X2199552D2*
X2313724D1*
X2449454D2*
X2676790D1*
X3623048D2*
X3773489D1*
X3833282D2*
X3852591D1*
X439396Y1357940D2*
X672161D1*
X1611935D2*
X1906985D1*
X1959786D2*
X2124466D1*
X2439591D2*
X2678314D1*
X3621524D2*
X3773489D1*
X3833282D2*
X3852591D1*
X439396Y1348071D2*
X673724D1*
X1610372D2*
X1926653D1*
X1940118D2*
X2120423D1*
X2429708D2*
X2679837D1*
X3620001D2*
X3773489D1*
X3833282D2*
X3852591D1*
X439396Y1338202D2*
X675286D1*
X1608810D2*
X2118802D1*
X2419845D2*
X2681380D1*
X3618478D2*
X3773489D1*
X3833282D2*
X3852591D1*
X439396Y1328333D2*
X676849D1*
X1607247D2*
X2119349D1*
X2409982D2*
X2682903D1*
X3616935D2*
X3773489D1*
X3833282D2*
X3852591D1*
X439396Y1318465D2*
X678411D1*
X1605685D2*
X2122122D1*
X2400099D2*
X2684427D1*
X3615411D2*
X3773489D1*
X3833282D2*
X3852591D1*
X439396Y1308596D2*
X679974D1*
X1604122D2*
X2127630D1*
X2203712D2*
X2313567D1*
X2390235D2*
X2685970D1*
X3613888D2*
X3773489D1*
X3833282D2*
X3852591D1*
X439396Y1298727D2*
X681536D1*
X1602560D2*
X2137493D1*
X2193849D2*
X2303704D1*
X2380372D2*
X2687493D1*
X3612345D2*
X3773489D1*
X3833282D2*
X3852591D1*
X439396Y1288858D2*
X683099D1*
X1600997D2*
X2293821D1*
X2370509D2*
X2689017D1*
X3610821D2*
X3773489D1*
X3833282D2*
X3852591D1*
X439396Y1278990D2*
X684661D1*
X1599435D2*
X2118743D1*
X2212599D2*
X2283958D1*
X2360626D2*
X2690540D1*
X3609298D2*
X3773489D1*
X3833282D2*
X3852591D1*
X439396Y1269121D2*
X686810D1*
X1597286D2*
X2118743D1*
X2212599D2*
X2274095D1*
X2350763D2*
X2692083D1*
X3607774D2*
X3773489D1*
X3833282D2*
X3852591D1*
X439396Y1259252D2*
X691497D1*
X1592599D2*
X2118743D1*
X2340899D2*
X2693763D1*
X3606075D2*
X3773489D1*
X3833282D2*
X3852591D1*
X439396Y1249383D2*
X696517D1*
X1587579D2*
X2118743D1*
X2331017D2*
X2697806D1*
X3602032D2*
X3773489D1*
X3833282D2*
X3852591D1*
X439396Y1239514D2*
X701556D1*
X1582540D2*
X2118743D1*
X2321153D2*
X2702728D1*
X3597130D2*
X3773489D1*
X3833282D2*
X3852591D1*
X439396Y1229646D2*
X706575D1*
X1577521D2*
X2118743D1*
X2311290D2*
X2707630D1*
X3592208D2*
X3773489D1*
X3833282D2*
X3852591D1*
X439396Y1219777D2*
X711614D1*
X1572482D2*
X2118743D1*
X2301427D2*
X2712552D1*
X3587286D2*
X3773489D1*
X3833282D2*
X3852591D1*
X439396Y1209908D2*
X716634D1*
X1567462D2*
X2118743D1*
X2285470D2*
X2717474D1*
X3582364D2*
X3773489D1*
X3833282D2*
X3852591D1*
X439396Y1200039D2*
X721673D1*
X1562423D2*
X2118743D1*
X2212599D2*
X2722396D1*
X3577442D2*
X3773489D1*
X3833282D2*
X3852591D1*
X439396Y1190171D2*
X726692D1*
X1557403D2*
X2118743D1*
X2212599D2*
X2727317D1*
X3572521D2*
X3773489D1*
X3833282D2*
X3852591D1*
X439396Y1180302D2*
X731712D1*
X1552364D2*
X2732239D1*
X3567599D2*
X3773489D1*
X3833282D2*
X3852591D1*
X439396Y1170433D2*
X736751D1*
X1547345D2*
X2737161D1*
X3562696D2*
X3773489D1*
X3833282D2*
X3852591D1*
X439396Y1160564D2*
X741771D1*
X1542325D2*
X2742064D1*
X3557774D2*
X3773489D1*
X3833282D2*
X3852591D1*
X439396Y1150696D2*
X746810D1*
X1537286D2*
X2746985D1*
X3552853D2*
X3773489D1*
X3833282D2*
X3852591D1*
X439396Y1140827D2*
X751849D1*
X1532247D2*
X2751907D1*
X3547931D2*
X3773489D1*
X3833282D2*
X3852591D1*
X439396Y1130958D2*
X759564D1*
X1524532D2*
X2756829D1*
X3543009D2*
X3773489D1*
X3833282D2*
X3852591D1*
X439396Y1121089D2*
X769427D1*
X1514649D2*
X2762298D1*
X3537560D2*
X3773489D1*
X3833282D2*
X3852591D1*
X439396Y1111220D2*
X779310D1*
X1504786D2*
X2771419D1*
X3528419D2*
X3773489D1*
X3833282D2*
X3852591D1*
X439396Y1101352D2*
X789173D1*
X1494923D2*
X2781087D1*
X3518771D2*
X3773489D1*
X3833282D2*
X3852591D1*
X439396Y1091483D2*
X799036D1*
X1485060D2*
X2790735D1*
X3509103D2*
X3773489D1*
X3833282D2*
X3852591D1*
X439396Y1081614D2*
X808919D1*
X1475177D2*
X2800384D1*
X3499454D2*
X3773489D1*
X3833282D2*
X3852591D1*
X439396Y1071745D2*
X818782D1*
X1465314D2*
X2810032D1*
X3489806D2*
X3773489D1*
X3833282D2*
X3852591D1*
X439396Y1061877D2*
X828646D1*
X1455450D2*
X2819700D1*
X3480157D2*
X3773489D1*
X3833282D2*
X3852591D1*
X439396Y1052008D2*
X838509D1*
X1445587D2*
X2379114D1*
X2427657D2*
X2829349D1*
X3470489D2*
X3773489D1*
X3833282D2*
X3852591D1*
X439396Y1042139D2*
X848392D1*
X1435704D2*
X2370814D1*
X2435958D2*
X2838997D1*
X3460841D2*
X3773489D1*
X3833282D2*
X3852591D1*
X439396Y1032270D2*
X858489D1*
X1425607D2*
X2366927D1*
X2439845D2*
X2848665D1*
X3451192D2*
X3773489D1*
X3833282D2*
X3852591D1*
X439396Y1022402D2*
X876067D1*
X1408028D2*
X2366028D1*
X2440743D2*
X2858314D1*
X3441524D2*
X3773489D1*
X3833282D2*
X3852591D1*
X439396Y1012533D2*
X895423D1*
X1388673D2*
X2367845D1*
X2446837D2*
X2868958D1*
X3430899D2*
X3773489D1*
X3833282D2*
X3852591D1*
X439396Y1002664D2*
X914798D1*
X1369298D2*
X2372903D1*
X2456700D2*
X2887396D1*
X3412442D2*
X3773489D1*
X3833282D2*
X3852591D1*
X439396Y992795D2*
X934173D1*
X1349923D2*
X2383665D1*
X2466583D2*
X2906341D1*
X3393497D2*
X3773489D1*
X3833282D2*
X3852591D1*
X439396Y982927D2*
X953528D1*
X1330567D2*
X2412513D1*
X2476446D2*
X2925286D1*
X3374552D2*
X3773489D1*
X3833282D2*
X3852591D1*
X439396Y973058D2*
X972903D1*
X1311192D2*
X2422376D1*
X2486310D2*
X2944232D1*
X3355607D2*
X3773489D1*
X3833282D2*
X3852591D1*
X439396Y963189D2*
X993138D1*
X1290958D2*
X2432239D1*
X2496192D2*
X2963177D1*
X3336661D2*
X3773489D1*
X3833282D2*
X3852591D1*
X439396Y953320D2*
X1052454D1*
X1231642D2*
X2442103D1*
X2506056D2*
X2982142D1*
X3317716D2*
X3773489D1*
X3833282D2*
X3852591D1*
X439396Y943451D2*
X1114759D1*
X1169337D2*
X2451985D1*
X2515919D2*
X3002767D1*
X3297071D2*
X3773489D1*
X3833282D2*
X3852591D1*
X439396Y933583D2*
X2461849D1*
X2525782D2*
X3062454D1*
X3237384D2*
X3773489D1*
X3833282D2*
X3852591D1*
X439396Y923714D2*
X2471712D1*
X2535665D2*
X3123411D1*
X3176427D2*
X3773489D1*
X3833282D2*
X3852591D1*
X439396Y913845D2*
X2481575D1*
X2545528D2*
X3773489D1*
X3833282D2*
X3852591D1*
X439396Y903976D2*
X2491458D1*
X2555392D2*
X3773489D1*
X3833282D2*
X3852591D1*
X439396Y894108D2*
X2501321D1*
X2565274D2*
X3773489D1*
X3833282D2*
X3852591D1*
X439396Y884239D2*
X2511185D1*
X2575138D2*
X3773489D1*
X3833282D2*
X3852591D1*
X439396Y874370D2*
X2521067D1*
X2585001D2*
X3773489D1*
X3833282D2*
X3852591D1*
X439396Y864501D2*
X2530931D1*
X2594864D2*
X3773489D1*
X3833282D2*
X3852591D1*
X439396Y854633D2*
X2540794D1*
X2604747D2*
X3773489D1*
X3833282D2*
X3852591D1*
X439396Y844764D2*
X2550657D1*
X2614610D2*
X3773489D1*
X3833282D2*
X3852591D1*
X439396Y834895D2*
X2560540D1*
X2624474D2*
X3765462D1*
X3833282D2*
X3852591D1*
X439396Y825026D2*
X2279368D1*
X2412599D2*
X2570403D1*
X2634357D2*
X3755599D1*
X3832677D2*
X3852591D1*
X439396Y815157D2*
X1912982D1*
X1978985D2*
X2279368D1*
X2412599D2*
X2580267D1*
X2644220D2*
X3745735D1*
X3828595D2*
X3852591D1*
X439396Y805289D2*
X1900130D1*
X1991837D2*
X2279368D1*
X2412599D2*
X2590149D1*
X2654083D2*
X3735853D1*
X3819591D2*
X3852591D1*
X439396Y795420D2*
X1892024D1*
X1999942D2*
X2279368D1*
X2412599D2*
X2600013D1*
X2663946D2*
X3725989D1*
X3809728D2*
X3852591D1*
X439396Y785551D2*
X1886634D1*
X2005333D2*
X2279368D1*
X2412599D2*
X2609876D1*
X2673829D2*
X3716126D1*
X3799864D2*
X3852591D1*
X439396Y775682D2*
X1883274D1*
X2008692D2*
X2279368D1*
X2412599D2*
X2619739D1*
X2683692D2*
X3543079D1*
X3790001D2*
X3852591D1*
X439396Y765814D2*
X1881614D1*
X2010353D2*
X2279368D1*
X2412599D2*
X2629622D1*
X2693556D2*
X3529056D1*
X3780118D2*
X3852591D1*
X439396Y755945D2*
X1881497D1*
X2010470D2*
X2279368D1*
X2412599D2*
X2639485D1*
X2703419D2*
X3519192D1*
X3770255D2*
X3852591D1*
X439396Y746076D2*
X1882942D1*
X2009044D2*
X2279368D1*
X2412599D2*
X2649349D1*
X2713302D2*
X3509329D1*
X3760392D2*
X3852591D1*
X439396Y736207D2*
X1886028D1*
X2005939D2*
X2279368D1*
X2412599D2*
X2659232D1*
X2723165D2*
X3499446D1*
X3750528D2*
X3852591D1*
X439396Y726339D2*
X1891087D1*
X2000880D2*
X2279368D1*
X2412599D2*
X2669095D1*
X2733028D2*
X3489583D1*
X3740528D2*
X3852591D1*
X439396Y716470D2*
X1898724D1*
X1993243D2*
X2279368D1*
X2412599D2*
X2678958D1*
X2742911D2*
X3479720D1*
X3563458D2*
X3852591D1*
X439396Y706601D2*
X1910638D1*
X1981349D2*
X2279368D1*
X2412599D2*
X2688821D1*
X2752774D2*
X3469857D1*
X3553595D2*
X3852591D1*
X439396Y696732D2*
X1939896D1*
X1952071D2*
X2279368D1*
X2412599D2*
X2698704D1*
X2762638D2*
X3459974D1*
X3543712D2*
X3852591D1*
X439396Y686864D2*
X2708567D1*
X2772501D2*
X3450110D1*
X3533849D2*
X3852591D1*
X439396Y676995D2*
X2718431D1*
X2782384D2*
X3440247D1*
X3523985D2*
X3852591D1*
X439396Y667126D2*
X2728314D1*
X2790939D2*
X3430364D1*
X3514122D2*
X3852591D1*
X439396Y657257D2*
X2738177D1*
X2793536D2*
X3420501D1*
X3504239D2*
X3852591D1*
X439396Y647388D2*
X2747747D1*
X2793536D2*
X3410638D1*
X3494376D2*
X3852591D1*
X439396Y637520D2*
X1985501D1*
X2050567D2*
X2241399D1*
X2306466D2*
X2747747D1*
X2793536D2*
X3400774D1*
X3484513D2*
X3852591D1*
X439396Y627651D2*
X1974388D1*
X2061661D2*
X2230306D1*
X2317579D2*
X2650774D1*
X2690509D2*
X2719778D1*
X2821505D2*
X3390892D1*
X3474649D2*
X3852591D1*
X439396Y617782D2*
X1967571D1*
X2068497D2*
X2223470D1*
X2324396D2*
X2635442D1*
X2705841D2*
X2719778D1*
X2821505D2*
X3381028D1*
X3464767D2*
X3852591D1*
X439396Y607913D2*
X1963353D1*
X2072696D2*
X2219271D1*
X2328614D2*
X2627357D1*
X2713927D2*
X2719778D1*
X2821505D2*
X3371165D1*
X3454903D2*
X3852591D1*
X439396Y598045D2*
X1961185D1*
X2074884D2*
X2217083D1*
X2330782D2*
X2622610D1*
X2821505D2*
X3361282D1*
X3445040D2*
X3852591D1*
X439396Y588176D2*
X1960774D1*
X2075274D2*
X2216692D1*
X2331192D2*
X2620228D1*
X2821505D2*
X3351419D1*
X3435157D2*
X3852591D1*
X439396Y578307D2*
X1962142D1*
X2073927D2*
X2218040D1*
X2329825D2*
X2619876D1*
X2821505D2*
X3341556D1*
X3425294D2*
X3852591D1*
X439396Y568438D2*
X1965384D1*
X2070685D2*
X2221282D1*
X2326583D2*
X2621517D1*
X2821505D2*
X3331692D1*
X3415431D2*
X3852591D1*
X439396Y558570D2*
X1970911D1*
X2065157D2*
X2226810D1*
X2321075D2*
X2625364D1*
X2821505D2*
X3321810D1*
X3405567D2*
X3852591D1*
X439396Y548701D2*
X1979700D1*
X2056349D2*
X2235618D1*
X2312267D2*
X2632083D1*
X2821505D2*
X3311946D1*
X3395685D2*
X3852591D1*
X439396Y538832D2*
X1995501D1*
X2040567D2*
X2251419D1*
X2296466D2*
X2643821D1*
X2821505D2*
X3302083D1*
X3385821D2*
X3852591D1*
X439396Y528963D2*
X2666575D1*
X2750314D2*
X3292220D1*
X3375958D2*
X3852591D1*
X439396Y519094D2*
X2676439D1*
X2760177D2*
X3282337D1*
X3366075D2*
X3852591D1*
X444357Y509226D2*
X2686302D1*
X2770040D2*
X3272474D1*
X3356212D2*
X3847610D1*
X454220Y499357D2*
X2696165D1*
X2779923D2*
X3262610D1*
X3346349D2*
X3837747D1*
X464103Y489488D2*
X2706048D1*
X2789786D2*
X3252728D1*
X3336485D2*
X3827864D1*
X473966Y479619D2*
X2715911D1*
X2799649D2*
X3242864D1*
X3326603D2*
X3818001D1*
X483829Y469751D2*
X2725774D1*
X3316739D2*
X3808138D1*
X493692Y459882D2*
X2735657D1*
X3306876D2*
X3798274D1*
X503575Y450013D2*
X2745521D1*
X3296993D2*
X3788392D1*
X513439Y440144D2*
X2755384D1*
X3287130D2*
X3778528D1*
X3448483Y3208959D2*
X3448654Y3213352D1*
X3449169Y3217701D1*
X3450023Y3221996D1*
X3451211Y3226210D1*
X3452727Y3230319D1*
X3454560Y3234295D1*
X3456700Y3238116D1*
X3459133Y3241757D1*
X3461844Y3245196D1*
X3464817Y3248412D1*
X3468032Y3251384D1*
X3471471Y3254095D1*
X3475112Y3256528D1*
X3478933Y3258668D1*
X3482910Y3260501D1*
X3487018Y3262017D1*
X3491233Y3263206D1*
X3495528Y3264060D1*
X3499876Y3264575D1*
X3504252Y3264746D1*
X3508628Y3264575D1*
X3512976Y3264060D1*
X3517271Y3263206D1*
X3521486Y3262017D1*
X3525594Y3260501D1*
X3529571Y3258668D1*
X3533392Y3256528D1*
X3537033Y3254095D1*
X3540472Y3251384D1*
X3543687Y3248412D1*
X3546660Y3245196D1*
X3549371Y3241757D1*
X3551804Y3238116D1*
X3553943Y3234295D1*
X3555777Y3230319D1*
X3557292Y3226210D1*
X3558481Y3221996D1*
X3559335Y3217701D1*
X3559850Y3213352D1*
X3560022Y3203976D1*
X3560003Y3169606D1*
X3559850Y3165231D1*
X3559335Y3160882D1*
X3558481Y3156587D1*
X3557292Y3152372D1*
X3555777Y3148264D1*
X3553943Y3144287D1*
X3551804Y3140467D1*
X3549371Y3136825D1*
X3546660Y3133387D1*
X3543687Y3130171D1*
X3540472Y3127198D1*
X3537033Y3124487D1*
X3533392Y3122054D1*
X3529571Y3119915D1*
X3525594Y3118081D1*
X3521486Y3116566D1*
X3517271Y3115377D1*
X3512976Y3114523D1*
X3508628Y3114008D1*
X3504252Y3113836D1*
X3499876Y3114008D1*
X3495528Y3114523D1*
X3491233Y3115377D1*
X3487018Y3116566D1*
X3482910Y3118081D1*
X3478933Y3119915D1*
X3475112Y3122054D1*
X3471471Y3124487D1*
X3468032Y3127198D1*
X3464817Y3130171D1*
X3461844Y3133387D1*
X3459133Y3136825D1*
X3456700Y3140467D1*
X3454560Y3144287D1*
X3452727Y3148264D1*
X3451211Y3152372D1*
X3450023Y3156587D1*
X3449169Y3160882D1*
X3448654Y3165231D1*
X3448482Y3174606D1*
Y3208925D1*
X3602694Y3320546D2*
X3598457Y3320711D1*
X3594263Y3321207D1*
X3590121Y3322031D1*
X3586056Y3323177D1*
X3582094Y3324639D1*
X3578259Y3326407D1*
X3574574Y3328471D1*
X3571063Y3330817D1*
X3567746Y3333432D1*
X3564645Y3336298D1*
X3561778Y3339400D1*
X3559164Y3342716D1*
X3556817Y3346228D1*
X3554754Y3349912D1*
X3552986Y3353748D1*
X3551524Y3357710D1*
X3550377Y3361775D1*
X3549554Y3365917D1*
X3549057Y3370111D1*
X3548891Y3374331D1*
X3549057Y3378551D1*
X3549554Y3382745D1*
X3550377Y3386887D1*
X3551524Y3390951D1*
X3552986Y3394914D1*
X3554754Y3398749D1*
X3556817Y3402434D1*
X3559164Y3405945D1*
X3561778Y3409262D1*
X3564645Y3412363D1*
X3567746Y3415230D1*
X3571063Y3417844D1*
X3575135Y3420505D1*
X514195Y3420512D1*
X438391Y3344705D1*
X438386Y3181088D1*
X442622Y3185204D1*
X445483Y3187460D1*
X448512Y3189484D1*
X451691Y3191264D1*
X454999Y3192789D1*
X458418Y3194050D1*
X461924Y3195039D1*
X465497Y3195750D1*
X469115Y3196178D1*
X472756Y3196321D1*
X476396Y3196178D1*
X480014Y3195750D1*
X483588Y3195039D1*
X487094Y3194050D1*
X490512Y3192789D1*
X493821Y3191264D1*
X497000Y3189484D1*
X500029Y3187460D1*
X502890Y3185204D1*
X505566Y3182731D1*
X508039Y3180056D1*
X510294Y3177194D1*
X512318Y3174165D1*
X514099Y3170986D1*
X515624Y3167678D1*
X516885Y3164260D1*
X517874Y3160753D1*
X518585Y3157180D1*
X519013Y3153562D1*
X519156Y3149921D1*
X519013Y3146281D1*
X518382Y3141644D1*
X538982Y3121076D1*
X536823Y3123814D1*
X534885Y3126714D1*
X533181Y3129757D1*
X531721Y3132924D1*
X530514Y3136196D1*
X529567Y3139553D1*
X528887Y3142973D1*
X528477Y3146436D1*
X528340Y3149921D1*
X528477Y3153406D1*
X528887Y3156869D1*
X529567Y3160290D1*
X530514Y3163646D1*
X531721Y3166918D1*
X533181Y3170086D1*
X534885Y3173128D1*
X536823Y3176028D1*
X538982Y3178767D1*
X541349Y3181328D1*
X543910Y3183695D1*
X546649Y3185854D1*
X549549Y3187792D1*
X552592Y3189496D1*
X555759Y3190956D1*
X559031Y3192163D1*
X562387Y3193110D1*
X565808Y3193790D1*
X569271Y3194200D1*
X572756Y3194337D1*
X576241Y3194200D1*
X579704Y3193790D1*
X583125Y3193110D1*
X586481Y3192163D1*
X589753Y3190956D1*
X592920Y3189496D1*
X595963Y3187792D1*
X598863Y3185854D1*
X601602Y3183695D1*
X604163Y3181328D1*
X606530Y3178767D1*
X608689Y3176028D1*
X610627Y3173128D1*
X612331Y3170086D1*
X613791Y3166918D1*
X614998Y3163646D1*
X615944Y3160290D1*
X616625Y3156869D1*
X617035Y3153406D1*
X617172Y3149921D1*
X617035Y3146436D1*
X616625Y3142973D1*
X615944Y3139553D1*
X614998Y3136196D1*
X613791Y3132924D1*
X612331Y3129757D1*
X610627Y3126714D1*
X608689Y3123814D1*
X606530Y3121076D1*
X604163Y3118515D1*
X601602Y3116147D1*
X598863Y3113988D1*
X595963Y3112051D1*
X592920Y3110347D1*
X589753Y3108886D1*
X586481Y3107679D1*
X583125Y3106733D1*
X579704Y3106052D1*
X576241Y3105642D1*
X572756Y3105506D1*
X569271Y3105642D1*
X565808Y3106052D1*
X562387Y3106733D1*
X559031Y3107679D1*
X555759Y3108886D1*
X552592Y3110347D1*
X549549Y3112051D1*
X546649Y3113988D1*
X543320Y3116693D1*
X719590Y2940423D1*
X1495457Y2940334D1*
X1499549Y2939686D1*
X1503489Y2938406D1*
X1507180Y2936525D1*
X1510531Y2934091D1*
X1522660Y2922077D1*
X1924316Y2520421D1*
X3543366Y2520416D1*
X3542191Y2525907D1*
X3541713Y2529949D1*
X3541553Y2534016D1*
X3541713Y2538083D1*
X3542191Y2542124D1*
X3542985Y2546116D1*
X3544090Y2550033D1*
X3545498Y2553851D1*
X3547202Y2557547D1*
X3549191Y2561098D1*
X3551452Y2564482D1*
X3553972Y2567679D1*
X3556734Y2570667D1*
X3559723Y2573430D1*
X3562919Y2575950D1*
X3566303Y2578211D1*
X3569854Y2580199D1*
X3573550Y2581903D1*
X3577369Y2583312D1*
X3581286Y2584417D1*
X3585277Y2585211D1*
X3589319Y2585689D1*
X3593386Y2585849D1*
X3597453Y2585689D1*
X3601494Y2585211D1*
X3605486Y2584417D1*
X3609403Y2583312D1*
X3613221Y2581903D1*
X3616918Y2580199D1*
X3620469Y2578211D1*
X3623853Y2575950D1*
X3627049Y2573430D1*
X3630037Y2570667D1*
X3632800Y2567679D1*
X3635320Y2564482D1*
X3637581Y2561098D1*
X3639569Y2557547D1*
X3641273Y2553851D1*
X3642682Y2550033D1*
X3643787Y2546116D1*
X3644581Y2542124D1*
X3645059Y2538083D1*
X3645219Y2534016D1*
X3645059Y2529949D1*
X3644581Y2525907D1*
X3643787Y2521916D1*
X3642682Y2517998D1*
X3641273Y2514180D1*
X3639569Y2510484D1*
X3637581Y2506933D1*
X3635320Y2503549D1*
X3632800Y2500353D1*
X3630037Y2497364D1*
X3627049Y2494602D1*
X3623853Y2492082D1*
X3619345Y2489192D1*
X3618494Y2485858D1*
X3616908Y2482030D1*
X3614744Y2478498D1*
X3612053Y2475348D1*
X3608903Y2472658D1*
X3605371Y2470493D1*
X3601544Y2468908D1*
X3597516Y2467941D1*
X3593386Y2467616D1*
X1911315Y2467697D1*
X1907223Y2468345D1*
X1903283Y2469625D1*
X1899592Y2471506D1*
X1896240Y2473941D1*
X1884112Y2485955D1*
X1482456Y2887611D1*
X706590Y2887697D1*
X702498Y2888345D1*
X698559Y2889625D1*
X694867Y2891506D1*
X691516Y2893941D1*
X679387Y2905955D1*
X481080Y3104262D1*
X476396Y3103664D1*
X472756Y3103521D1*
X469115Y3103664D1*
X465497Y3104093D1*
X461924Y3104803D1*
X458418Y3105792D1*
X454999Y3107053D1*
X451691Y3108579D1*
X448512Y3110359D1*
X445483Y3112383D1*
X442622Y3114638D1*
X438391Y3118794D1*
X438386Y2880463D1*
X439960Y2886901D1*
X441170Y2890180D1*
X442633Y2893353D1*
X444340Y2896401D1*
X446281Y2899307D1*
X448444Y2902051D1*
X450816Y2904617D1*
X453382Y2906989D1*
X456126Y2909152D1*
X459032Y2911093D1*
X462080Y2912801D1*
X465254Y2914263D1*
X468532Y2915473D1*
X471895Y2916421D1*
X475322Y2917103D1*
X478792Y2917514D1*
X482283Y2917651D1*
X485775Y2917514D1*
X489245Y2917103D1*
X492672Y2916421D1*
X496035Y2915473D1*
X499313Y2914263D1*
X502487Y2912801D1*
X505535Y2911093D1*
X508441Y2909152D1*
X511185Y2906989D1*
X513751Y2904617D1*
X516123Y2902051D1*
X518286Y2899307D1*
X520227Y2896401D1*
X521934Y2893353D1*
X523397Y2890180D1*
X524607Y2886901D1*
X525555Y2883538D1*
X526237Y2880111D1*
X526648Y2876641D1*
X526785Y2873150D1*
X526648Y2869658D1*
X526237Y2866188D1*
X525555Y2862761D1*
X524607Y2859398D1*
X523397Y2856120D1*
X521934Y2852946D1*
X520227Y2849898D1*
X518286Y2846992D1*
X516123Y2844248D1*
X513751Y2841682D1*
X511185Y2839311D1*
X508441Y2837147D1*
X505535Y2835206D1*
X502487Y2833499D1*
X499313Y2832036D1*
X496035Y2830826D1*
X492672Y2829878D1*
X489245Y2829196D1*
X485775Y2828785D1*
X482283Y2828648D1*
X478792Y2828785D1*
X475322Y2829196D1*
X471895Y2829878D1*
X468532Y2830826D1*
X465254Y2832036D1*
X462080Y2833499D1*
X459032Y2835206D1*
X456126Y2837147D1*
X453382Y2839311D1*
X450816Y2841682D1*
X448444Y2844248D1*
X446281Y2846992D1*
X444340Y2849898D1*
X442633Y2852946D1*
X441170Y2856120D1*
X439960Y2859398D1*
X439012Y2862761D1*
X438386Y2865907D1*
Y2565502D1*
X439960Y2571941D1*
X441170Y2575219D1*
X442633Y2578392D1*
X444340Y2581441D1*
X446281Y2584346D1*
X448444Y2587090D1*
X450816Y2589656D1*
X453382Y2592028D1*
X456126Y2594191D1*
X459032Y2596133D1*
X462080Y2597840D1*
X465254Y2599303D1*
X468532Y2600512D1*
X471895Y2601461D1*
X475322Y2602142D1*
X478792Y2602553D1*
X482283Y2602690D1*
X485775Y2602553D1*
X489245Y2602142D1*
X492672Y2601461D1*
X496035Y2600512D1*
X499313Y2599303D1*
X502487Y2597840D1*
X505535Y2596133D1*
X508441Y2594191D1*
X511185Y2592028D1*
X513751Y2589656D1*
X516123Y2587090D1*
X518286Y2584346D1*
X520227Y2581441D1*
X521934Y2578392D1*
X523397Y2575219D1*
X524607Y2571941D1*
X525555Y2568578D1*
X526237Y2565151D1*
X526648Y2561681D1*
X526785Y2558189D1*
X526648Y2554697D1*
X526237Y2551227D1*
X525555Y2547800D1*
X524607Y2544437D1*
X523397Y2541159D1*
X521934Y2537986D1*
X520227Y2534937D1*
X518286Y2532032D1*
X516123Y2529288D1*
X513751Y2526722D1*
X511185Y2524350D1*
X508441Y2522187D1*
X505535Y2520245D1*
X502487Y2518538D1*
X499313Y2517075D1*
X496035Y2515866D1*
X492672Y2514917D1*
X489245Y2514236D1*
X485775Y2513825D1*
X482283Y2513688D1*
X478792Y2513825D1*
X475322Y2514236D1*
X471895Y2514917D1*
X468532Y2515866D1*
X465254Y2517075D1*
X462080Y2518538D1*
X459032Y2520245D1*
X456126Y2522187D1*
X453382Y2524350D1*
X450816Y2526722D1*
X448444Y2529288D1*
X446281Y2532032D1*
X444340Y2534937D1*
X442633Y2537986D1*
X441170Y2541159D1*
X439960Y2544437D1*
X439012Y2547800D1*
X438386Y2550946D1*
Y2278041D1*
X441349Y2281328D1*
X443910Y2283695D1*
X446649Y2285854D1*
X449549Y2287792D1*
X452592Y2289496D1*
X455759Y2290956D1*
X459031Y2292163D1*
X462387Y2293110D1*
X465808Y2293790D1*
X469271Y2294200D1*
X472756Y2294337D1*
X476241Y2294200D1*
X479704Y2293790D1*
X483125Y2293110D1*
X486481Y2292163D1*
X489753Y2290956D1*
X492920Y2289496D1*
X495963Y2287792D1*
X498863Y2285854D1*
X501602Y2283695D1*
X504163Y2281328D1*
X506530Y2278767D1*
X508689Y2276028D1*
X510627Y2273128D1*
X512331Y2270086D1*
X513791Y2266918D1*
X514998Y2263646D1*
X515944Y2260290D1*
X516625Y2256869D1*
X517035Y2253406D1*
X517172Y2249921D1*
X517035Y2246436D1*
X516625Y2242973D1*
X515944Y2239553D1*
X514998Y2236196D1*
X513791Y2232924D1*
X512331Y2229757D1*
X510627Y2226714D1*
X508689Y2223814D1*
X506530Y2221076D1*
X504163Y2218515D1*
X501602Y2216147D1*
X498863Y2213988D1*
X495963Y2212051D1*
X492920Y2210347D1*
X489753Y2208886D1*
X486481Y2207679D1*
X483125Y2206733D1*
X479704Y2206052D1*
X476241Y2205642D1*
X472756Y2205506D1*
X469271Y2205642D1*
X465808Y2206052D1*
X462387Y2206733D1*
X459031Y2207679D1*
X455759Y2208886D1*
X452592Y2210347D1*
X449549Y2212051D1*
X446649Y2213988D1*
X443910Y2216147D1*
X441349Y2218515D1*
X438386Y2221772D1*
Y514213D1*
X514192Y438391D1*
X2758161Y438386D1*
X2664523Y532008D1*
X2659000Y533009D1*
X2655231Y534072D1*
X2651558Y535427D1*
X2648002Y537066D1*
X2644586Y538980D1*
X2641331Y541155D1*
X2638256Y543579D1*
X2635381Y546236D1*
X2632723Y549112D1*
X2630299Y552186D1*
X2628124Y555442D1*
X2626211Y558858D1*
X2624572Y562414D1*
X2623216Y566087D1*
X2622154Y569855D1*
X2621390Y573696D1*
X2620930Y577584D1*
X2620776Y581496D1*
X2620930Y585408D1*
X2621390Y589297D1*
X2622154Y593137D1*
X2623216Y596905D1*
X2624572Y600578D1*
X2626211Y604134D1*
X2628124Y607550D1*
X2630299Y610806D1*
X2632723Y613881D1*
X2635381Y616756D1*
X2638256Y619413D1*
X2641331Y621837D1*
X2644586Y624013D1*
X2648002Y625926D1*
X2651558Y627565D1*
X2655231Y628920D1*
X2659000Y629983D1*
X2662840Y630747D1*
X2666728Y631207D1*
X2670640Y631361D1*
X2674553Y631207D1*
X2678441Y630747D1*
X2682281Y629983D1*
X2686049Y628920D1*
X2689723Y627565D1*
X2693278Y625926D1*
X2696695Y624013D1*
X2699950Y621837D1*
X2703025Y619413D1*
X2705900Y616756D1*
X2708558Y613881D1*
X2710982Y610806D1*
X2713157Y607550D1*
X2715070Y604134D1*
X2716709Y600578D1*
X2718064Y596905D1*
X2719127Y593137D1*
X2719891Y589297D1*
X2720351Y585408D1*
X2720505Y581496D1*
X2720351Y577584D1*
X2719891Y573696D1*
X2719127Y569855D1*
X2718064Y566087D1*
X2716447Y561844D1*
X2720783Y557490D1*
X2720776Y631361D1*
X2748725D1*
X2748740Y647687D1*
X2408465Y987965D1*
X2403386Y987616D1*
X2397692Y988064D1*
X2392138Y989397D1*
X2386861Y991583D1*
X2381990Y994568D1*
X2377647Y998277D1*
X2373938Y1002620D1*
X2370953Y1007490D1*
X2368767Y1012768D1*
X2367434Y1018322D1*
X2366986Y1024016D1*
X2367434Y1029710D1*
X2368767Y1035264D1*
X2370953Y1040541D1*
X2373938Y1045411D1*
X2377647Y1049754D1*
X2381990Y1053464D1*
X2386861Y1056448D1*
X2392138Y1058634D1*
X2397692Y1059968D1*
X2403386Y1060416D1*
X2409080Y1059968D1*
X2414634Y1058634D1*
X2419911Y1056448D1*
X2424781Y1053464D1*
X2429125Y1049754D1*
X2432834Y1045411D1*
X2435818Y1040541D1*
X2438004Y1035264D1*
X2439338Y1029710D1*
X2439786Y1024016D1*
X2439412Y1018954D1*
X2787293Y670984D1*
X2789313Y668204D1*
X2790873Y665142D1*
X2791935Y661874D1*
X2792473Y658479D1*
X2792541Y636761D1*
Y631351D1*
X2820505Y631361D1*
Y531631D1*
X2746657D1*
X2805359Y472913D1*
X3237155Y472916D1*
X3534695Y770322D1*
X3538364Y772988D1*
X3542405Y775047D1*
X3546718Y776448D1*
X3551197Y777158D1*
X3568465Y777247D1*
X3708836D1*
X3774474Y842904D1*
X3774486Y2112058D1*
X3721410Y2165247D1*
X3718745Y2168916D1*
X3716686Y2172956D1*
X3715284Y2177269D1*
X3714575Y2181748D1*
X3714486Y2194152D1*
X3693521Y2194151D1*
Y2293880D1*
X3793251D1*
Y2194151D1*
X3774129D1*
X3825362Y2142785D1*
X3828027Y2139116D1*
X3830086Y2135075D1*
X3831487Y2130762D1*
X3832197Y2126283D1*
X3832286Y2109016D1*
X3832197Y828677D1*
X3831487Y824198D1*
X3830086Y819885D1*
X3828027Y815845D1*
X3825362Y812176D1*
X3813215Y799903D1*
X3739557Y726371D1*
X3735888Y723705D1*
X3731847Y721646D1*
X3727534Y720245D1*
X3723055Y719535D1*
X3705787Y719446D1*
X3565416D1*
X3284387Y438398D1*
X3777773Y438386D1*
X3853578Y514192D1*
X3853583Y3344685D1*
X3777776Y3420507D1*
X3669628Y3420512D1*
X3673662Y3417844D1*
X3676978Y3415230D1*
X3680080Y3412363D1*
X3682946Y3409262D1*
X3685561Y3405945D1*
X3687907Y3402434D1*
X3689971Y3398749D1*
X3691739Y3394914D1*
X3693201Y3390951D1*
X3694347Y3386887D1*
X3695171Y3382745D1*
X3695667Y3378551D1*
X3695833Y3374331D1*
X3695667Y3370111D1*
X3695171Y3365917D1*
X3694347Y3361775D1*
X3693201Y3357710D1*
X3691739Y3353748D1*
X3689971Y3349912D1*
X3687907Y3346228D1*
X3685561Y3342716D1*
X3682946Y3339400D1*
X3680080Y3336298D1*
X3676978Y3333432D1*
X3673662Y3330817D1*
X3670150Y3328471D1*
X3666465Y3326407D1*
X3662630Y3324639D1*
X3658668Y3323177D1*
X3654603Y3322031D1*
X3650461Y3321207D1*
X3646267Y3320711D1*
X3637047Y3320545D1*
X3602677Y3320564D1*
X3693097Y2240103D2*
X3692636Y2236215D1*
X3691873Y2232375D1*
X3690810Y2228607D1*
X3689455Y2224933D1*
X3687815Y2221378D1*
X3685902Y2217962D1*
X3683727Y2214706D1*
X3681303Y2211631D1*
X3678645Y2208756D1*
X3675770Y2206098D1*
X3672695Y2203674D1*
X3669440Y2201499D1*
X3666024Y2199586D1*
X3662468Y2197947D1*
X3658795Y2196592D1*
X3655026Y2195529D1*
X3651186Y2194765D1*
X3647298Y2194305D1*
X3643386Y2194151D1*
X3639473Y2194305D1*
X3635585Y2194765D1*
X3631745Y2195529D1*
X3627977Y2196592D1*
X3624303Y2197947D1*
X3620748Y2199586D1*
X3617332Y2201499D1*
X3614076Y2203674D1*
X3611001Y2206098D1*
X3608126Y2208756D1*
X3605469Y2211631D1*
X3603045Y2214706D1*
X3600869Y2217962D1*
X3598956Y2221378D1*
X3597317Y2224933D1*
X3595962Y2228607D1*
X3594899Y2232375D1*
X3594135Y2236215D1*
X3593675Y2240103D1*
X3593521Y2244016D1*
X3593675Y2247928D1*
X3594135Y2251816D1*
X3594899Y2255656D1*
X3595962Y2259425D1*
X3597317Y2263098D1*
X3598956Y2266654D1*
X3600869Y2270070D1*
X3603045Y2273325D1*
X3605469Y2276400D1*
X3608126Y2279275D1*
X3611001Y2281933D1*
X3614076Y2284357D1*
X3617332Y2286532D1*
X3620748Y2288445D1*
X3624303Y2290085D1*
X3627977Y2291440D1*
X3631745Y2292503D1*
X3635585Y2293266D1*
X3639473Y2293727D1*
X3643386Y2293880D1*
X3647298Y2293727D1*
X3651186Y2293266D1*
X3655026Y2292503D1*
X3658795Y2291440D1*
X3662468Y2290085D1*
X3666024Y2288445D1*
X3669440Y2286532D1*
X3672695Y2284357D1*
X3675770Y2281933D1*
X3678645Y2279275D1*
X3681303Y2276400D1*
X3683727Y2273325D1*
X3685902Y2270070D1*
X3687815Y2266654D1*
X3689455Y2263098D1*
X3690810Y2259425D1*
X3691873Y2255656D1*
X3692636Y2251816D1*
X3693097Y2247928D1*
X3693250Y2244016D1*
X3693097Y2240103D1*
X2122458Y2099943D2*
X2209314D1*
Y2008088D1*
X2117458D1*
Y2099943D1*
X2122458D1*
X2209172Y1950412D2*
X2208748Y1946831D1*
X2208044Y1943294D1*
X2207066Y1939823D1*
X2205817Y1936440D1*
X2204308Y1933165D1*
X2202546Y1930019D1*
X2200542Y1927020D1*
X2198309Y1924188D1*
X2195862Y1921540D1*
X2193213Y1919092D1*
X2190381Y1916860D1*
X2187383Y1914856D1*
X2184237Y1913094D1*
X2180962Y1911584D1*
X2177578Y1910336D1*
X2174107Y1909357D1*
X2170570Y1908654D1*
X2166989Y1908230D1*
X2163386Y1908088D1*
X2159782Y1908230D1*
X2156201Y1908654D1*
X2152664Y1909357D1*
X2149193Y1910336D1*
X2145810Y1911584D1*
X2142535Y1913094D1*
X2139389Y1914856D1*
X2136390Y1916860D1*
X2133558Y1919092D1*
X2130910Y1921540D1*
X2128462Y1924188D1*
X2126230Y1927020D1*
X2124226Y1930019D1*
X2122464Y1933165D1*
X2120954Y1936440D1*
X2119706Y1939823D1*
X2118727Y1943294D1*
X2118024Y1946831D1*
X2117600Y1950412D1*
X2117458Y1954016D1*
X2117600Y1957619D1*
X2118024Y1961200D1*
X2118727Y1964737D1*
X2119706Y1968208D1*
X2120954Y1971591D1*
X2122464Y1974866D1*
X2124226Y1978013D1*
X2126230Y1981011D1*
X2128462Y1983843D1*
X2130910Y1986491D1*
X2133558Y1988939D1*
X2136390Y1991172D1*
X2139389Y1993175D1*
X2142535Y1994938D1*
X2145810Y1996447D1*
X2149193Y1997695D1*
X2152664Y1998674D1*
X2156201Y1999378D1*
X2159782Y1999802D1*
X2163386Y1999943D1*
X2166989Y1999802D1*
X2170570Y1999378D1*
X2174107Y1998674D1*
X2177578Y1997695D1*
X2180962Y1996447D1*
X2184237Y1994938D1*
X2187383Y1993175D1*
X2190381Y1991172D1*
X2193213Y1988939D1*
X2195862Y1986491D1*
X2198309Y1983843D1*
X2200542Y1981011D1*
X2202546Y1978013D1*
X2204308Y1974866D1*
X2205817Y1971591D1*
X2207066Y1968208D1*
X2208044Y1964737D1*
X2208748Y1961200D1*
X2209172Y1957619D1*
X2209313Y1954016D1*
X2209172Y1950412D1*
Y1850412D2*
X2208748Y1846831D1*
X2208044Y1843294D1*
X2207066Y1839823D1*
X2205817Y1836440D1*
X2204308Y1833165D1*
X2202546Y1830019D1*
X2200542Y1827020D1*
X2198309Y1824188D1*
X2195862Y1821540D1*
X2193213Y1819092D1*
X2190381Y1816860D1*
X2187383Y1814856D1*
X2184237Y1813094D1*
X2180962Y1811584D1*
X2177578Y1810336D1*
X2174107Y1809357D1*
X2170570Y1808654D1*
X2166989Y1808230D1*
X2163386Y1808088D1*
X2159782Y1808230D1*
X2156201Y1808654D1*
X2152664Y1809357D1*
X2149193Y1810336D1*
X2145810Y1811584D1*
X2142535Y1813094D1*
X2139389Y1814856D1*
X2136390Y1816860D1*
X2133558Y1819092D1*
X2130910Y1821540D1*
X2128462Y1824188D1*
X2126230Y1827020D1*
X2124226Y1830019D1*
X2122464Y1833165D1*
X2120954Y1836440D1*
X2119706Y1839823D1*
X2118727Y1843294D1*
X2118024Y1846831D1*
X2117600Y1850412D1*
X2117458Y1854016D1*
X2117600Y1857619D1*
X2118024Y1861200D1*
X2118727Y1864737D1*
X2119706Y1868208D1*
X2120954Y1871591D1*
X2122464Y1874866D1*
X2124226Y1878013D1*
X2126230Y1881011D1*
X2128462Y1883843D1*
X2130910Y1886491D1*
X2133558Y1888939D1*
X2136390Y1891172D1*
X2139389Y1893175D1*
X2142535Y1894938D1*
X2145810Y1896447D1*
X2149193Y1897695D1*
X2152664Y1898674D1*
X2156201Y1899378D1*
X2159782Y1899802D1*
X2163386Y1899943D1*
X2166989Y1899802D1*
X2170570Y1899378D1*
X2174107Y1898674D1*
X2177578Y1897695D1*
X2180962Y1896447D1*
X2184237Y1894938D1*
X2187383Y1893175D1*
X2190381Y1891172D1*
X2193213Y1888939D1*
X2195862Y1886491D1*
X2198309Y1883843D1*
X2200542Y1881011D1*
X2202546Y1878013D1*
X2204308Y1874866D1*
X2205817Y1871591D1*
X2207066Y1868208D1*
X2208044Y1864737D1*
X2208748Y1861200D1*
X2209172Y1857619D1*
X2209313Y1854016D1*
X2209172Y1850412D1*
Y1750412D2*
X2208748Y1746831D1*
X2208044Y1743294D1*
X2207066Y1739823D1*
X2205817Y1736440D1*
X2204308Y1733165D1*
X2202546Y1730019D1*
X2200542Y1727020D1*
X2198309Y1724188D1*
X2195862Y1721540D1*
X2193213Y1719092D1*
X2190381Y1716860D1*
X2187383Y1714856D1*
X2184237Y1713094D1*
X2180962Y1711584D1*
X2177578Y1710336D1*
X2174107Y1709357D1*
X2170570Y1708654D1*
X2166989Y1708230D1*
X2163386Y1708088D1*
X2159782Y1708230D1*
X2156201Y1708654D1*
X2152664Y1709357D1*
X2149193Y1710336D1*
X2145810Y1711584D1*
X2142535Y1713094D1*
X2139389Y1714856D1*
X2136390Y1716860D1*
X2133558Y1719092D1*
X2130910Y1721540D1*
X2128462Y1724188D1*
X2126230Y1727020D1*
X2124226Y1730019D1*
X2122464Y1733165D1*
X2120954Y1736440D1*
X2119706Y1739823D1*
X2118727Y1743294D1*
X2118024Y1746831D1*
X2117600Y1750412D1*
X2117458Y1754016D1*
X2117600Y1757619D1*
X2118024Y1761200D1*
X2118727Y1764737D1*
X2119706Y1768208D1*
X2120954Y1771591D1*
X2122464Y1774866D1*
X2124226Y1778013D1*
X2126230Y1781011D1*
X2128462Y1783843D1*
X2130910Y1786491D1*
X2133558Y1788939D1*
X2136390Y1791172D1*
X2139389Y1793175D1*
X2142535Y1794938D1*
X2145810Y1796447D1*
X2149193Y1797695D1*
X2152664Y1798674D1*
X2156201Y1799378D1*
X2159782Y1799802D1*
X2163386Y1799943D1*
X2166989Y1799802D1*
X2170570Y1799378D1*
X2174107Y1798674D1*
X2177578Y1797695D1*
X2180962Y1796447D1*
X2184237Y1794938D1*
X2187383Y1793175D1*
X2190381Y1791172D1*
X2193213Y1788939D1*
X2195862Y1786491D1*
X2198309Y1783843D1*
X2200542Y1781011D1*
X2202546Y1778013D1*
X2204308Y1774866D1*
X2205817Y1771591D1*
X2207066Y1768208D1*
X2208044Y1764737D1*
X2208748Y1761200D1*
X2209172Y1757619D1*
X2209313Y1754016D1*
X2209172Y1750412D1*
X2124742Y1281675D2*
X2211597D1*
Y1262164D1*
X2268111Y1262148D1*
X2315313Y1309341D1*
X2203262Y1309348D1*
X2200593Y1305920D1*
X2198145Y1303272D1*
X2195497Y1300824D1*
X2192665Y1298592D1*
X2189666Y1296588D1*
X2186520Y1294826D1*
X2183245Y1293317D1*
X2179862Y1292068D1*
X2176391Y1291089D1*
X2172854Y1290386D1*
X2169273Y1289962D1*
X2165669Y1289820D1*
X2162066Y1289962D1*
X2158485Y1290386D1*
X2154948Y1291089D1*
X2151477Y1292068D1*
X2148094Y1293317D1*
X2144819Y1294826D1*
X2141672Y1296588D1*
X2138674Y1298592D1*
X2135842Y1300824D1*
X2133194Y1303272D1*
X2130746Y1305920D1*
X2128513Y1308752D1*
X2126510Y1311751D1*
X2124748Y1314897D1*
X2123238Y1318172D1*
X2121990Y1321556D1*
X2121011Y1325026D1*
X2120307Y1328563D1*
X2119883Y1332145D1*
X2119742Y1335748D1*
X2119883Y1339351D1*
X2120307Y1342933D1*
X2121011Y1346470D1*
X2121990Y1349940D1*
X2123238Y1353324D1*
X2124748Y1356599D1*
X2126510Y1359745D1*
X2128513Y1362744D1*
X2130746Y1365576D1*
X2133194Y1368224D1*
X2135842Y1370672D1*
X2138674Y1372904D1*
X2141672Y1374908D1*
X2144819Y1376670D1*
X2148094Y1378180D1*
X2151477Y1379428D1*
X2154948Y1380407D1*
X2158485Y1381110D1*
X2162066Y1381534D1*
X2165669Y1381676D1*
X2169273Y1381534D1*
X2172854Y1381110D1*
X2176391Y1380407D1*
X2179862Y1379428D1*
X2183245Y1378180D1*
X2186520Y1376670D1*
X2189666Y1374908D1*
X2192665Y1372904D1*
X2195497Y1370672D1*
X2198145Y1368224D1*
X2200593Y1365576D1*
X2203225Y1362146D1*
X2309048Y1362148D1*
X2378161Y1431244D1*
X2374434Y1430689D1*
X2357362Y1430608D1*
X2211327D1*
X2210328Y1425026D1*
X2209349Y1421556D1*
X2208101Y1418172D1*
X2206591Y1414897D1*
X2204829Y1411751D1*
X2202825Y1408752D1*
X2200593Y1405920D1*
X2198145Y1403272D1*
X2195497Y1400824D1*
X2192665Y1398592D1*
X2189666Y1396588D1*
X2186520Y1394826D1*
X2183245Y1393317D1*
X2179862Y1392068D1*
X2176391Y1391089D1*
X2172854Y1390386D1*
X2169273Y1389962D1*
X2165669Y1389820D1*
X2162066Y1389962D1*
X2158485Y1390386D1*
X2154948Y1391089D1*
X2151477Y1392068D1*
X2148094Y1393317D1*
X2144819Y1394826D1*
X2141672Y1396588D1*
X2138674Y1398592D1*
X2135842Y1400824D1*
X2133194Y1403272D1*
X2130746Y1405920D1*
X2128513Y1408752D1*
X2126510Y1411751D1*
X2124748Y1414897D1*
X2123238Y1418172D1*
X2121990Y1421556D1*
X2121011Y1425026D1*
X2120307Y1428563D1*
X2119883Y1432145D1*
X2119742Y1435748D1*
X2119883Y1439351D1*
X2120307Y1442933D1*
X2121011Y1446470D1*
X2121990Y1449940D1*
X2123238Y1453324D1*
X2124748Y1456599D1*
X2126510Y1459745D1*
X2128513Y1462744D1*
X2130746Y1465576D1*
X2133194Y1468224D1*
X2135842Y1470672D1*
X2138674Y1472904D1*
X2141672Y1474908D1*
X2144819Y1476670D1*
X2148094Y1478180D1*
X2151477Y1479428D1*
X2154948Y1480407D1*
X2158485Y1481110D1*
X2162066Y1481534D1*
X2165669Y1481676D1*
X2169273Y1481534D1*
X2175189Y1480646D1*
X2178771Y1482116D1*
X2182799Y1483083D1*
X2186937Y1483408D1*
X2361441D1*
X2851998Y1973979D1*
X2851986Y2156449D1*
X2848576Y2159113D1*
X2845930Y2161560D1*
X2843483Y2164206D1*
X2841252Y2167036D1*
X2839250Y2170033D1*
X2837489Y2173178D1*
X2835980Y2176451D1*
X2834732Y2179832D1*
X2833754Y2183301D1*
X2833051Y2186835D1*
X2832627Y2190414D1*
X2832486Y2194016D1*
X2832627Y2197617D1*
X2833051Y2201196D1*
X2833754Y2204731D1*
X2834732Y2208200D1*
X2835980Y2211581D1*
X2837489Y2214854D1*
X2839250Y2217998D1*
X2841252Y2220995D1*
X2843483Y2223825D1*
X2845930Y2226472D1*
X2848576Y2228918D1*
X2851406Y2231150D1*
X2854403Y2233152D1*
X2857548Y2234913D1*
X2860821Y2236422D1*
X2864202Y2237669D1*
X2867671Y2238648D1*
X2871205Y2239351D1*
X2874785Y2239774D1*
X2878386Y2239916D1*
X2881987Y2239774D1*
X2885566Y2239351D1*
X2889101Y2238648D1*
X2892570Y2237669D1*
X2895951Y2236422D1*
X2899224Y2234913D1*
X2902369Y2233152D1*
X2905365Y2231150D1*
X2908195Y2228918D1*
X2910842Y2226472D1*
X2913288Y2223825D1*
X2915520Y2220995D1*
X2917522Y2217998D1*
X2919283Y2214854D1*
X2920792Y2211581D1*
X2922039Y2208200D1*
X2923018Y2204731D1*
X2923721Y2201196D1*
X2924144Y2197617D1*
X2924286Y2194016D1*
X2924144Y2190414D1*
X2923721Y2186835D1*
X2923018Y2183301D1*
X2922039Y2179832D1*
X2920792Y2176451D1*
X2919283Y2173178D1*
X2917522Y2170033D1*
X2915520Y2167036D1*
X2913288Y2164206D1*
X2910842Y2161560D1*
X2908195Y2159113D1*
X2904792Y2156499D1*
X2904704Y1960960D1*
X2904459Y1958894D1*
X2905909Y1958992D1*
X2986991Y2040074D1*
X2986986Y2148099D1*
X2985566Y2148681D1*
X2981987Y2148257D1*
X2978386Y2148116D1*
X2974785Y2148257D1*
X2971205Y2148681D1*
X2967671Y2149384D1*
X2964202Y2150362D1*
X2960821Y2151610D1*
X2957548Y2153119D1*
X2954403Y2154880D1*
X2951406Y2156882D1*
X2948576Y2159113D1*
X2945930Y2161560D1*
X2943483Y2164206D1*
X2941252Y2167036D1*
X2939250Y2170033D1*
X2937489Y2173178D1*
X2935980Y2176451D1*
X2934732Y2179832D1*
X2933754Y2183301D1*
X2933051Y2186835D1*
X2932627Y2190414D1*
X2932486Y2194016D1*
X2932627Y2197617D1*
X2933051Y2201196D1*
X2933754Y2204731D1*
X2934732Y2208200D1*
X2935980Y2211581D1*
X2937489Y2214854D1*
X2939250Y2217998D1*
X2941252Y2220995D1*
X2943483Y2223825D1*
X2945930Y2226472D1*
X2948576Y2228918D1*
X2951406Y2231150D1*
X2954403Y2233152D1*
X2957548Y2234913D1*
X2960821Y2236422D1*
X2964202Y2237669D1*
X2967671Y2238648D1*
X2971205Y2239351D1*
X2974785Y2239774D1*
X2978386Y2239916D1*
X2981987Y2239774D1*
X2985566Y2239351D1*
X2989101Y2238648D1*
X2992570Y2237669D1*
X2995951Y2236422D1*
X2999224Y2234913D1*
X3002369Y2233152D1*
X3005365Y2231150D1*
X3008195Y2228918D1*
X3010842Y2226472D1*
X3013288Y2223825D1*
X3015520Y2220995D1*
X3017522Y2217998D1*
X3019283Y2214854D1*
X3020792Y2211581D1*
X3022039Y2208200D1*
X3023018Y2204731D1*
X3023721Y2201196D1*
X3024144Y2197617D1*
X3024286Y2194016D1*
X3024144Y2190414D1*
X3023586Y2186159D1*
X3033461Y2176161D1*
X3035896Y2172810D1*
X3037776Y2169119D1*
X3039056Y2165179D1*
X3039704Y2161087D1*
X3039786Y2144016D1*
Y2033806D1*
X3051974Y2046002D1*
X3051986Y2156465D1*
X3048576Y2159113D1*
X3045930Y2161560D1*
X3043483Y2164206D1*
X3041252Y2167036D1*
X3039250Y2170033D1*
X3037489Y2173178D1*
X3035980Y2176451D1*
X3034732Y2179832D1*
X3033754Y2183301D1*
X3033051Y2186835D1*
X3032627Y2190414D1*
X3032486Y2194016D1*
X3032627Y2197617D1*
X3033051Y2201196D1*
X3033754Y2204731D1*
X3034732Y2208200D1*
X3035980Y2211581D1*
X3037489Y2214854D1*
X3039250Y2217998D1*
X3041252Y2220995D1*
X3043483Y2223825D1*
X3045930Y2226472D1*
X3048576Y2228918D1*
X3051406Y2231150D1*
X3054403Y2233152D1*
X3057548Y2234913D1*
X3060821Y2236422D1*
X3064202Y2237669D1*
X3067671Y2238648D1*
X3071205Y2239351D1*
X3074785Y2239774D1*
X3078386Y2239916D1*
X3081987Y2239774D1*
X3085566Y2239351D1*
X3089101Y2238648D1*
X3092570Y2237669D1*
X3095951Y2236422D1*
X3099224Y2234913D1*
X3102369Y2233152D1*
X3105365Y2231150D1*
X3108195Y2228918D1*
X3110842Y2226472D1*
X3113288Y2223825D1*
X3115520Y2220995D1*
X3117522Y2217998D1*
X3119283Y2214854D1*
X3120792Y2211581D1*
X3122039Y2208200D1*
X3123018Y2204731D1*
X3123721Y2201196D1*
X3124144Y2197617D1*
X3124286Y2194016D1*
X3124144Y2190414D1*
X3123721Y2186835D1*
X3123018Y2183301D1*
X3122039Y2179832D1*
X3120792Y2176451D1*
X3119283Y2173178D1*
X3117522Y2170033D1*
X3115520Y2167036D1*
X3113288Y2164206D1*
X3110842Y2161560D1*
X3108195Y2159113D1*
X3104792Y2156499D1*
X3104704Y2033007D1*
X3104056Y2028916D1*
X3102776Y2024976D1*
X3100896Y2021285D1*
X3098461Y2017933D1*
X3086447Y2005805D1*
X2899188Y1818546D1*
X2997057Y1869522D1*
X3002124Y1871641D1*
X3007460Y1872942D1*
X3144565Y1895139D1*
X3150041Y1895551D1*
X3155515Y1895101D1*
X3295264Y1872350D1*
X3300472Y1870606D1*
X3311826Y1864814D1*
X3428874Y1803722D1*
X3433281Y1800445D1*
X3442271Y1791410D1*
X3535060Y1696413D1*
X3538249Y1691942D1*
X3544031Y1680582D1*
X3603538Y1560990D1*
X3605217Y1555761D1*
X3607275Y1543181D1*
X3627717Y1410659D1*
X3627736Y1405166D1*
X3625891Y1392554D1*
X3605261Y1260016D1*
X3603610Y1254778D1*
X3598020Y1243323D1*
X3538287Y1123714D1*
X3535108Y1119235D1*
X3526272Y1110048D1*
X3433227Y1015098D1*
X3428813Y1011830D1*
X3417558Y1005847D1*
X3300472Y944984D1*
X3295264Y943240D1*
X3287447Y941850D1*
X3152548Y920138D1*
X3147055Y920157D1*
X3134456Y922087D1*
X3004579Y943240D1*
X2999371Y944984D1*
X2988016Y950776D1*
X2870969Y1011868D1*
X2866562Y1015145D1*
X2857571Y1024181D1*
X2764783Y1119177D1*
X2761594Y1123649D1*
X2755811Y1135008D1*
X2696305Y1254601D1*
X2694625Y1259830D1*
X2692567Y1272409D1*
X2672125Y1404932D1*
X2672107Y1410424D1*
X2673952Y1423036D1*
X2694582Y1555574D1*
X2696233Y1560812D1*
X2701822Y1572268D1*
X2750432Y1669790D1*
X2296201Y1215673D1*
X2292849Y1213238D1*
X2289158Y1211357D1*
X2285218Y1210077D1*
X2281126Y1209429D1*
X2264055Y1209348D1*
X2211614D1*
X2211597Y1189820D1*
X2119742D1*
Y1281675D1*
X2124742D1*
X2203225Y1509350D2*
X2200593Y1505920D1*
X2198145Y1503272D1*
X2195497Y1500824D1*
X2192665Y1498592D1*
X2189666Y1496588D1*
X2186520Y1494826D1*
X2183245Y1493317D1*
X2179862Y1492068D1*
X2176391Y1491089D1*
X2172854Y1490386D1*
X2169273Y1489962D1*
X2165669Y1489820D1*
X2162066Y1489962D1*
X2158485Y1490386D1*
X2154948Y1491089D1*
X2151477Y1492068D1*
X2148094Y1493317D1*
X2144819Y1494826D1*
X2141672Y1496588D1*
X2138674Y1498592D1*
X2135842Y1500824D1*
X2133194Y1503272D1*
X2130746Y1505920D1*
X2128513Y1508752D1*
X2126510Y1511751D1*
X2124748Y1514897D1*
X2123238Y1518172D1*
X2121990Y1521556D1*
X2121011Y1525026D1*
X2120307Y1528563D1*
X2119883Y1532145D1*
X2119742Y1535748D1*
X2119883Y1539351D1*
X2120307Y1542933D1*
X2121011Y1546470D1*
X2121990Y1549940D1*
X2123238Y1553324D1*
X2124748Y1556599D1*
X2126510Y1559745D1*
X2128513Y1562744D1*
X2130746Y1565576D1*
X2133194Y1568224D1*
X2135842Y1570672D1*
X2138674Y1572904D1*
X2141672Y1574908D1*
X2144819Y1576670D1*
X2148094Y1578180D1*
X2151477Y1579428D1*
X2154948Y1580407D1*
X2158485Y1581110D1*
X2162066Y1581534D1*
X2165669Y1581676D1*
X2169273Y1581534D1*
X2172854Y1581110D1*
X2176391Y1580407D1*
X2179862Y1579428D1*
X2183245Y1578180D1*
X2186520Y1576670D1*
X2189666Y1574908D1*
X2192665Y1572904D1*
X2195497Y1570672D1*
X2198145Y1568224D1*
X2200593Y1565576D1*
X2203225Y1562146D1*
X2312212Y1562148D1*
X2414871Y1664804D1*
X2414941Y1953961D1*
X2415589Y1958053D1*
X2416869Y1961993D1*
X2418750Y1965684D1*
X2421185Y1969035D1*
X2433199Y1981164D1*
X2559154Y2107004D1*
X2562505Y2109439D1*
X2566196Y2111320D1*
X2570136Y2112600D1*
X2574228Y2113248D1*
X2591299Y2113329D1*
X2666553D1*
X2734343Y2181127D1*
X2733051Y2186835D1*
X2732627Y2190414D1*
X2732486Y2194016D1*
X2732627Y2197617D1*
X2733051Y2201196D1*
X2733754Y2204731D1*
X2734732Y2208200D1*
X2735980Y2211581D1*
X2737489Y2214854D1*
X2739250Y2217998D1*
X2741252Y2220995D1*
X2743483Y2223825D1*
X2745930Y2226472D1*
X2748576Y2228918D1*
X2751406Y2231150D1*
X2754403Y2233152D1*
X2757548Y2234913D1*
X2760821Y2236422D1*
X2764202Y2237669D1*
X2767671Y2238648D1*
X2771205Y2239351D1*
X2774785Y2239774D1*
X2778386Y2239916D1*
X2781987Y2239774D1*
X2785566Y2239351D1*
X2789101Y2238648D1*
X2792570Y2237669D1*
X2795951Y2236422D1*
X2799224Y2234913D1*
X2802369Y2233152D1*
X2805365Y2231150D1*
X2808195Y2228918D1*
X2810842Y2226472D1*
X2813288Y2223825D1*
X2815520Y2220995D1*
X2817522Y2217998D1*
X2819283Y2214854D1*
X2820792Y2211581D1*
X2822039Y2208200D1*
X2823018Y2204731D1*
X2823721Y2201196D1*
X2824144Y2197617D1*
X2824286Y2194016D1*
X2824144Y2190414D1*
X2823721Y2186835D1*
X2823018Y2183301D1*
X2822039Y2179832D1*
X2820792Y2176451D1*
X2819283Y2173178D1*
X2817522Y2170033D1*
X2815520Y2167036D1*
X2813288Y2164206D1*
X2810842Y2161560D1*
X2808195Y2159113D1*
X2805365Y2156882D1*
X2802369Y2154880D1*
X2799224Y2153119D1*
X2795951Y2151610D1*
X2792570Y2150362D1*
X2789101Y2149384D1*
X2785566Y2148681D1*
X2781987Y2148257D1*
X2776093Y2148206D1*
X2694626Y2066854D1*
X2691274Y2064419D1*
X2687583Y2062539D1*
X2683643Y2061258D1*
X2679552Y2060610D1*
X2662480Y2060529D1*
X2587226D1*
X2467646Y1940941D1*
X2467660Y1653858D1*
X2467335Y1649728D1*
X2466368Y1645700D1*
X2464783Y1641873D1*
X2462618Y1638341D1*
X2459928Y1635191D1*
X2340295Y1515673D1*
X2336944Y1513238D1*
X2333252Y1511357D1*
X2329313Y1510077D1*
X2325221Y1509429D1*
X2308150Y1509348D1*
X2203247D1*
X3546553Y2785849D2*
X3645219D1*
Y2682183D1*
X3541553D1*
Y2785849D1*
X3546553D1*
X1365587Y2860416D2*
X1491812D1*
Y2729190D1*
X1360587D1*
Y2802101D1*
X1002475Y2802116D1*
X894643Y2694302D1*
X894656Y2290827D1*
X900029Y2287460D1*
X902890Y2285204D1*
X905566Y2282731D1*
X908039Y2280056D1*
X910294Y2277194D1*
X912318Y2274165D1*
X914099Y2270986D1*
X915624Y2267678D1*
X916885Y2264260D1*
X917874Y2260753D1*
X918585Y2257180D1*
X919013Y2253562D1*
X919156Y2249921D1*
X919013Y2246281D1*
X918585Y2242663D1*
X917874Y2239089D1*
X916885Y2235583D1*
X915624Y2232165D1*
X914099Y2228856D1*
X912318Y2225677D1*
X910294Y2222648D1*
X908039Y2219787D1*
X905566Y2217112D1*
X902890Y2214638D1*
X900029Y2212383D1*
X897000Y2210359D1*
X893821Y2208579D1*
X890512Y2207053D1*
X887094Y2205792D1*
X883588Y2204803D1*
X880014Y2204093D1*
X876396Y2203664D1*
X872756Y2203521D1*
X869115Y2203664D1*
X865497Y2204093D1*
X861924Y2204803D1*
X858418Y2205792D1*
X854999Y2207053D1*
X851691Y2208579D1*
X848512Y2210359D1*
X845483Y2212383D1*
X842622Y2214638D1*
X839946Y2217112D1*
X837473Y2219787D1*
X835218Y2222648D1*
X833193Y2225677D1*
X831413Y2228856D1*
X829888Y2232165D1*
X828627Y2235583D1*
X827638Y2239089D1*
X826927Y2242663D1*
X826499Y2246281D1*
X826356Y2249921D1*
X826499Y2253562D1*
X826927Y2257180D1*
X827638Y2260753D1*
X828627Y2264260D1*
X829888Y2267678D1*
X831413Y2270986D1*
X833193Y2274165D1*
X835218Y2277194D1*
X837473Y2280056D1*
X839946Y2282731D1*
X842622Y2285204D1*
X845483Y2287460D1*
X850859Y2290798D1*
X850923Y2705104D1*
X851461Y2708498D1*
X852523Y2711767D1*
X854083Y2714829D1*
X856103Y2717609D1*
X871412Y2733014D1*
X979163Y2840669D1*
X981943Y2842689D1*
X985005Y2844249D1*
X988273Y2845311D1*
X991668Y2845848D1*
X1013386Y2845916D1*
X1360593D1*
X1360587Y2860416D1*
X1365587D1*
X1489632Y2389811D2*
X1489044Y2384849D1*
X1488070Y2379949D1*
X1486714Y2375141D1*
X1484984Y2370454D1*
X1482893Y2365916D1*
X1480452Y2361557D1*
X1477676Y2357403D1*
X1474583Y2353480D1*
X1471192Y2349811D1*
X1467523Y2346420D1*
X1463599Y2343327D1*
X1459445Y2340551D1*
X1455086Y2338110D1*
X1450549Y2336018D1*
X1445862Y2334289D1*
X1441053Y2332933D1*
X1436153Y2331958D1*
X1431192Y2331371D1*
X1426199Y2331175D1*
X1421207Y2331371D1*
X1416246Y2331958D1*
X1411346Y2332933D1*
X1406537Y2334289D1*
X1401850Y2336018D1*
X1397313Y2338110D1*
X1392954Y2340551D1*
X1388800Y2343327D1*
X1384876Y2346420D1*
X1381207Y2349811D1*
X1377816Y2353480D1*
X1374723Y2357403D1*
X1371947Y2361557D1*
X1369506Y2365916D1*
X1367415Y2370454D1*
X1365685Y2375141D1*
X1364329Y2379949D1*
X1363354Y2384849D1*
X1362767Y2389811D1*
X1362571Y2394803D1*
X1362767Y2399795D1*
X1363354Y2404757D1*
X1364329Y2409657D1*
X1365685Y2414465D1*
X1367415Y2419153D1*
X1369506Y2423690D1*
X1371947Y2428049D1*
X1374723Y2432203D1*
X1377816Y2436126D1*
X1381207Y2439795D1*
X1384876Y2443187D1*
X1388800Y2446280D1*
X1392954Y2449055D1*
X1397313Y2451496D1*
X1401850Y2453588D1*
X1406537Y2455317D1*
X1411346Y2456673D1*
X1416246Y2457648D1*
X1421207Y2458235D1*
X1426199Y2458431D1*
X1431192Y2458235D1*
X1436153Y2457648D1*
X1441053Y2456673D1*
X1445862Y2455317D1*
X1450549Y2453588D1*
X1455086Y2451496D1*
X1459445Y2449055D1*
X1463599Y2446280D1*
X1467523Y2443187D1*
X1471192Y2439795D1*
X1474583Y2436126D1*
X1477676Y2432203D1*
X1480452Y2428049D1*
X1482893Y2423690D1*
X1484984Y2419153D1*
X1486714Y2414465D1*
X1488070Y2409657D1*
X1489044Y2404757D1*
X1489632Y2399795D1*
X1489828Y2394803D1*
X1489632Y2389811D1*
X1313048Y2718338D2*
X1312528Y2713947D1*
X1311666Y2709610D1*
X1310466Y2705354D1*
X1308935Y2701206D1*
X1307084Y2697191D1*
X1304924Y2693333D1*
X1302467Y2689656D1*
X1299730Y2686184D1*
X1296728Y2682937D1*
X1293481Y2679936D1*
X1290009Y2677198D1*
X1286333Y2674742D1*
X1282475Y2672581D1*
X1278459Y2670730D1*
X1274311Y2669200D1*
X1270055Y2667999D1*
X1265719Y2667137D1*
X1261328Y2666617D1*
X1256909Y2666444D1*
X1252491Y2666617D1*
X1248100Y2667137D1*
X1243764Y2667999D1*
X1239508Y2669200D1*
X1235360Y2670730D1*
X1231344Y2672581D1*
X1227486Y2674742D1*
X1223810Y2677198D1*
X1220338Y2679936D1*
X1217091Y2682937D1*
X1214089Y2686184D1*
X1211352Y2689656D1*
X1208895Y2693333D1*
X1206735Y2697191D1*
X1204884Y2701206D1*
X1203353Y2705354D1*
X1202153Y2709610D1*
X1201290Y2713947D1*
X1200771Y2718338D1*
X1200597Y2722756D1*
X1200771Y2727174D1*
X1201290Y2731565D1*
X1202153Y2735902D1*
X1203353Y2740157D1*
X1204884Y2744306D1*
X1206735Y2748321D1*
X1208895Y2752179D1*
X1211352Y2755855D1*
X1214089Y2759328D1*
X1217091Y2762575D1*
X1220338Y2765576D1*
X1223810Y2768314D1*
X1227486Y2770770D1*
X1231344Y2772931D1*
X1235360Y2774782D1*
X1239508Y2776312D1*
X1243764Y2777512D1*
X1248100Y2778375D1*
X1252491Y2778895D1*
X1256909Y2779068D1*
X1261328Y2778895D1*
X1265719Y2778375D1*
X1270055Y2777512D1*
X1274311Y2776312D1*
X1278459Y2774782D1*
X1282475Y2772931D1*
X1286333Y2770770D1*
X1290009Y2768314D1*
X1293481Y2765576D1*
X1296728Y2762575D1*
X1299730Y2759328D1*
X1302467Y2755855D1*
X1304924Y2752179D1*
X1307084Y2748321D1*
X1308935Y2744306D1*
X1310466Y2740157D1*
X1311666Y2735902D1*
X1312528Y2731565D1*
X1313048Y2727174D1*
X1313222Y2722756D1*
X1313048Y2718338D1*
Y2462432D2*
X1312528Y2458041D1*
X1311666Y2453705D1*
X1310466Y2449449D1*
X1308935Y2445301D1*
X1307084Y2441285D1*
X1304924Y2437427D1*
X1302467Y2433751D1*
X1299730Y2430278D1*
X1296728Y2427032D1*
X1293481Y2424030D1*
X1290009Y2421293D1*
X1286333Y2418836D1*
X1282475Y2416676D1*
X1278459Y2414825D1*
X1274311Y2413294D1*
X1270055Y2412094D1*
X1265719Y2411231D1*
X1261328Y2410712D1*
X1256909Y2410538D1*
X1252491Y2410712D1*
X1248100Y2411231D1*
X1243764Y2412094D1*
X1239508Y2413294D1*
X1235360Y2414825D1*
X1231344Y2416676D1*
X1227486Y2418836D1*
X1223810Y2421293D1*
X1220338Y2424030D1*
X1217091Y2427032D1*
X1214089Y2430278D1*
X1211352Y2433751D1*
X1208895Y2437427D1*
X1206735Y2441285D1*
X1204884Y2445301D1*
X1203353Y2449449D1*
X1202153Y2453705D1*
X1201290Y2458041D1*
X1200771Y2462432D1*
X1200597Y2466850D1*
X1200771Y2471269D1*
X1201290Y2475660D1*
X1202153Y2479996D1*
X1203353Y2484252D1*
X1204884Y2488400D1*
X1206735Y2492416D1*
X1208895Y2496274D1*
X1211352Y2499950D1*
X1214089Y2503422D1*
X1217091Y2506669D1*
X1220338Y2509671D1*
X1223810Y2512408D1*
X1227486Y2514865D1*
X1231344Y2517025D1*
X1235360Y2518876D1*
X1239508Y2520407D1*
X1243764Y2521607D1*
X1248100Y2522469D1*
X1252491Y2522989D1*
X1256909Y2523163D1*
X1261328Y2522989D1*
X1265719Y2522469D1*
X1270055Y2521607D1*
X1274311Y2520407D1*
X1278459Y2518876D1*
X1282475Y2517025D1*
X1286333Y2514865D1*
X1290009Y2512408D1*
X1293481Y2509671D1*
X1296728Y2506669D1*
X1299730Y2503422D1*
X1302467Y2499950D1*
X1304924Y2496274D1*
X1307084Y2492416D1*
X1308935Y2488400D1*
X1310466Y2484252D1*
X1311666Y2479996D1*
X1312528Y2475660D1*
X1313048Y2471269D1*
X1313222Y2466850D1*
X1313048Y2462432D1*
X2285372Y825770D2*
X2411597D1*
Y694545D1*
X2280372D1*
Y825770D1*
X2285372D1*
X2009416Y755165D2*
X2008829Y750204D1*
X2007855Y745304D1*
X2006498Y740495D1*
X2004769Y735808D1*
X2002678Y731271D1*
X2000236Y726912D1*
X1997461Y722758D1*
X1994368Y718834D1*
X1990976Y715165D1*
X1987308Y711774D1*
X1983384Y708681D1*
X1979230Y705905D1*
X1974871Y703464D1*
X1970334Y701373D1*
X1965646Y699643D1*
X1960838Y698287D1*
X1955938Y697313D1*
X1950976Y696725D1*
X1945984Y696529D1*
X1940992Y696725D1*
X1936031Y697313D1*
X1931131Y698287D1*
X1926322Y699643D1*
X1921635Y701373D1*
X1917098Y703464D1*
X1912739Y705905D1*
X1908584Y708681D1*
X1904661Y711774D1*
X1900992Y715165D1*
X1897601Y718834D1*
X1894508Y722758D1*
X1891732Y726912D1*
X1889291Y731271D1*
X1887199Y735808D1*
X1885470Y740495D1*
X1884114Y745304D1*
X1883139Y750204D1*
X1882552Y755165D1*
X1882356Y760157D1*
X1882552Y765150D1*
X1883139Y770111D1*
X1884114Y775011D1*
X1885470Y779820D1*
X1887199Y784507D1*
X1889291Y789044D1*
X1891732Y793403D1*
X1894508Y797557D1*
X1897601Y801481D1*
X1900992Y805150D1*
X1904661Y808541D1*
X1908584Y811634D1*
X1912739Y814410D1*
X1917098Y816851D1*
X1921635Y818942D1*
X1926322Y820672D1*
X1931131Y822028D1*
X1936031Y823002D1*
X1940992Y823590D1*
X1945984Y823786D1*
X1950976Y823590D1*
X1955938Y823002D1*
X1960838Y822028D1*
X1965646Y820672D1*
X1970334Y818942D1*
X1974871Y816851D1*
X1979230Y814410D1*
X1983384Y811634D1*
X1987308Y808541D1*
X1990976Y805150D1*
X1994368Y801481D1*
X1997461Y797557D1*
X2000236Y793403D1*
X2002678Y789044D1*
X2004769Y784507D1*
X2006498Y779820D1*
X2007855Y775011D1*
X2008829Y770111D1*
X2009416Y765150D1*
X2009613Y760157D1*
X2009416Y755165D1*
X2330076Y586449D2*
X2329556Y582058D1*
X2328693Y577722D1*
X2327493Y573466D1*
X2325963Y569318D1*
X2324112Y565302D1*
X2321951Y561444D1*
X2319495Y557768D1*
X2316757Y554296D1*
X2313756Y551049D1*
X2310509Y548047D1*
X2307037Y545310D1*
X2303360Y542853D1*
X2299502Y540693D1*
X2295487Y538842D1*
X2291338Y537311D1*
X2287083Y536111D1*
X2282746Y535248D1*
X2278355Y534729D1*
X2273937Y534555D1*
X2269519Y534729D1*
X2265128Y535248D1*
X2260791Y536111D1*
X2256536Y537311D1*
X2252387Y538842D1*
X2248372Y540693D1*
X2244514Y542853D1*
X2240837Y545310D1*
X2237365Y548047D1*
X2234118Y551049D1*
X2231117Y554296D1*
X2228379Y557768D1*
X2225923Y561444D1*
X2223762Y565302D1*
X2221911Y569318D1*
X2220381Y573466D1*
X2219181Y577722D1*
X2218318Y582058D1*
X2217798Y586449D1*
X2217625Y590867D1*
X2217798Y595286D1*
X2218318Y599677D1*
X2219181Y604013D1*
X2220381Y608269D1*
X2221911Y612417D1*
X2223762Y616433D1*
X2225923Y620291D1*
X2228379Y623967D1*
X2231117Y627439D1*
X2234118Y630686D1*
X2237365Y633688D1*
X2240837Y636425D1*
X2244514Y638882D1*
X2248372Y641042D1*
X2252387Y642893D1*
X2256536Y644424D1*
X2260791Y645624D1*
X2265128Y646486D1*
X2269519Y647006D1*
X2273937Y647180D1*
X2278355Y647006D1*
X2282746Y646486D1*
X2287083Y645624D1*
X2291338Y644424D1*
X2295487Y642893D1*
X2299502Y641042D1*
X2303360Y638882D1*
X2307037Y636425D1*
X2310509Y633688D1*
X2313756Y630686D1*
X2316757Y627439D1*
X2319495Y623967D1*
X2321951Y620291D1*
X2324112Y616433D1*
X2325963Y612417D1*
X2327493Y608269D1*
X2328693Y604013D1*
X2329556Y599677D1*
X2330076Y595286D1*
X2330249Y590867D1*
X2330076Y586449D1*
X2074170D2*
X2073651Y582058D1*
X2072788Y577722D1*
X2071588Y573466D1*
X2070057Y569318D1*
X2068206Y565302D1*
X2066046Y561444D1*
X2063589Y557768D1*
X2060852Y554296D1*
X2057850Y551049D1*
X2054603Y548047D1*
X2051131Y545310D1*
X2047455Y542853D1*
X2043597Y540693D1*
X2039581Y538842D1*
X2035433Y537311D1*
X2031177Y536111D1*
X2026841Y535248D1*
X2022450Y534729D1*
X2018031Y534555D1*
X2013613Y534729D1*
X2009222Y535248D1*
X2004886Y536111D1*
X2000630Y537311D1*
X1996482Y538842D1*
X1992466Y540693D1*
X1988608Y542853D1*
X1984932Y545310D1*
X1981460Y548047D1*
X1978213Y551049D1*
X1975211Y554296D1*
X1972474Y557768D1*
X1970017Y561444D1*
X1967857Y565302D1*
X1966006Y569318D1*
X1964475Y573466D1*
X1963275Y577722D1*
X1962412Y582058D1*
X1961893Y586449D1*
X1961719Y590867D1*
X1961893Y595286D1*
X1962412Y599677D1*
X1963275Y604013D1*
X1964475Y608269D1*
X1966006Y612417D1*
X1967857Y616433D1*
X1970017Y620291D1*
X1972474Y623967D1*
X1975211Y627439D1*
X1978213Y630686D1*
X1981460Y633688D1*
X1984932Y636425D1*
X1988608Y638882D1*
X1992466Y641042D1*
X1996482Y642893D1*
X2000630Y644424D1*
X2004886Y645624D1*
X2009222Y646486D1*
X2013613Y647006D1*
X2018031Y647180D1*
X2022450Y647006D1*
X2026841Y646486D1*
X2031177Y645624D1*
X2035433Y644424D1*
X2039581Y642893D1*
X2043597Y641042D1*
X2047455Y638882D1*
X2051131Y636425D1*
X2054603Y633688D1*
X2057850Y630686D1*
X2060852Y627439D1*
X2063589Y623967D1*
X2066046Y620291D1*
X2068206Y616433D1*
X2070057Y612417D1*
X2071588Y608269D1*
X2072788Y604013D1*
X2073651Y599677D1*
X2074170Y595286D1*
X2074344Y590867D1*
X2074170Y586449D1*
X3237486Y3364916D2*
X3324286D1*
Y3304076D1*
X3390039Y3238239D1*
X3392059Y3235459D1*
X3393619Y3232397D1*
X3394681Y3229128D1*
X3395218Y3225734D1*
X3395286Y3204016D1*
X3395218Y2742297D1*
X3394681Y2738903D1*
X3393619Y2735635D1*
X3392059Y2732573D1*
X3390039Y2729793D1*
X3374729Y2714388D1*
X3337609Y2677363D1*
X3334829Y2675343D1*
X3331767Y2673783D1*
X3328498Y2672721D1*
X3325097Y2672183D1*
X3324286Y2669916D1*
Y2648116D1*
X3297392D1*
X3295039Y2644793D1*
X3279729Y2629388D1*
X3217609Y2567363D1*
X3214829Y2565343D1*
X3211767Y2563783D1*
X3208498Y2562721D1*
X3205104Y2562183D1*
X3183386Y2562116D1*
X1951668Y2562183D1*
X1948273Y2562721D1*
X1945005Y2563783D1*
X1941943Y2565343D1*
X1939163Y2567363D1*
X1923758Y2582672D1*
X1544310Y2962121D1*
X1036943Y2962183D1*
X1033549Y2962721D1*
X1030281Y2963783D1*
X1027219Y2965343D1*
X1024438Y2967363D1*
X1009034Y2982672D1*
X886188Y3105518D1*
X880014Y3104093D1*
X876396Y3103664D1*
X872756Y3103521D1*
X869115Y3103664D1*
X865497Y3104093D1*
X861924Y3104803D1*
X858418Y3105792D1*
X854999Y3107053D1*
X851691Y3108579D1*
X848512Y3110359D1*
X845483Y3112383D1*
X842622Y3114638D1*
X839946Y3117112D1*
X837473Y3119787D1*
X835218Y3122648D1*
X833193Y3125677D1*
X831413Y3128856D1*
X829888Y3132165D1*
X828627Y3135583D1*
X827638Y3139089D1*
X826927Y3142663D1*
X826499Y3146281D1*
X826356Y3149921D1*
X826499Y3153562D1*
X826927Y3157180D1*
X827638Y3160753D1*
X828627Y3164260D1*
X829888Y3167678D1*
X831413Y3170986D1*
X833193Y3174165D1*
X835218Y3177194D1*
X837473Y3180056D1*
X839946Y3182731D1*
X842622Y3185204D1*
X845483Y3187460D1*
X848512Y3189484D1*
X851691Y3191264D1*
X854999Y3192789D1*
X858418Y3194050D1*
X861924Y3195039D1*
X865497Y3195750D1*
X869115Y3196178D1*
X872756Y3196321D1*
X876396Y3196178D1*
X880014Y3195750D1*
X883588Y3195039D1*
X887094Y3194050D1*
X890512Y3192789D1*
X893821Y3191264D1*
X897000Y3189484D1*
X900029Y3187460D1*
X902890Y3185204D1*
X905566Y3182731D1*
X908039Y3180056D1*
X910294Y3177194D1*
X912318Y3174165D1*
X914099Y3170986D1*
X915624Y3167678D1*
X916885Y3164260D1*
X917874Y3160753D1*
X918585Y3157180D1*
X919013Y3153562D1*
X919156Y3149921D1*
X919013Y3146281D1*
X918585Y3142663D1*
X917144Y3136501D1*
X1047741Y3005907D1*
X1555104Y3005848D1*
X1558498Y3005311D1*
X1561767Y3004249D1*
X1564829Y3002689D1*
X1567609Y3000669D1*
X1583014Y2985359D1*
X1962462Y2605911D1*
X3194304Y2605916D1*
X3236528Y2648129D1*
X3232486Y2648116D1*
Y2739916D1*
X3324286D1*
Y2725873D1*
X3351473Y2753074D1*
X3351486Y3214934D1*
X3293308Y3273123D1*
X3232486Y3273116D1*
Y3364916D1*
X3237486D1*
X3224144Y3315414D2*
X3223721Y3311835D1*
X3223018Y3308301D1*
X3222039Y3304832D1*
X3220792Y3301451D1*
X3219283Y3298178D1*
X3217522Y3295033D1*
X3215520Y3292036D1*
X3213288Y3289206D1*
X3210842Y3286560D1*
X3208195Y3284113D1*
X3205365Y3281882D1*
X3202369Y3279880D1*
X3199224Y3278119D1*
X3195951Y3276610D1*
X3192570Y3275362D1*
X3189101Y3274384D1*
X3185566Y3273681D1*
X3181987Y3273257D1*
X3178386Y3273116D1*
X3174785Y3273257D1*
X3171205Y3273681D1*
X3167671Y3274384D1*
X3164202Y3275362D1*
X3160821Y3276610D1*
X3157548Y3278119D1*
X3154403Y3279880D1*
X3151406Y3281882D1*
X3148576Y3284113D1*
X3145930Y3286560D1*
X3143483Y3289206D1*
X3141252Y3292036D1*
X3138087Y3297109D1*
X3131257Y3297116D1*
X3150039Y3278239D1*
X3152059Y3275458D1*
X3153619Y3272397D1*
X3154681Y3269128D1*
X3155218Y3265734D1*
X3155286Y3244016D1*
Y2753098D1*
X3169353Y2739020D1*
X3174785Y2739774D1*
X3178386Y2739916D1*
X3181987Y2739774D1*
X3185566Y2739351D1*
X3189101Y2738648D1*
X3192570Y2737669D1*
X3195951Y2736422D1*
X3199224Y2734913D1*
X3202369Y2733152D1*
X3205365Y2731150D1*
X3208195Y2728918D1*
X3210842Y2726472D1*
X3213288Y2723825D1*
X3215520Y2720995D1*
X3217522Y2717998D1*
X3219283Y2714854D1*
X3220792Y2711581D1*
X3222039Y2708200D1*
X3223018Y2704731D1*
X3223721Y2701196D1*
X3224144Y2697617D1*
X3224286Y2694016D1*
X3224144Y2690414D1*
X3223721Y2686835D1*
X3223018Y2683301D1*
X3222039Y2679832D1*
X3220792Y2676451D1*
X3219283Y2673178D1*
X3217522Y2670033D1*
X3215520Y2667036D1*
X3213288Y2664206D1*
X3210842Y2661560D1*
X3208195Y2659113D1*
X3205365Y2656882D1*
X3202369Y2654880D1*
X3199224Y2653119D1*
X3195951Y2651610D1*
X3192570Y2650362D1*
X3189101Y2649384D1*
X3185566Y2648681D1*
X3181987Y2648257D1*
X3178386Y2648116D1*
X3174785Y2648257D1*
X3171205Y2648681D1*
X3167671Y2649384D1*
X3164202Y2650362D1*
X3160821Y2651610D1*
X3157548Y2653119D1*
X3154403Y2654880D1*
X3151406Y2656882D1*
X3148576Y2659113D1*
X3145930Y2661560D1*
X3143483Y2664206D1*
X3141252Y2667036D1*
X3138087Y2672109D1*
X3118718Y2672116D1*
X3115520Y2667036D1*
X3113288Y2664206D1*
X3110842Y2661560D1*
X3108195Y2659113D1*
X3105365Y2656882D1*
X3102369Y2654880D1*
X3099224Y2653119D1*
X3095951Y2651610D1*
X3092570Y2650362D1*
X3089101Y2649384D1*
X3085566Y2648681D1*
X3081987Y2648257D1*
X3078386Y2648116D1*
X3074785Y2648257D1*
X3071205Y2648681D1*
X3067671Y2649384D1*
X3064202Y2650362D1*
X3060821Y2651610D1*
X3057548Y2653119D1*
X3054403Y2654880D1*
X3051406Y2656882D1*
X3048576Y2659113D1*
X3045930Y2661560D1*
X3043483Y2664206D1*
X3041252Y2667036D1*
X3038087Y2672109D1*
X3018718Y2672116D1*
X3015520Y2667036D1*
X3013288Y2664206D1*
X3010842Y2661560D1*
X3008195Y2659113D1*
X3005365Y2656882D1*
X3002369Y2654880D1*
X2999224Y2653119D1*
X2995951Y2651610D1*
X2992570Y2650362D1*
X2989101Y2649384D1*
X2985566Y2648681D1*
X2981987Y2648257D1*
X2978386Y2648116D1*
X2974785Y2648257D1*
X2971205Y2648681D1*
X2967671Y2649384D1*
X2964202Y2650362D1*
X2960821Y2651610D1*
X2957548Y2653119D1*
X2954403Y2654880D1*
X2951406Y2656882D1*
X2948576Y2659113D1*
X2945930Y2661560D1*
X2943483Y2664206D1*
X2941252Y2667036D1*
X2939250Y2670033D1*
X2937489Y2673178D1*
X2935980Y2676451D1*
X2934732Y2679832D1*
X2933754Y2683301D1*
X2933051Y2686835D1*
X2932627Y2690414D1*
X2932486Y2694016D1*
X2932627Y2697617D1*
X2933051Y2701196D1*
X2933754Y2704731D1*
X2934732Y2708200D1*
X2935980Y2711581D1*
X2937489Y2714854D1*
X2939250Y2717998D1*
X2941252Y2720995D1*
X2943483Y2723825D1*
X2945930Y2726472D1*
X2948576Y2728918D1*
X2951406Y2731150D1*
X2954403Y2733152D1*
X2957548Y2734913D1*
X2960821Y2736422D1*
X2964202Y2737669D1*
X2967671Y2738648D1*
X2971205Y2739351D1*
X2974785Y2739774D1*
X2978386Y2739916D1*
X2981987Y2739774D1*
X2985566Y2739351D1*
X2989101Y2738648D1*
X2992570Y2737669D1*
X2995951Y2736422D1*
X2999224Y2734913D1*
X3002369Y2733152D1*
X3005365Y2731150D1*
X3008195Y2728918D1*
X3010842Y2726472D1*
X3013288Y2723825D1*
X3015520Y2720995D1*
X3018685Y2715923D1*
X3038054Y2715916D1*
X3041252Y2720995D1*
X3043483Y2723825D1*
X3045930Y2726472D1*
X3048576Y2728918D1*
X3051406Y2731150D1*
X3054403Y2733152D1*
X3057548Y2734913D1*
X3060821Y2736422D1*
X3064202Y2737669D1*
X3067671Y2738648D1*
X3071205Y2739351D1*
X3074785Y2739774D1*
X3078386Y2739916D1*
X3081987Y2739774D1*
X3085566Y2739351D1*
X3089101Y2738648D1*
X3092570Y2737669D1*
X3095951Y2736422D1*
X3099224Y2734913D1*
X3102369Y2733152D1*
X3105365Y2731150D1*
X3108195Y2728918D1*
X3110842Y2726472D1*
X3113288Y2723825D1*
X3115520Y2720995D1*
X3118685Y2715923D1*
X3130515Y2715916D1*
X3116733Y2729793D1*
X3114713Y2732573D1*
X3113153Y2735635D1*
X3112091Y2738903D1*
X3111553Y2742297D1*
X3111486Y2764016D1*
Y2787199D1*
X3108195Y2784113D1*
X3105365Y2781882D1*
X3102369Y2779880D1*
X3099224Y2778119D1*
X3095951Y2776610D1*
X3092570Y2775362D1*
X3089101Y2774384D1*
X3085566Y2773681D1*
X3081987Y2773257D1*
X3078386Y2773116D1*
X3074785Y2773257D1*
X3071205Y2773681D1*
X3067671Y2774384D1*
X3064202Y2775362D1*
X3060821Y2776610D1*
X3057548Y2778119D1*
X3054403Y2779880D1*
X3051406Y2781882D1*
X3048576Y2784113D1*
X3045930Y2786560D1*
X3043483Y2789206D1*
X3041252Y2792036D1*
X3039250Y2795033D1*
X3037489Y2798178D1*
X3035980Y2801451D1*
X3034732Y2804832D1*
X3033754Y2808301D1*
X3033051Y2811835D1*
X3032627Y2815414D1*
X3032486Y2819016D1*
X3032627Y2822617D1*
X3033051Y2826196D1*
X3033754Y2829731D1*
X3034732Y2833200D1*
X3035980Y2836581D1*
X3037489Y2839854D1*
X3039250Y2842998D1*
X3041252Y2845995D1*
X3043483Y2848825D1*
X3045930Y2851472D1*
X3048576Y2853918D1*
X3051406Y2856150D1*
X3054403Y2858152D1*
X3057548Y2859913D1*
X3060821Y2861422D1*
X3064202Y2862669D1*
X3067671Y2863648D1*
X3071205Y2864351D1*
X3074785Y2864774D1*
X3078386Y2864916D1*
X3081987Y2864774D1*
X3085566Y2864351D1*
X3089101Y2863648D1*
X3092570Y2862669D1*
X3095951Y2861422D1*
X3099224Y2859913D1*
X3102369Y2858152D1*
X3105365Y2856150D1*
X3108195Y2853918D1*
X3111482Y2850779D1*
X3111486Y3254934D1*
X3091425Y3275005D1*
X3085566Y3273681D1*
X3081987Y3273257D1*
X3078386Y3273116D1*
X3074785Y3273257D1*
X3071205Y3273681D1*
X3067671Y3274384D1*
X3064202Y3275362D1*
X3060821Y3276610D1*
X3057548Y3278119D1*
X3054403Y3279880D1*
X3051406Y3281882D1*
X3048576Y3284113D1*
X3045930Y3286560D1*
X3043483Y3289206D1*
X3041252Y3292036D1*
X3038087Y3297109D1*
X3018718Y3297116D1*
X3015520Y3292036D1*
X3013288Y3289206D1*
X3010842Y3286560D1*
X3008195Y3284113D1*
X3005365Y3281882D1*
X3002369Y3279880D1*
X2999224Y3278119D1*
X2995951Y3276610D1*
X2992570Y3275362D1*
X2989101Y3274384D1*
X2985566Y3273681D1*
X2981987Y3273257D1*
X2978386Y3273116D1*
X2974785Y3273257D1*
X2971205Y3273681D1*
X2967671Y3274384D1*
X2964202Y3275362D1*
X2960821Y3276610D1*
X2957548Y3278119D1*
X2954403Y3279880D1*
X2951406Y3281882D1*
X2948576Y3284113D1*
X2945930Y3286560D1*
X2943483Y3289206D1*
X2941252Y3292036D1*
X2939250Y3295033D1*
X2937489Y3298178D1*
X2935980Y3301451D1*
X2934732Y3304832D1*
X2933754Y3308301D1*
X2933051Y3311835D1*
X2932627Y3315414D1*
X2932486Y3319016D1*
X2932627Y3322617D1*
X2933051Y3326196D1*
X2933754Y3329731D1*
X2934732Y3333200D1*
X2935980Y3336581D1*
X2937489Y3339854D1*
X2939250Y3342998D1*
X2941252Y3345995D1*
X2943483Y3348825D1*
X2945930Y3351472D1*
X2948576Y3353918D1*
X2951406Y3356150D1*
X2954403Y3358152D1*
X2957548Y3359913D1*
X2960821Y3361422D1*
X2964202Y3362669D1*
X2967671Y3363648D1*
X2971205Y3364351D1*
X2974785Y3364774D1*
X2978386Y3364916D1*
X2981987Y3364774D1*
X2985566Y3364351D1*
X2989101Y3363648D1*
X2992570Y3362669D1*
X2995951Y3361422D1*
X2999224Y3359913D1*
X3002369Y3358152D1*
X3005365Y3356150D1*
X3008195Y3353918D1*
X3010842Y3351472D1*
X3013288Y3348825D1*
X3015520Y3345995D1*
X3018685Y3340923D1*
X3038054Y3340916D1*
X3041252Y3345995D1*
X3043483Y3348825D1*
X3045930Y3351472D1*
X3048576Y3353918D1*
X3051406Y3356150D1*
X3054403Y3358152D1*
X3057548Y3359913D1*
X3060821Y3361422D1*
X3064202Y3362669D1*
X3067671Y3363648D1*
X3071205Y3364351D1*
X3074785Y3364774D1*
X3078386Y3364916D1*
X3081987Y3364774D1*
X3085566Y3364351D1*
X3089101Y3363648D1*
X3092570Y3362669D1*
X3095951Y3361422D1*
X3099224Y3359913D1*
X3102369Y3358152D1*
X3105365Y3356150D1*
X3108195Y3353918D1*
X3110842Y3351472D1*
X3113288Y3348825D1*
X3115520Y3345995D1*
X3118685Y3340923D1*
X3138054Y3340916D1*
X3141252Y3345995D1*
X3143483Y3348825D1*
X3145930Y3351472D1*
X3148576Y3353918D1*
X3151406Y3356150D1*
X3154403Y3358152D1*
X3157548Y3359913D1*
X3160821Y3361422D1*
X3164202Y3362669D1*
X3167671Y3363648D1*
X3171205Y3364351D1*
X3174785Y3364774D1*
X3178386Y3364916D1*
X3181987Y3364774D1*
X3185566Y3364351D1*
X3189101Y3363648D1*
X3192570Y3362669D1*
X3195951Y3361422D1*
X3199224Y3359913D1*
X3202369Y3358152D1*
X3205365Y3356150D1*
X3208195Y3353918D1*
X3210842Y3351472D1*
X3213288Y3348825D1*
X3215520Y3345995D1*
X3217522Y3342998D1*
X3219283Y3339854D1*
X3220792Y3336581D1*
X3222039Y3333200D1*
X3223018Y3329731D1*
X3223721Y3326196D1*
X3224144Y3322617D1*
X3224286Y3319016D1*
X3224144Y3315414D1*
X2924144D2*
X2923721Y3311835D1*
X2923018Y3308301D1*
X2922039Y3304832D1*
X2920792Y3301451D1*
X2919283Y3298178D1*
X2917522Y3295033D1*
X2915520Y3292036D1*
X2913288Y3289206D1*
X2910842Y3286560D1*
X2908195Y3284113D1*
X2905365Y3281882D1*
X2902369Y3279880D1*
X2899224Y3278119D1*
X2895951Y3276610D1*
X2892570Y3275362D1*
X2889101Y3274384D1*
X2885566Y3273681D1*
X2881987Y3273257D1*
X2878386Y3273116D1*
X2874785Y3273257D1*
X2871205Y3273681D1*
X2867671Y3274384D1*
X2864202Y3275362D1*
X2860821Y3276610D1*
X2857548Y3278119D1*
X2854403Y3279880D1*
X2851406Y3281882D1*
X2848576Y3284113D1*
X2845930Y3286560D1*
X2843483Y3289206D1*
X2841252Y3292036D1*
X2839250Y3295033D1*
X2837489Y3298178D1*
X2835980Y3301451D1*
X2834732Y3304832D1*
X2833754Y3308301D1*
X2833051Y3311835D1*
X2832627Y3315414D1*
X2832486Y3319016D1*
X2832627Y3322617D1*
X2833051Y3326196D1*
X2833754Y3329731D1*
X2834732Y3333200D1*
X2835980Y3336581D1*
X2837489Y3339854D1*
X2839250Y3342998D1*
X2841252Y3345995D1*
X2843483Y3348825D1*
X2845930Y3351472D1*
X2848576Y3353918D1*
X2851406Y3356150D1*
X2854403Y3358152D1*
X2857548Y3359913D1*
X2860821Y3361422D1*
X2864202Y3362669D1*
X2867671Y3363648D1*
X2871205Y3364351D1*
X2874785Y3364774D1*
X2878386Y3364916D1*
X2881987Y3364774D1*
X2885566Y3364351D1*
X2889101Y3363648D1*
X2892570Y3362669D1*
X2895951Y3361422D1*
X2899224Y3359913D1*
X2902369Y3358152D1*
X2905365Y3356150D1*
X2908195Y3353918D1*
X2910842Y3351472D1*
X2913288Y3348825D1*
X2915520Y3345995D1*
X2917522Y3342998D1*
X2919283Y3339854D1*
X2920792Y3336581D1*
X2922039Y3333200D1*
X2923018Y3329731D1*
X2923721Y3326196D1*
X2924144Y3322617D1*
X2924286Y3319016D1*
X2924144Y3315414D1*
X2824144D2*
X2823721Y3311835D1*
X2823018Y3308301D1*
X2822039Y3304832D1*
X2820792Y3301451D1*
X2819283Y3298178D1*
X2817522Y3295033D1*
X2815520Y3292036D1*
X2813288Y3289206D1*
X2810842Y3286560D1*
X2808195Y3284113D1*
X2805365Y3281882D1*
X2802369Y3279880D1*
X2799224Y3278119D1*
X2795951Y3276610D1*
X2792570Y3275362D1*
X2789101Y3274384D1*
X2785566Y3273681D1*
X2781987Y3273257D1*
X2778386Y3273116D1*
X2774785Y3273257D1*
X2771205Y3273681D1*
X2767671Y3274384D1*
X2764202Y3275362D1*
X2760821Y3276610D1*
X2757548Y3278119D1*
X2754403Y3279880D1*
X2751406Y3281882D1*
X2748576Y3284113D1*
X2745930Y3286560D1*
X2743483Y3289206D1*
X2741252Y3292036D1*
X2739250Y3295033D1*
X2737489Y3298178D1*
X2735980Y3301451D1*
X2734732Y3304832D1*
X2733754Y3308301D1*
X2733051Y3311835D1*
X2732627Y3315414D1*
X2732486Y3319016D1*
X2732627Y3322617D1*
X2733051Y3326196D1*
X2733754Y3329731D1*
X2734732Y3333200D1*
X2735980Y3336581D1*
X2737489Y3339854D1*
X2739250Y3342998D1*
X2741252Y3345995D1*
X2743483Y3348825D1*
X2745930Y3351472D1*
X2748576Y3353918D1*
X2751406Y3356150D1*
X2754403Y3358152D1*
X2757548Y3359913D1*
X2760821Y3361422D1*
X2764202Y3362669D1*
X2767671Y3363648D1*
X2771205Y3364351D1*
X2774785Y3364774D1*
X2778386Y3364916D1*
X2781987Y3364774D1*
X2785566Y3364351D1*
X2789101Y3363648D1*
X2792570Y3362669D1*
X2795951Y3361422D1*
X2799224Y3359913D1*
X2802369Y3358152D1*
X2805365Y3356150D1*
X2808195Y3353918D1*
X2810842Y3351472D1*
X2813288Y3348825D1*
X2815520Y3345995D1*
X2817522Y3342998D1*
X2819283Y3339854D1*
X2820792Y3336581D1*
X2822039Y3333200D1*
X2823018Y3329731D1*
X2823721Y3326196D1*
X2824144Y3322617D1*
X2824286Y3319016D1*
X2824144Y3315414D1*
X2724144D2*
X2723721Y3311835D1*
X2723018Y3308301D1*
X2722039Y3304832D1*
X2720792Y3301451D1*
X2719283Y3298178D1*
X2717522Y3295033D1*
X2715520Y3292036D1*
X2713288Y3289206D1*
X2710842Y3286560D1*
X2708195Y3284113D1*
X2705365Y3281882D1*
X2702369Y3279880D1*
X2699224Y3278119D1*
X2695951Y3276610D1*
X2692570Y3275362D1*
X2689101Y3274384D1*
X2685566Y3273681D1*
X2681987Y3273257D1*
X2678386Y3273116D1*
X2674785Y3273257D1*
X2671205Y3273681D1*
X2667671Y3274384D1*
X2664202Y3275362D1*
X2660821Y3276610D1*
X2657548Y3278119D1*
X2654403Y3279880D1*
X2651406Y3281882D1*
X2648576Y3284113D1*
X2645930Y3286560D1*
X2643483Y3289206D1*
X2641252Y3292036D1*
X2639250Y3295033D1*
X2637489Y3298178D1*
X2635980Y3301451D1*
X2634732Y3304832D1*
X2633754Y3308301D1*
X2633051Y3311835D1*
X2632627Y3315414D1*
X2632486Y3319016D1*
X2632627Y3322617D1*
X2633051Y3326196D1*
X2633754Y3329731D1*
X2634732Y3333200D1*
X2635980Y3336581D1*
X2637489Y3339854D1*
X2640290Y3344555D1*
X2616511Y3344557D1*
X2619283Y3339854D1*
X2620792Y3336581D1*
X2622039Y3333200D1*
X2623018Y3329731D1*
X2623721Y3326196D1*
X2624144Y3322617D1*
X2624286Y3319016D1*
X2624144Y3315414D1*
X2623721Y3311835D1*
X2623018Y3308301D1*
X2622039Y3304832D1*
X2620792Y3301451D1*
X2619283Y3298178D1*
X2617522Y3295033D1*
X2615520Y3292036D1*
X2613288Y3289206D1*
X2610842Y3286560D1*
X2608195Y3284113D1*
X2605365Y3281882D1*
X2600956Y3279088D1*
X2600888Y3266313D1*
X2600350Y3262919D1*
X2599288Y3259651D1*
X2597728Y3256589D1*
X2595708Y3253809D1*
X2580399Y3238404D1*
X2485010Y3143111D1*
X2482230Y3141091D1*
X2479168Y3139531D1*
X2475900Y3138469D1*
X2472506Y3137931D1*
X2450787Y3137864D1*
X2331274Y3137931D1*
X2327880Y3138469D1*
X2324611Y3139531D1*
X2321549Y3141091D1*
X2318764Y3143115D1*
X2317874Y3139089D1*
X2316885Y3135583D1*
X2315624Y3132165D1*
X2314099Y3128856D1*
X2312318Y3125677D1*
X2310294Y3122648D1*
X2308039Y3119787D1*
X2305566Y3117112D1*
X2302890Y3114638D1*
X2300029Y3112383D1*
X2297000Y3110359D1*
X2293821Y3108579D1*
X2290512Y3107053D1*
X2287094Y3105792D1*
X2283588Y3104803D1*
X2280014Y3104093D1*
X2276396Y3103664D1*
X2272756Y3103521D1*
X2269115Y3103664D1*
X2265497Y3104093D1*
X2261924Y3104803D1*
X2258418Y3105792D1*
X2254999Y3107053D1*
X2251691Y3108579D1*
X2248512Y3110359D1*
X2245483Y3112383D1*
X2242622Y3114638D1*
X2239946Y3117112D1*
X2237473Y3119787D1*
X2235218Y3122648D1*
X2233193Y3125677D1*
X2231413Y3128856D1*
X2229888Y3132165D1*
X2228627Y3135583D1*
X2227638Y3139089D1*
X2226927Y3142663D1*
X2226499Y3146281D1*
X2226356Y3149921D1*
X2226499Y3153562D1*
X2226927Y3157180D1*
X2227638Y3160753D1*
X2228627Y3164260D1*
X2229888Y3167678D1*
X2231413Y3170986D1*
X2233193Y3174165D1*
X2235244Y3177228D1*
X2207782Y3177234D1*
X2210627Y3173128D1*
X2212331Y3170086D1*
X2213791Y3166918D1*
X2214998Y3163646D1*
X2215944Y3160290D1*
X2216625Y3156869D1*
X2217035Y3153406D1*
X2217172Y3149921D1*
X2217035Y3146436D1*
X2216625Y3142973D1*
X2215944Y3139553D1*
X2214998Y3136196D1*
X2213791Y3132924D1*
X2212331Y3129757D1*
X2210627Y3126714D1*
X2208689Y3123814D1*
X2206530Y3121076D1*
X2204163Y3118515D1*
X2201602Y3116147D1*
X2198863Y3113988D1*
X2196178Y3112194D1*
X2569362Y2739011D1*
X2574785Y2739774D1*
X2578386Y2739916D1*
X2581987Y2739774D1*
X2585566Y2739351D1*
X2589101Y2738648D1*
X2592570Y2737669D1*
X2595951Y2736422D1*
X2599224Y2734913D1*
X2602369Y2733152D1*
X2605365Y2731150D1*
X2608195Y2728918D1*
X2610842Y2726472D1*
X2613288Y2723825D1*
X2615520Y2720995D1*
X2617522Y2717998D1*
X2619283Y2714854D1*
X2620792Y2711581D1*
X2622039Y2708200D1*
X2623018Y2704731D1*
X2623721Y2701196D1*
X2624144Y2697617D1*
X2624286Y2694016D1*
X2624144Y2690414D1*
X2623344Y2684944D1*
X2632496Y2694097D1*
X2632627Y2697617D1*
X2633051Y2701196D1*
X2633754Y2704731D1*
X2634732Y2708200D1*
X2635980Y2711581D1*
X2637489Y2714854D1*
X2639250Y2717998D1*
X2641252Y2720995D1*
X2643483Y2723825D1*
X2645930Y2726472D1*
X2648576Y2728918D1*
X2651406Y2731150D1*
X2654403Y2733152D1*
X2657548Y2734913D1*
X2660821Y2736422D1*
X2664202Y2737669D1*
X2667671Y2738648D1*
X2671205Y2739351D1*
X2674785Y2739774D1*
X2678386Y2739916D1*
X2681987Y2739774D1*
X2685566Y2739351D1*
X2689101Y2738648D1*
X2692570Y2737669D1*
X2695951Y2736422D1*
X2699224Y2734913D1*
X2702369Y2733152D1*
X2705365Y2731150D1*
X2708195Y2728918D1*
X2710842Y2726472D1*
X2713288Y2723825D1*
X2715520Y2720995D1*
X2717522Y2717998D1*
X2719283Y2714854D1*
X2720792Y2711581D1*
X2722039Y2708200D1*
X2723018Y2704731D1*
X2723721Y2701196D1*
X2724144Y2697617D1*
X2724286Y2694016D1*
X2724144Y2690414D1*
X2723721Y2686835D1*
X2723018Y2683301D1*
X2722039Y2679832D1*
X2720792Y2676451D1*
X2719283Y2673178D1*
X2717522Y2670033D1*
X2715520Y2667036D1*
X2713288Y2664206D1*
X2710842Y2661560D1*
X2708195Y2659113D1*
X2705365Y2656882D1*
X2702369Y2654880D1*
X2699224Y2653119D1*
X2695951Y2651610D1*
X2692570Y2650362D1*
X2689101Y2649384D1*
X2685566Y2648681D1*
X2681987Y2648257D1*
X2678386Y2648116D1*
X2674785Y2648257D1*
X2671205Y2648681D1*
X2667671Y2649384D1*
X2664202Y2650362D1*
X2660821Y2651610D1*
X2657548Y2653119D1*
X2654931Y2654584D1*
X2627609Y2627363D1*
X2624829Y2625343D1*
X2621767Y2623783D1*
X2618498Y2622721D1*
X2615104Y2622183D1*
X2593386Y2622116D1*
X2051668Y2622183D1*
X2048273Y2622721D1*
X2045005Y2623783D1*
X2041943Y2625343D1*
X2039163Y2627363D1*
X2023758Y2642672D1*
X1644310Y3022121D1*
X1221668Y3022183D1*
X1218273Y3022721D1*
X1215005Y3023783D1*
X1211943Y3025343D1*
X1209163Y3027363D1*
X1193758Y3042672D1*
X1156103Y3080423D1*
X1154083Y3083203D1*
X1152523Y3086265D1*
X1151461Y3089533D1*
X1150923Y3092927D1*
X1150856Y3109001D1*
X1145483Y3112383D1*
X1142622Y3114638D1*
X1139946Y3117112D1*
X1137473Y3119787D1*
X1135218Y3122648D1*
X1133193Y3125677D1*
X1131413Y3128856D1*
X1129888Y3132165D1*
X1128627Y3135583D1*
X1127638Y3139089D1*
X1126927Y3142663D1*
X1126499Y3146281D1*
X1126356Y3149921D1*
X1126499Y3153562D1*
X1126927Y3157180D1*
X1127638Y3160753D1*
X1128627Y3164260D1*
X1129888Y3167678D1*
X1131413Y3170986D1*
X1133193Y3174165D1*
X1135218Y3177194D1*
X1137473Y3180056D1*
X1139946Y3182731D1*
X1142622Y3185204D1*
X1145483Y3187460D1*
X1148512Y3189484D1*
X1151691Y3191264D1*
X1154999Y3192789D1*
X1158418Y3194050D1*
X1161924Y3195039D1*
X1165497Y3195750D1*
X1169115Y3196178D1*
X1172756Y3196321D1*
X1176396Y3196178D1*
X1180014Y3195750D1*
X1183588Y3195039D1*
X1187094Y3194050D1*
X1190512Y3192789D1*
X1193821Y3191264D1*
X1197000Y3189484D1*
X1200029Y3187460D1*
X1202890Y3185204D1*
X1205566Y3182731D1*
X1208039Y3180056D1*
X1210294Y3177194D1*
X1212318Y3174165D1*
X1214099Y3170986D1*
X1215624Y3167678D1*
X1216885Y3164260D1*
X1217874Y3160753D1*
X1218585Y3157180D1*
X1219013Y3153562D1*
X1219156Y3149921D1*
X1219013Y3146281D1*
X1218585Y3142663D1*
X1217874Y3139089D1*
X1216885Y3135583D1*
X1215624Y3132165D1*
X1214099Y3128856D1*
X1212318Y3125677D1*
X1210294Y3122648D1*
X1208039Y3119787D1*
X1205566Y3117112D1*
X1202890Y3114638D1*
X1200029Y3112383D1*
X1194653Y3109044D1*
X1194656Y3103730D1*
X1232450Y3065923D1*
X1655104Y3065848D1*
X1658498Y3065311D1*
X1661767Y3064249D1*
X1664829Y3062689D1*
X1667609Y3060669D1*
X1683014Y3045359D1*
X2062462Y2665911D1*
X2542077Y2665916D1*
X2539250Y2670033D1*
X2537489Y2673178D1*
X2535980Y2676451D1*
X2534732Y2679832D1*
X2533754Y2683301D1*
X2533051Y2686835D1*
X2532627Y2690414D1*
X2532486Y2694016D1*
X2532627Y2697617D1*
X2533051Y2701196D1*
X2533754Y2704731D1*
X2535673Y2710749D1*
X2167625Y3078806D1*
X1520250Y3078876D1*
X1516856Y3079414D1*
X1513588Y3080476D1*
X1510526Y3082036D1*
X1507746Y3084056D1*
X1492341Y3099365D1*
X1486195Y3105511D1*
X1480014Y3104093D1*
X1476396Y3103664D1*
X1472756Y3103521D1*
X1469115Y3103664D1*
X1465497Y3104093D1*
X1461924Y3104803D1*
X1458418Y3105792D1*
X1454999Y3107053D1*
X1451691Y3108579D1*
X1448512Y3110359D1*
X1445483Y3112383D1*
X1442622Y3114638D1*
X1439946Y3117112D1*
X1437473Y3119787D1*
X1435218Y3122648D1*
X1433193Y3125677D1*
X1431413Y3128856D1*
X1429888Y3132165D1*
X1428627Y3135583D1*
X1427638Y3139089D1*
X1426927Y3142663D1*
X1426499Y3146281D1*
X1426356Y3149921D1*
X1426499Y3153562D1*
X1426927Y3157180D1*
X1427638Y3160753D1*
X1428627Y3164260D1*
X1429888Y3167678D1*
X1431413Y3170986D1*
X1433193Y3174165D1*
X1435244Y3177228D1*
X1431024Y3177234D1*
X1417166Y3163360D1*
X1418585Y3157180D1*
X1419013Y3153562D1*
X1419156Y3149921D1*
X1419013Y3146281D1*
X1418585Y3142663D1*
X1417874Y3139089D1*
X1416885Y3135583D1*
X1415624Y3132165D1*
X1414099Y3128856D1*
X1412318Y3125677D1*
X1410294Y3122648D1*
X1408039Y3119787D1*
X1405566Y3117112D1*
X1402890Y3114638D1*
X1400029Y3112383D1*
X1397000Y3110359D1*
X1393821Y3108579D1*
X1390512Y3107053D1*
X1387094Y3105792D1*
X1383588Y3104803D1*
X1380014Y3104093D1*
X1376396Y3103664D1*
X1372756Y3103521D1*
X1369115Y3103664D1*
X1365497Y3104093D1*
X1361924Y3104803D1*
X1358418Y3105792D1*
X1354999Y3107053D1*
X1351691Y3108579D1*
X1348512Y3110359D1*
X1345483Y3112383D1*
X1342622Y3114638D1*
X1339946Y3117112D1*
X1337473Y3119787D1*
X1335218Y3122648D1*
X1333193Y3125677D1*
X1331413Y3128856D1*
X1329888Y3132165D1*
X1328627Y3135583D1*
X1327638Y3139089D1*
X1326927Y3142663D1*
X1326499Y3146281D1*
X1326356Y3149921D1*
X1326499Y3153562D1*
X1326927Y3157180D1*
X1327638Y3160753D1*
X1328627Y3164260D1*
X1329888Y3167678D1*
X1331413Y3170986D1*
X1333193Y3174165D1*
X1335218Y3177194D1*
X1337473Y3180056D1*
X1339946Y3182731D1*
X1342622Y3185204D1*
X1345483Y3187460D1*
X1348512Y3189484D1*
X1351691Y3191264D1*
X1354999Y3192789D1*
X1358418Y3194050D1*
X1361924Y3195039D1*
X1365497Y3195750D1*
X1369115Y3196178D1*
X1372756Y3196321D1*
X1376396Y3196178D1*
X1380014Y3195750D1*
X1386177Y3194309D1*
X1398465Y3206761D1*
X1160554D1*
X1117167Y3163361D1*
X1118585Y3157180D1*
X1119013Y3153562D1*
X1119156Y3149921D1*
X1119013Y3146281D1*
X1118585Y3142663D1*
X1117874Y3139089D1*
X1116885Y3135583D1*
X1115624Y3132165D1*
X1114099Y3128856D1*
X1112318Y3125677D1*
X1110294Y3122648D1*
X1108039Y3119787D1*
X1105566Y3117112D1*
X1102890Y3114638D1*
X1100029Y3112383D1*
X1097000Y3110359D1*
X1093821Y3108579D1*
X1090512Y3107053D1*
X1087094Y3105792D1*
X1083588Y3104803D1*
X1080014Y3104093D1*
X1076396Y3103664D1*
X1072756Y3103521D1*
X1069115Y3103664D1*
X1065497Y3104093D1*
X1061924Y3104803D1*
X1058418Y3105792D1*
X1054999Y3107053D1*
X1051691Y3108579D1*
X1048512Y3110359D1*
X1045483Y3112383D1*
X1042622Y3114638D1*
X1039946Y3117112D1*
X1037473Y3119787D1*
X1035218Y3122648D1*
X1033193Y3125677D1*
X1031413Y3128856D1*
X1029888Y3132165D1*
X1028627Y3135583D1*
X1027638Y3139089D1*
X1026927Y3142663D1*
X1026499Y3146281D1*
X1026356Y3149921D1*
X1026499Y3153562D1*
X1026927Y3157180D1*
X1027638Y3160753D1*
X1028627Y3164260D1*
X1029888Y3167678D1*
X1031413Y3170986D1*
X1033193Y3174165D1*
X1035218Y3177194D1*
X1037473Y3180056D1*
X1039946Y3182731D1*
X1042622Y3185204D1*
X1045483Y3187460D1*
X1048512Y3189484D1*
X1051691Y3191264D1*
X1054999Y3192789D1*
X1058418Y3194050D1*
X1061924Y3195039D1*
X1065497Y3195750D1*
X1069115Y3196178D1*
X1072756Y3196321D1*
X1076396Y3196178D1*
X1080014Y3195750D1*
X1086177Y3194309D1*
X1137273Y3245314D1*
X1140053Y3247334D1*
X1143115Y3248895D1*
X1146384Y3249956D1*
X1149778Y3250494D1*
X1171496Y3250562D1*
X2305183Y3250494D1*
X2308577Y3249956D1*
X2311845Y3248895D1*
X2314907Y3247334D1*
X2317688Y3245314D1*
X2333092Y3230005D1*
X2351916Y3211181D1*
X2451878Y3211191D1*
X2505052Y3264370D1*
X2505128Y3345608D1*
X2505665Y3349002D1*
X2506727Y3352270D1*
X2508287Y3355332D1*
X2510307Y3358112D1*
X2525617Y3373517D1*
X2535305Y3383110D1*
X2538085Y3385130D1*
X2541147Y3386690D1*
X2544415Y3387752D1*
X2547809Y3388289D1*
X2569528Y3388357D1*
X2652663Y3388289D1*
X2656057Y3387752D1*
X2659326Y3386690D1*
X2662388Y3385130D1*
X2665168Y3383110D1*
X2680573Y3367800D1*
X2683763Y3364610D1*
X2689101Y3363648D1*
X2692570Y3362669D1*
X2695951Y3361422D1*
X2699224Y3359913D1*
X2702369Y3358152D1*
X2705365Y3356150D1*
X2708195Y3353918D1*
X2710842Y3351472D1*
X2713288Y3348825D1*
X2715520Y3345995D1*
X2717522Y3342998D1*
X2719283Y3339854D1*
X2720792Y3336581D1*
X2722039Y3333200D1*
X2723018Y3329731D1*
X2723721Y3326196D1*
X2724144Y3322617D1*
X2724286Y3319016D1*
X2724144Y3315414D1*
Y2815414D2*
X2723721Y2811835D1*
X2723018Y2808301D1*
X2722039Y2804832D1*
X2720792Y2801451D1*
X2719283Y2798178D1*
X2717522Y2795033D1*
X2715520Y2792036D1*
X2713288Y2789206D1*
X2710842Y2786560D1*
X2708195Y2784113D1*
X2705365Y2781882D1*
X2702369Y2779880D1*
X2699224Y2778119D1*
X2695951Y2776610D1*
X2692570Y2775362D1*
X2689101Y2774384D1*
X2685566Y2773681D1*
X2681987Y2773257D1*
X2678386Y2773116D1*
X2674785Y2773257D1*
X2671205Y2773681D1*
X2667671Y2774384D1*
X2664202Y2775362D1*
X2660821Y2776610D1*
X2657548Y2778119D1*
X2654403Y2779880D1*
X2651406Y2781882D1*
X2648576Y2784113D1*
X2645930Y2786560D1*
X2643483Y2789206D1*
X2641252Y2792036D1*
X2639250Y2795033D1*
X2637489Y2798178D1*
X2635980Y2801451D1*
X2634732Y2804832D1*
X2633754Y2808301D1*
X2633051Y2811835D1*
X2632627Y2815414D1*
X2632486Y2819016D1*
X2632627Y2822617D1*
X2633051Y2826196D1*
X2633754Y2829731D1*
X2634732Y2833200D1*
X2635980Y2836581D1*
X2637489Y2839854D1*
X2639250Y2842998D1*
X2641252Y2845995D1*
X2643483Y2848825D1*
X2645930Y2851472D1*
X2648576Y2853918D1*
X2651406Y2856150D1*
X2654403Y2858152D1*
X2657548Y2859913D1*
X2660821Y2861422D1*
X2664202Y2862669D1*
X2667671Y2863648D1*
X2671205Y2864351D1*
X2674785Y2864774D1*
X2678386Y2864916D1*
X2681987Y2864774D1*
X2685566Y2864351D1*
X2689101Y2863648D1*
X2692570Y2862669D1*
X2695951Y2861422D1*
X2699224Y2859913D1*
X2702369Y2858152D1*
X2705365Y2856150D1*
X2708195Y2853918D1*
X2710842Y2851472D1*
X2713288Y2848825D1*
X2715520Y2845995D1*
X2717522Y2842998D1*
X2719283Y2839854D1*
X2720792Y2836581D1*
X2722039Y2833200D1*
X2723018Y2829731D1*
X2723721Y2826196D1*
X2724144Y2822617D1*
X2724286Y2819016D1*
X2724144Y2815414D1*
X2824144D2*
X2823721Y2811835D1*
X2823018Y2808301D1*
X2822039Y2804832D1*
X2820792Y2801451D1*
X2819283Y2798178D1*
X2817522Y2795033D1*
X2815520Y2792036D1*
X2813288Y2789206D1*
X2810842Y2786560D1*
X2808195Y2784113D1*
X2805365Y2781882D1*
X2802369Y2779880D1*
X2799224Y2778119D1*
X2795951Y2776610D1*
X2792570Y2775362D1*
X2789101Y2774384D1*
X2785566Y2773681D1*
X2781987Y2773257D1*
X2778386Y2773116D1*
X2774785Y2773257D1*
X2771205Y2773681D1*
X2767671Y2774384D1*
X2764202Y2775362D1*
X2760821Y2776610D1*
X2757548Y2778119D1*
X2754403Y2779880D1*
X2751406Y2781882D1*
X2748576Y2784113D1*
X2745930Y2786560D1*
X2743483Y2789206D1*
X2741252Y2792036D1*
X2739250Y2795033D1*
X2737489Y2798178D1*
X2735980Y2801451D1*
X2734732Y2804832D1*
X2733754Y2808301D1*
X2733051Y2811835D1*
X2732627Y2815414D1*
X2732486Y2819016D1*
X2732627Y2822617D1*
X2733051Y2826196D1*
X2733754Y2829731D1*
X2734732Y2833200D1*
X2735980Y2836581D1*
X2737489Y2839854D1*
X2739250Y2842998D1*
X2741252Y2845995D1*
X2743483Y2848825D1*
X2745930Y2851472D1*
X2748576Y2853918D1*
X2751406Y2856150D1*
X2754403Y2858152D1*
X2757548Y2859913D1*
X2760821Y2861422D1*
X2764202Y2862669D1*
X2767671Y2863648D1*
X2771205Y2864351D1*
X2774785Y2864774D1*
X2778386Y2864916D1*
X2781987Y2864774D1*
X2785566Y2864351D1*
X2789101Y2863648D1*
X2792570Y2862669D1*
X2795951Y2861422D1*
X2799224Y2859913D1*
X2802369Y2858152D1*
X2805365Y2856150D1*
X2808195Y2853918D1*
X2810842Y2851472D1*
X2813288Y2848825D1*
X2815520Y2845995D1*
X2817522Y2842998D1*
X2819283Y2839854D1*
X2820792Y2836581D1*
X2822039Y2833200D1*
X2823018Y2829731D1*
X2823721Y2826196D1*
X2824144Y2822617D1*
X2824286Y2819016D1*
X2824144Y2815414D1*
X2924144D2*
X2923721Y2811835D1*
X2923018Y2808301D1*
X2922039Y2804832D1*
X2920792Y2801451D1*
X2919283Y2798178D1*
X2917522Y2795033D1*
X2915520Y2792036D1*
X2913288Y2789206D1*
X2910842Y2786560D1*
X2908195Y2784113D1*
X2905365Y2781882D1*
X2902369Y2779880D1*
X2899224Y2778119D1*
X2895951Y2776610D1*
X2892570Y2775362D1*
X2889101Y2774384D1*
X2885566Y2773681D1*
X2881987Y2773257D1*
X2878386Y2773116D1*
X2874785Y2773257D1*
X2871205Y2773681D1*
X2867671Y2774384D1*
X2864202Y2775362D1*
X2860821Y2776610D1*
X2857548Y2778119D1*
X2854403Y2779880D1*
X2851406Y2781882D1*
X2848576Y2784113D1*
X2845930Y2786560D1*
X2843483Y2789206D1*
X2841252Y2792036D1*
X2839250Y2795033D1*
X2837489Y2798178D1*
X2835980Y2801451D1*
X2834732Y2804832D1*
X2833754Y2808301D1*
X2833051Y2811835D1*
X2832627Y2815414D1*
X2832486Y2819016D1*
X2832627Y2822617D1*
X2833051Y2826196D1*
X2833754Y2829731D1*
X2834732Y2833200D1*
X2835980Y2836581D1*
X2837489Y2839854D1*
X2839250Y2842998D1*
X2841252Y2845995D1*
X2843483Y2848825D1*
X2845930Y2851472D1*
X2848576Y2853918D1*
X2851406Y2856150D1*
X2854403Y2858152D1*
X2857548Y2859913D1*
X2860821Y2861422D1*
X2864202Y2862669D1*
X2867671Y2863648D1*
X2871205Y2864351D1*
X2874785Y2864774D1*
X2878386Y2864916D1*
X2881987Y2864774D1*
X2885566Y2864351D1*
X2889101Y2863648D1*
X2892570Y2862669D1*
X2895951Y2861422D1*
X2899224Y2859913D1*
X2902369Y2858152D1*
X2905365Y2856150D1*
X2908195Y2853918D1*
X2910842Y2851472D1*
X2913288Y2848825D1*
X2915520Y2845995D1*
X2917522Y2842998D1*
X2919283Y2839854D1*
X2920792Y2836581D1*
X2922039Y2833200D1*
X2923018Y2829731D1*
X2923721Y2826196D1*
X2924144Y2822617D1*
X2924286Y2819016D1*
X2924144Y2815414D1*
X3024144D2*
X3023721Y2811835D1*
X3023018Y2808301D1*
X3022039Y2804832D1*
X3020792Y2801451D1*
X3019283Y2798178D1*
X3017522Y2795033D1*
X3015520Y2792036D1*
X3013288Y2789206D1*
X3010842Y2786560D1*
X3008195Y2784113D1*
X3005365Y2781882D1*
X3002369Y2779880D1*
X2999224Y2778119D1*
X2995951Y2776610D1*
X2992570Y2775362D1*
X2989101Y2774384D1*
X2985566Y2773681D1*
X2981987Y2773257D1*
X2978386Y2773116D1*
X2974785Y2773257D1*
X2971205Y2773681D1*
X2967671Y2774384D1*
X2964202Y2775362D1*
X2960821Y2776610D1*
X2957548Y2778119D1*
X2954403Y2779880D1*
X2951406Y2781882D1*
X2948576Y2784113D1*
X2945930Y2786560D1*
X2943483Y2789206D1*
X2941252Y2792036D1*
X2939250Y2795033D1*
X2937489Y2798178D1*
X2935980Y2801451D1*
X2934732Y2804832D1*
X2933754Y2808301D1*
X2933051Y2811835D1*
X2932627Y2815414D1*
X2932486Y2819016D1*
X2932627Y2822617D1*
X2933051Y2826196D1*
X2933754Y2829731D1*
X2934732Y2833200D1*
X2935980Y2836581D1*
X2937489Y2839854D1*
X2939250Y2842998D1*
X2941252Y2845995D1*
X2943483Y2848825D1*
X2945930Y2851472D1*
X2948576Y2853918D1*
X2951406Y2856150D1*
X2954403Y2858152D1*
X2957548Y2859913D1*
X2960821Y2861422D1*
X2964202Y2862669D1*
X2967671Y2863648D1*
X2971205Y2864351D1*
X2974785Y2864774D1*
X2978386Y2864916D1*
X2981987Y2864774D1*
X2985566Y2864351D1*
X2989101Y2863648D1*
X2992570Y2862669D1*
X2995951Y2861422D1*
X2999224Y2859913D1*
X3002369Y2858152D1*
X3005365Y2856150D1*
X3008195Y2853918D1*
X3010842Y2851472D1*
X3013288Y2848825D1*
X3015520Y2845995D1*
X3017522Y2842998D1*
X3019283Y2839854D1*
X3020792Y2836581D1*
X3022039Y2833200D1*
X3023018Y2829731D1*
X3023721Y2826196D1*
X3024144Y2822617D1*
X3024286Y2819016D1*
X3024144Y2815414D1*
X3324144D2*
X3323721Y2811835D1*
X3323018Y2808301D1*
X3322039Y2804832D1*
X3320792Y2801451D1*
X3319283Y2798178D1*
X3317522Y2795033D1*
X3315520Y2792036D1*
X3313288Y2789206D1*
X3310842Y2786560D1*
X3308195Y2784113D1*
X3305365Y2781882D1*
X3302369Y2779880D1*
X3299224Y2778119D1*
X3295951Y2776610D1*
X3292570Y2775362D1*
X3289101Y2774384D1*
X3285566Y2773681D1*
X3281987Y2773257D1*
X3278386Y2773116D1*
X3274785Y2773257D1*
X3271205Y2773681D1*
X3267671Y2774384D1*
X3264202Y2775362D1*
X3260821Y2776610D1*
X3257548Y2778119D1*
X3254403Y2779880D1*
X3251406Y2781882D1*
X3248576Y2784113D1*
X3245930Y2786560D1*
X3243483Y2789206D1*
X3241252Y2792036D1*
X3239250Y2795033D1*
X3237489Y2798178D1*
X3235980Y2801451D1*
X3234732Y2804832D1*
X3233754Y2808301D1*
X3233051Y2811835D1*
X3232627Y2815414D1*
X3232486Y2819016D1*
X3232627Y2822617D1*
X3233051Y2826196D1*
X3233754Y2829731D1*
X3234732Y2833200D1*
X3235980Y2836581D1*
X3237489Y2839854D1*
X3239250Y2842998D1*
X3241252Y2845995D1*
X3243483Y2848825D1*
X3245930Y2851472D1*
X3248576Y2853918D1*
X3251406Y2856150D1*
X3254403Y2858152D1*
X3257548Y2859913D1*
X3260821Y2861422D1*
X3264202Y2862669D1*
X3267671Y2863648D1*
X3271205Y2864351D1*
X3274785Y2864774D1*
X3278386Y2864916D1*
X3281987Y2864774D1*
X3285566Y2864351D1*
X3289101Y2863648D1*
X3292570Y2862669D1*
X3295951Y2861422D1*
X3299224Y2859913D1*
X3302369Y2858152D1*
X3305365Y2856150D1*
X3308195Y2853918D1*
X3310842Y2851472D1*
X3313288Y2848825D1*
X3315520Y2845995D1*
X3317522Y2842998D1*
X3319283Y2839854D1*
X3320792Y2836581D1*
X3322039Y2833200D1*
X3323018Y2829731D1*
X3323721Y2826196D1*
X3324144Y2822617D1*
X3324286Y2819016D1*
X3324144Y2815414D1*
X2924144Y2690414D2*
X2923721Y2686835D1*
X2923018Y2683301D1*
X2922039Y2679832D1*
X2920792Y2676451D1*
X2919283Y2673178D1*
X2917522Y2670033D1*
X2915520Y2667036D1*
X2913288Y2664206D1*
X2910842Y2661560D1*
X2908195Y2659113D1*
X2905365Y2656882D1*
X2902369Y2654880D1*
X2899224Y2653119D1*
X2895951Y2651610D1*
X2892570Y2650362D1*
X2889101Y2649384D1*
X2885566Y2648681D1*
X2881987Y2648257D1*
X2878386Y2648116D1*
X2874785Y2648257D1*
X2871205Y2648681D1*
X2867671Y2649384D1*
X2864202Y2650362D1*
X2860821Y2651610D1*
X2857548Y2653119D1*
X2854403Y2654880D1*
X2851406Y2656882D1*
X2848576Y2659113D1*
X2845930Y2661560D1*
X2843483Y2664206D1*
X2841252Y2667036D1*
X2839250Y2670033D1*
X2837489Y2673178D1*
X2835980Y2676451D1*
X2834732Y2679832D1*
X2833754Y2683301D1*
X2833051Y2686835D1*
X2832627Y2690414D1*
X2832486Y2694016D1*
X2832627Y2697617D1*
X2833051Y2701196D1*
X2833754Y2704731D1*
X2834732Y2708200D1*
X2835980Y2711581D1*
X2837489Y2714854D1*
X2839250Y2717998D1*
X2841252Y2720995D1*
X2843483Y2723825D1*
X2845930Y2726472D1*
X2848576Y2728918D1*
X2851406Y2731150D1*
X2854403Y2733152D1*
X2857548Y2734913D1*
X2860821Y2736422D1*
X2864202Y2737669D1*
X2867671Y2738648D1*
X2871205Y2739351D1*
X2874785Y2739774D1*
X2878386Y2739916D1*
X2881987Y2739774D1*
X2885566Y2739351D1*
X2889101Y2738648D1*
X2892570Y2737669D1*
X2895951Y2736422D1*
X2899224Y2734913D1*
X2902369Y2733152D1*
X2905365Y2731150D1*
X2908195Y2728918D1*
X2910842Y2726472D1*
X2913288Y2723825D1*
X2915520Y2720995D1*
X2917522Y2717998D1*
X2919283Y2714854D1*
X2920792Y2711581D1*
X2922039Y2708200D1*
X2923018Y2704731D1*
X2923721Y2701196D1*
X2924144Y2697617D1*
X2924286Y2694016D1*
X2924144Y2690414D1*
X2824144D2*
X2823721Y2686835D1*
X2823018Y2683301D1*
X2822039Y2679832D1*
X2820792Y2676451D1*
X2819283Y2673178D1*
X2817522Y2670033D1*
X2815520Y2667036D1*
X2813288Y2664206D1*
X2810842Y2661560D1*
X2808195Y2659113D1*
X2805365Y2656882D1*
X2802369Y2654880D1*
X2799224Y2653119D1*
X2795951Y2651610D1*
X2792570Y2650362D1*
X2789101Y2649384D1*
X2785566Y2648681D1*
X2781987Y2648257D1*
X2778386Y2648116D1*
X2774785Y2648257D1*
X2771205Y2648681D1*
X2767671Y2649384D1*
X2764202Y2650362D1*
X2760821Y2651610D1*
X2757548Y2653119D1*
X2754403Y2654880D1*
X2751406Y2656882D1*
X2748576Y2659113D1*
X2745930Y2661560D1*
X2743483Y2664206D1*
X2741252Y2667036D1*
X2739250Y2670033D1*
X2737489Y2673178D1*
X2735980Y2676451D1*
X2734732Y2679832D1*
X2733754Y2683301D1*
X2733051Y2686835D1*
X2732627Y2690414D1*
X2732486Y2694016D1*
X2732627Y2697617D1*
X2733051Y2701196D1*
X2733754Y2704731D1*
X2734732Y2708200D1*
X2735980Y2711581D1*
X2737489Y2714854D1*
X2739250Y2717998D1*
X2741252Y2720995D1*
X2743483Y2723825D1*
X2745930Y2726472D1*
X2748576Y2728918D1*
X2751406Y2731150D1*
X2754403Y2733152D1*
X2757548Y2734913D1*
X2760821Y2736422D1*
X2764202Y2737669D1*
X2767671Y2738648D1*
X2771205Y2739351D1*
X2774785Y2739774D1*
X2778386Y2739916D1*
X2781987Y2739774D1*
X2785566Y2739351D1*
X2789101Y2738648D1*
X2792570Y2737669D1*
X2795951Y2736422D1*
X2799224Y2734913D1*
X2802369Y2733152D1*
X2805365Y2731150D1*
X2808195Y2728918D1*
X2810842Y2726472D1*
X2813288Y2723825D1*
X2815520Y2720995D1*
X2817522Y2717998D1*
X2819283Y2714854D1*
X2820792Y2711581D1*
X2822039Y2708200D1*
X2823018Y2704731D1*
X2823721Y2701196D1*
X2824144Y2697617D1*
X2824286Y2694016D1*
X2824144Y2690414D1*
X2724144Y2190414D2*
X2723721Y2186835D1*
X2723018Y2183301D1*
X2722039Y2179832D1*
X2720792Y2176451D1*
X2719283Y2173178D1*
X2717522Y2170033D1*
X2715520Y2167036D1*
X2713288Y2164206D1*
X2710842Y2161560D1*
X2708195Y2159113D1*
X2705365Y2156882D1*
X2702369Y2154880D1*
X2699224Y2153119D1*
X2695951Y2151610D1*
X2692570Y2150362D1*
X2689101Y2149384D1*
X2685566Y2148681D1*
X2681987Y2148257D1*
X2678386Y2148116D1*
X2674785Y2148257D1*
X2671205Y2148681D1*
X2667671Y2149384D1*
X2664202Y2150362D1*
X2660821Y2151610D1*
X2657548Y2153119D1*
X2654403Y2154880D1*
X2651406Y2156882D1*
X2648576Y2159113D1*
X2645930Y2161560D1*
X2643483Y2164206D1*
X2641252Y2167036D1*
X2639250Y2170033D1*
X2637489Y2173178D1*
X2635980Y2176451D1*
X2634732Y2179832D1*
X2633754Y2183301D1*
X2633051Y2186835D1*
X2632627Y2190414D1*
X2632486Y2194016D1*
X2632627Y2197617D1*
X2633051Y2201196D1*
X2633754Y2204731D1*
X2634732Y2208200D1*
X2635980Y2211581D1*
X2637489Y2214854D1*
X2639250Y2217998D1*
X2641252Y2220995D1*
X2643483Y2223825D1*
X2645930Y2226472D1*
X2648576Y2228918D1*
X2651406Y2231150D1*
X2654403Y2233152D1*
X2657548Y2234913D1*
X2660821Y2236422D1*
X2664202Y2237669D1*
X2667671Y2238648D1*
X2671205Y2239351D1*
X2674785Y2239774D1*
X2678386Y2239916D1*
X2681987Y2239774D1*
X2685566Y2239351D1*
X2689101Y2238648D1*
X2692570Y2237669D1*
X2695951Y2236422D1*
X2699224Y2234913D1*
X2702369Y2233152D1*
X2705365Y2231150D1*
X2708195Y2228918D1*
X2710842Y2226472D1*
X2713288Y2223825D1*
X2715520Y2220995D1*
X2717522Y2217998D1*
X2719283Y2214854D1*
X2720792Y2211581D1*
X2722039Y2208200D1*
X2723018Y2204731D1*
X2723721Y2201196D1*
X2724144Y2197617D1*
X2724286Y2194016D1*
X2724144Y2190414D1*
X3324144D2*
X3323721Y2186835D1*
X3323018Y2183301D1*
X3322039Y2179832D1*
X3320792Y2176451D1*
X3319283Y2173178D1*
X3317522Y2170033D1*
X3315520Y2167036D1*
X3313288Y2164206D1*
X3310842Y2161560D1*
X3308195Y2159113D1*
X3305365Y2156882D1*
X3302369Y2154880D1*
X3299224Y2153119D1*
X3295951Y2151610D1*
X3292570Y2150362D1*
X3289101Y2149384D1*
X3285566Y2148681D1*
X3281987Y2148257D1*
X3278386Y2148116D1*
X3274785Y2148257D1*
X3271205Y2148681D1*
X3267671Y2149384D1*
X3264202Y2150362D1*
X3260821Y2151610D1*
X3257548Y2153119D1*
X3254403Y2154880D1*
X3251406Y2156882D1*
X3248576Y2159113D1*
X3245930Y2161560D1*
X3243483Y2164206D1*
X3241252Y2167036D1*
X3239250Y2170033D1*
X3237489Y2173178D1*
X3235980Y2176451D1*
X3234732Y2179832D1*
X3233754Y2183301D1*
X3233051Y2186835D1*
X3232627Y2190414D1*
X3232486Y2194016D1*
X3232627Y2197617D1*
X3233051Y2201196D1*
X3233754Y2204731D1*
X3234732Y2208200D1*
X3235980Y2211581D1*
X3237489Y2214854D1*
X3239250Y2217998D1*
X3241252Y2220995D1*
X3243483Y2223825D1*
X3245930Y2226472D1*
X3248576Y2228918D1*
X3251406Y2231150D1*
X3254403Y2233152D1*
X3257548Y2234913D1*
X3260821Y2236422D1*
X3264202Y2237669D1*
X3267671Y2238648D1*
X3271205Y2239351D1*
X3274785Y2239774D1*
X3278386Y2239916D1*
X3281987Y2239774D1*
X3285566Y2239351D1*
X3289101Y2238648D1*
X3292570Y2237669D1*
X3295951Y2236422D1*
X3299224Y2234913D1*
X3302369Y2233152D1*
X3305365Y2231150D1*
X3308195Y2228918D1*
X3310842Y2226472D1*
X3313288Y2223825D1*
X3315520Y2220995D1*
X3317522Y2217998D1*
X3319283Y2214854D1*
X3320792Y2211581D1*
X3322039Y2208200D1*
X3323018Y2204731D1*
X3323721Y2201196D1*
X3324144Y2197617D1*
X3324286Y2194016D1*
X3324144Y2190414D1*
X717035Y3146436D2*
X716625Y3142973D1*
X715944Y3139553D1*
X714998Y3136196D1*
X713791Y3132924D1*
X712331Y3129757D1*
X710627Y3126714D1*
X708689Y3123814D1*
X706530Y3121076D1*
X704163Y3118515D1*
X701602Y3116147D1*
X698863Y3113988D1*
X695963Y3112051D1*
X692920Y3110347D1*
X689753Y3108886D1*
X686481Y3107679D1*
X683125Y3106733D1*
X679704Y3106052D1*
X676241Y3105642D1*
X672756Y3105506D1*
X669271Y3105642D1*
X665808Y3106052D1*
X662387Y3106733D1*
X659031Y3107679D1*
X655759Y3108886D1*
X652592Y3110347D1*
X649549Y3112051D1*
X646649Y3113988D1*
X643910Y3116147D1*
X641349Y3118515D1*
X638982Y3121076D1*
X636823Y3123814D1*
X634885Y3126714D1*
X633181Y3129757D1*
X631721Y3132924D1*
X630514Y3136196D1*
X629567Y3139553D1*
X628887Y3142973D1*
X628477Y3146436D1*
X628340Y3149921D1*
X628477Y3153406D1*
X628887Y3156869D1*
X629567Y3160290D1*
X630514Y3163646D1*
X631721Y3166918D1*
X633181Y3170086D1*
X634885Y3173128D1*
X636823Y3176028D1*
X638982Y3178767D1*
X641349Y3181328D1*
X643910Y3183695D1*
X646649Y3185854D1*
X649549Y3187792D1*
X652592Y3189496D1*
X655759Y3190956D1*
X659031Y3192163D1*
X662387Y3193110D1*
X665808Y3193790D1*
X669271Y3194200D1*
X672756Y3194337D1*
X676241Y3194200D1*
X679704Y3193790D1*
X683125Y3193110D1*
X686481Y3192163D1*
X689753Y3190956D1*
X692920Y3189496D1*
X695963Y3187792D1*
X698863Y3185854D1*
X701602Y3183695D1*
X704163Y3181328D1*
X706530Y3178767D1*
X708689Y3176028D1*
X710627Y3173128D1*
X712331Y3170086D1*
X713791Y3166918D1*
X714998Y3163646D1*
X715944Y3160290D1*
X716625Y3156869D1*
X717035Y3153406D1*
X717172Y3149921D1*
X717035Y3146436D1*
X817035D2*
X816625Y3142973D1*
X815944Y3139553D1*
X814998Y3136196D1*
X813791Y3132924D1*
X812331Y3129757D1*
X810627Y3126714D1*
X808689Y3123814D1*
X806530Y3121076D1*
X804163Y3118515D1*
X801602Y3116147D1*
X798863Y3113988D1*
X795963Y3112051D1*
X792920Y3110347D1*
X789753Y3108886D1*
X786481Y3107679D1*
X783125Y3106733D1*
X779704Y3106052D1*
X776241Y3105642D1*
X772756Y3105506D1*
X769271Y3105642D1*
X765808Y3106052D1*
X762387Y3106733D1*
X759031Y3107679D1*
X755759Y3108886D1*
X752592Y3110347D1*
X749549Y3112051D1*
X746649Y3113988D1*
X743910Y3116147D1*
X741349Y3118515D1*
X738982Y3121076D1*
X736823Y3123814D1*
X734885Y3126714D1*
X733181Y3129757D1*
X731721Y3132924D1*
X730514Y3136196D1*
X729567Y3139553D1*
X728887Y3142973D1*
X728477Y3146436D1*
X728340Y3149921D1*
X728477Y3153406D1*
X728887Y3156869D1*
X729567Y3160290D1*
X730514Y3163646D1*
X731721Y3166918D1*
X733181Y3170086D1*
X734885Y3173128D1*
X736823Y3176028D1*
X738982Y3178767D1*
X741349Y3181328D1*
X743910Y3183695D1*
X746649Y3185854D1*
X749549Y3187792D1*
X752592Y3189496D1*
X755759Y3190956D1*
X759031Y3192163D1*
X762387Y3193110D1*
X765808Y3193790D1*
X769271Y3194200D1*
X772756Y3194337D1*
X776241Y3194200D1*
X779704Y3193790D1*
X783125Y3193110D1*
X786481Y3192163D1*
X789753Y3190956D1*
X792920Y3189496D1*
X795963Y3187792D1*
X798863Y3185854D1*
X801602Y3183695D1*
X804163Y3181328D1*
X806530Y3178767D1*
X808689Y3176028D1*
X810627Y3173128D1*
X812331Y3170086D1*
X813791Y3166918D1*
X814998Y3163646D1*
X815944Y3160290D1*
X816625Y3156869D1*
X817035Y3153406D1*
X817172Y3149921D1*
X817035Y3146436D1*
X1319013Y3146281D2*
X1318585Y3142663D1*
X1317874Y3139089D1*
X1316885Y3135583D1*
X1315624Y3132165D1*
X1314099Y3128856D1*
X1312318Y3125677D1*
X1310294Y3122648D1*
X1308039Y3119787D1*
X1305566Y3117112D1*
X1302890Y3114638D1*
X1300029Y3112383D1*
X1297000Y3110359D1*
X1293821Y3108579D1*
X1290512Y3107053D1*
X1287094Y3105792D1*
X1283588Y3104803D1*
X1280014Y3104093D1*
X1276396Y3103664D1*
X1272756Y3103521D1*
X1269115Y3103664D1*
X1265497Y3104093D1*
X1261924Y3104803D1*
X1258418Y3105792D1*
X1254999Y3107053D1*
X1251691Y3108579D1*
X1248512Y3110359D1*
X1245483Y3112383D1*
X1242622Y3114638D1*
X1239946Y3117112D1*
X1237473Y3119787D1*
X1235218Y3122648D1*
X1233193Y3125677D1*
X1231413Y3128856D1*
X1229888Y3132165D1*
X1228627Y3135583D1*
X1227638Y3139089D1*
X1226927Y3142663D1*
X1226499Y3146281D1*
X1226356Y3149921D1*
X1226499Y3153562D1*
X1226927Y3157180D1*
X1227638Y3160753D1*
X1228627Y3164260D1*
X1229888Y3167678D1*
X1231413Y3170986D1*
X1233193Y3174165D1*
X1235218Y3177194D1*
X1237473Y3180056D1*
X1239946Y3182731D1*
X1242622Y3185204D1*
X1245483Y3187460D1*
X1248512Y3189484D1*
X1251691Y3191264D1*
X1254999Y3192789D1*
X1258418Y3194050D1*
X1261924Y3195039D1*
X1265497Y3195750D1*
X1269115Y3196178D1*
X1272756Y3196321D1*
X1276396Y3196178D1*
X1280014Y3195750D1*
X1283588Y3195039D1*
X1287094Y3194050D1*
X1290512Y3192789D1*
X1293821Y3191264D1*
X1297000Y3189484D1*
X1300029Y3187460D1*
X1302890Y3185204D1*
X1305566Y3182731D1*
X1308039Y3180056D1*
X1310294Y3177194D1*
X1312318Y3174165D1*
X1314099Y3170986D1*
X1315624Y3167678D1*
X1316885Y3164260D1*
X1317874Y3160753D1*
X1318585Y3157180D1*
X1319013Y3153562D1*
X1319156Y3149921D1*
X1319013Y3146281D1*
X617035Y2246436D2*
X616625Y2242973D1*
X615944Y2239553D1*
X614998Y2236196D1*
X613791Y2232924D1*
X612331Y2229757D1*
X610627Y2226714D1*
X608689Y2223814D1*
X606530Y2221076D1*
X604163Y2218515D1*
X601602Y2216147D1*
X598863Y2213988D1*
X595963Y2212051D1*
X592920Y2210347D1*
X589753Y2208886D1*
X586481Y2207679D1*
X583125Y2206733D1*
X579704Y2206052D1*
X576241Y2205642D1*
X572756Y2205506D1*
X569271Y2205642D1*
X565808Y2206052D1*
X562387Y2206733D1*
X559031Y2207679D1*
X555759Y2208886D1*
X552592Y2210347D1*
X549549Y2212051D1*
X546649Y2213988D1*
X543910Y2216147D1*
X541349Y2218515D1*
X538982Y2221076D1*
X536823Y2223814D1*
X534885Y2226714D1*
X533181Y2229757D1*
X531721Y2232924D1*
X530514Y2236196D1*
X529567Y2239553D1*
X528887Y2242973D1*
X528477Y2246436D1*
X528340Y2249921D1*
X528477Y2253406D1*
X528887Y2256869D1*
X529567Y2260290D1*
X530514Y2263646D1*
X531721Y2266918D1*
X533181Y2270086D1*
X534885Y2273128D1*
X536823Y2276028D1*
X538982Y2278767D1*
X541349Y2281328D1*
X543910Y2283695D1*
X546649Y2285854D1*
X549549Y2287792D1*
X552592Y2289496D1*
X555759Y2290956D1*
X559031Y2292163D1*
X562387Y2293110D1*
X565808Y2293790D1*
X569271Y2294200D1*
X572756Y2294337D1*
X576241Y2294200D1*
X579704Y2293790D1*
X583125Y2293110D1*
X586481Y2292163D1*
X589753Y2290956D1*
X592920Y2289496D1*
X595963Y2287792D1*
X598863Y2285854D1*
X601602Y2283695D1*
X604163Y2281328D1*
X606530Y2278767D1*
X608689Y2276028D1*
X610627Y2273128D1*
X612331Y2270086D1*
X613791Y2266918D1*
X614998Y2263646D1*
X615944Y2260290D1*
X616625Y2256869D1*
X617035Y2253406D1*
X617172Y2249921D1*
X617035Y2246436D1*
X717035D2*
X716625Y2242973D1*
X715944Y2239553D1*
X714998Y2236196D1*
X713791Y2232924D1*
X712331Y2229757D1*
X710627Y2226714D1*
X708689Y2223814D1*
X706530Y2221076D1*
X704163Y2218515D1*
X701602Y2216147D1*
X698863Y2213988D1*
X695963Y2212051D1*
X692920Y2210347D1*
X689753Y2208886D1*
X686481Y2207679D1*
X683125Y2206733D1*
X679704Y2206052D1*
X676241Y2205642D1*
X672756Y2205506D1*
X669271Y2205642D1*
X665808Y2206052D1*
X662387Y2206733D1*
X659031Y2207679D1*
X655759Y2208886D1*
X652592Y2210347D1*
X649549Y2212051D1*
X646649Y2213988D1*
X643910Y2216147D1*
X641349Y2218515D1*
X638982Y2221076D1*
X636823Y2223814D1*
X634885Y2226714D1*
X633181Y2229757D1*
X631721Y2232924D1*
X630514Y2236196D1*
X629567Y2239553D1*
X628887Y2242973D1*
X628477Y2246436D1*
X628340Y2249921D1*
X628477Y2253406D1*
X628887Y2256869D1*
X629567Y2260290D1*
X630514Y2263646D1*
X631721Y2266918D1*
X633181Y2270086D1*
X634885Y2273128D1*
X636823Y2276028D1*
X638982Y2278767D1*
X641349Y2281328D1*
X643910Y2283695D1*
X646649Y2285854D1*
X649549Y2287792D1*
X652592Y2289496D1*
X655759Y2290956D1*
X659031Y2292163D1*
X662387Y2293110D1*
X665808Y2293790D1*
X669271Y2294200D1*
X672756Y2294337D1*
X676241Y2294200D1*
X679704Y2293790D1*
X683125Y2293110D1*
X686481Y2292163D1*
X689753Y2290956D1*
X692920Y2289496D1*
X695963Y2287792D1*
X698863Y2285854D1*
X701602Y2283695D1*
X704163Y2281328D1*
X706530Y2278767D1*
X708689Y2276028D1*
X710627Y2273128D1*
X712331Y2270086D1*
X713791Y2266918D1*
X714998Y2263646D1*
X715944Y2260290D1*
X716625Y2256869D1*
X717035Y2253406D1*
X717172Y2249921D1*
X717035Y2246436D1*
X817035D2*
X816625Y2242973D1*
X815944Y2239553D1*
X814998Y2236196D1*
X813791Y2232924D1*
X812331Y2229757D1*
X810627Y2226714D1*
X808689Y2223814D1*
X806530Y2221076D1*
X804163Y2218515D1*
X801602Y2216147D1*
X798863Y2213988D1*
X795963Y2212051D1*
X792920Y2210347D1*
X789753Y2208886D1*
X786481Y2207679D1*
X783125Y2206733D1*
X779704Y2206052D1*
X776241Y2205642D1*
X772756Y2205506D1*
X769271Y2205642D1*
X765808Y2206052D1*
X762387Y2206733D1*
X759031Y2207679D1*
X755759Y2208886D1*
X752592Y2210347D1*
X749549Y2212051D1*
X746649Y2213988D1*
X743910Y2216147D1*
X741349Y2218515D1*
X738982Y2221076D1*
X736823Y2223814D1*
X734885Y2226714D1*
X733181Y2229757D1*
X731721Y2232924D1*
X730514Y2236196D1*
X729567Y2239553D1*
X728887Y2242973D1*
X728477Y2246436D1*
X728340Y2249921D1*
X728477Y2253406D1*
X728887Y2256869D1*
X729567Y2260290D1*
X730514Y2263646D1*
X731721Y2266918D1*
X733181Y2270086D1*
X734885Y2273128D1*
X736823Y2276028D1*
X738982Y2278767D1*
X741349Y2281328D1*
X743910Y2283695D1*
X746649Y2285854D1*
X749549Y2287792D1*
X752592Y2289496D1*
X755759Y2290956D1*
X759031Y2292163D1*
X762387Y2293110D1*
X765808Y2293790D1*
X769271Y2294200D1*
X772756Y2294337D1*
X776241Y2294200D1*
X779704Y2293790D1*
X783125Y2293110D1*
X786481Y2292163D1*
X789753Y2290956D1*
X792920Y2289496D1*
X795963Y2287792D1*
X798863Y2285854D1*
X801602Y2283695D1*
X804163Y2281328D1*
X806530Y2278767D1*
X808689Y2276028D1*
X810627Y2273128D1*
X812331Y2270086D1*
X813791Y2266918D1*
X814998Y2263646D1*
X815944Y2260290D1*
X816625Y2256869D1*
X817035Y2253406D1*
X817172Y2249921D1*
X817035Y2246436D1*
X1017035D2*
X1016625Y2242973D1*
X1015944Y2239553D1*
X1014998Y2236196D1*
X1013791Y2232924D1*
X1012331Y2229757D1*
X1010627Y2226714D1*
X1008689Y2223814D1*
X1006530Y2221076D1*
X1004163Y2218515D1*
X1001602Y2216147D1*
X998863Y2213988D1*
X995963Y2212051D1*
X992920Y2210347D1*
X989753Y2208886D1*
X986481Y2207679D1*
X983125Y2206733D1*
X979704Y2206052D1*
X976241Y2205642D1*
X972756Y2205506D1*
X969271Y2205642D1*
X965808Y2206052D1*
X962387Y2206733D1*
X959031Y2207679D1*
X955759Y2208886D1*
X952592Y2210347D1*
X949549Y2212051D1*
X946649Y2213988D1*
X943910Y2216147D1*
X941349Y2218515D1*
X938982Y2221076D1*
X936823Y2223814D1*
X934885Y2226714D1*
X933181Y2229757D1*
X931721Y2232924D1*
X930514Y2236196D1*
X929567Y2239553D1*
X928887Y2242973D1*
X928477Y2246436D1*
X928340Y2249921D1*
X928477Y2253406D1*
X928887Y2256869D1*
X929567Y2260290D1*
X930514Y2263646D1*
X931721Y2266918D1*
X933181Y2270086D1*
X934885Y2273128D1*
X936823Y2276028D1*
X938982Y2278767D1*
X941349Y2281328D1*
X943910Y2283695D1*
X946649Y2285854D1*
X949549Y2287792D1*
X952592Y2289496D1*
X955759Y2290956D1*
X959031Y2292163D1*
X962387Y2293110D1*
X965808Y2293790D1*
X969271Y2294200D1*
X972756Y2294337D1*
X976241Y2294200D1*
X979704Y2293790D1*
X983125Y2293110D1*
X986481Y2292163D1*
X989753Y2290956D1*
X992920Y2289496D1*
X995963Y2287792D1*
X998863Y2285854D1*
X1001602Y2283695D1*
X1004163Y2281328D1*
X1006530Y2278767D1*
X1008689Y2276028D1*
X1010627Y2273128D1*
X1012331Y2270086D1*
X1013791Y2266918D1*
X1014998Y2263646D1*
X1015944Y2260290D1*
X1016625Y2256869D1*
X1017035Y2253406D1*
X1017172Y2249921D1*
X1017035Y2246436D1*
X1119013Y2246281D2*
X1118585Y2242663D1*
X1117874Y2239089D1*
X1116885Y2235583D1*
X1115777Y2232579D1*
X1928304Y1420069D1*
X1933386Y1420416D1*
X1939080Y1419968D1*
X1944634Y1418634D1*
X1949911Y1416448D1*
X1954781Y1413464D1*
X1959125Y1409754D1*
X1962834Y1405411D1*
X1965818Y1400541D1*
X1968004Y1395264D1*
X1969338Y1389710D1*
X1969786Y1384016D1*
X1969338Y1378322D1*
X1968004Y1372768D1*
X1965818Y1367490D1*
X1962834Y1362620D1*
X1959125Y1358277D1*
X1954781Y1354568D1*
X1949911Y1351583D1*
X1944634Y1349397D1*
X1939080Y1348064D1*
X1933386Y1347616D1*
X1927692Y1348064D1*
X1922138Y1349397D1*
X1916861Y1351583D1*
X1911990Y1354568D1*
X1907647Y1358277D1*
X1903938Y1362620D1*
X1900953Y1367490D1*
X1898767Y1372768D1*
X1897434Y1378322D1*
X1896986Y1384016D1*
X1897359Y1389078D1*
X1081981Y2204449D1*
X1076396Y2203664D1*
X1072756Y2203521D1*
X1069115Y2203664D1*
X1065497Y2204093D1*
X1061924Y2204803D1*
X1058418Y2205792D1*
X1054999Y2207053D1*
X1051691Y2208579D1*
X1048512Y2210359D1*
X1045483Y2212383D1*
X1042622Y2214638D1*
X1039946Y2217112D1*
X1037473Y2219787D1*
X1035218Y2222648D1*
X1033193Y2225677D1*
X1031413Y2228856D1*
X1029888Y2232165D1*
X1028627Y2235583D1*
X1027638Y2239089D1*
X1026927Y2242663D1*
X1026499Y2246281D1*
X1026356Y2249921D1*
X1026499Y2253562D1*
X1026927Y2257180D1*
X1027638Y2260753D1*
X1028627Y2264260D1*
X1029888Y2267678D1*
X1031413Y2270986D1*
X1033193Y2274165D1*
X1035218Y2277194D1*
X1037473Y2280056D1*
X1039946Y2282731D1*
X1042622Y2285204D1*
X1045483Y2287460D1*
X1048512Y2289484D1*
X1051691Y2291264D1*
X1054999Y2292789D1*
X1058418Y2294050D1*
X1061924Y2295039D1*
X1065497Y2295750D1*
X1069115Y2296178D1*
X1072756Y2296321D1*
X1076396Y2296178D1*
X1080014Y2295750D1*
X1083588Y2295039D1*
X1087094Y2294050D1*
X1090512Y2292789D1*
X1093821Y2291264D1*
X1097000Y2289484D1*
X1100029Y2287460D1*
X1102890Y2285204D1*
X1105566Y2282731D1*
X1108039Y2280056D1*
X1110294Y2277194D1*
X1112318Y2274165D1*
X1114099Y2270986D1*
X1115624Y2267678D1*
X1116885Y2264260D1*
X1117874Y2260753D1*
X1118585Y2257180D1*
X1119013Y2253562D1*
X1119156Y2249921D1*
X1119013Y2246281D1*
X1217035Y2246436D2*
X1216625Y2242973D1*
X1215944Y2239553D1*
X1214998Y2236196D1*
X1213791Y2232924D1*
X1212331Y2229757D1*
X1210627Y2226714D1*
X1208689Y2223814D1*
X1206530Y2221076D1*
X1204163Y2218515D1*
X1201602Y2216147D1*
X1198863Y2213988D1*
X1195963Y2212051D1*
X1192920Y2210347D1*
X1189753Y2208886D1*
X1186481Y2207679D1*
X1183125Y2206733D1*
X1179704Y2206052D1*
X1176241Y2205642D1*
X1172756Y2205506D1*
X1169271Y2205642D1*
X1165808Y2206052D1*
X1162387Y2206733D1*
X1159031Y2207679D1*
X1155759Y2208886D1*
X1152592Y2210347D1*
X1149549Y2212051D1*
X1146649Y2213988D1*
X1143910Y2216147D1*
X1141349Y2218515D1*
X1138982Y2221076D1*
X1136823Y2223814D1*
X1134885Y2226714D1*
X1133181Y2229757D1*
X1131721Y2232924D1*
X1130514Y2236196D1*
X1129567Y2239553D1*
X1128887Y2242973D1*
X1128477Y2246436D1*
X1128340Y2249921D1*
X1128477Y2253406D1*
X1128887Y2256869D1*
X1129567Y2260290D1*
X1130514Y2263646D1*
X1131721Y2266918D1*
X1133181Y2270086D1*
X1134885Y2273128D1*
X1136823Y2276028D1*
X1138982Y2278767D1*
X1141349Y2281328D1*
X1143910Y2283695D1*
X1146649Y2285854D1*
X1149549Y2287792D1*
X1152592Y2289496D1*
X1155759Y2290956D1*
X1159031Y2292163D1*
X1162387Y2293110D1*
X1165808Y2293790D1*
X1169271Y2294200D1*
X1172756Y2294337D1*
X1176241Y2294200D1*
X1179704Y2293790D1*
X1183125Y2293110D1*
X1186481Y2292163D1*
X1189753Y2290956D1*
X1192920Y2289496D1*
X1195963Y2287792D1*
X1198863Y2285854D1*
X1201602Y2283695D1*
X1204163Y2281328D1*
X1206530Y2278767D1*
X1208689Y2276028D1*
X1210627Y2273128D1*
X1212331Y2270086D1*
X1213791Y2266918D1*
X1214998Y2263646D1*
X1215944Y2260290D1*
X1216625Y2256869D1*
X1217035Y2253406D1*
X1217172Y2249921D1*
X1217035Y2246436D1*
X1319013Y2246281D2*
X1318585Y2242663D1*
X1317874Y2239089D1*
X1316885Y2235583D1*
X1315624Y2232165D1*
X1314099Y2228856D1*
X1312318Y2225677D1*
X1310294Y2222648D1*
X1308039Y2219787D1*
X1305566Y2217112D1*
X1302890Y2214638D1*
X1300029Y2212383D1*
X1297000Y2210359D1*
X1293821Y2208579D1*
X1290512Y2207053D1*
X1287094Y2205792D1*
X1283588Y2204803D1*
X1280014Y2204093D1*
X1276396Y2203664D1*
X1272756Y2203521D1*
X1269115Y2203664D1*
X1265497Y2204093D1*
X1261924Y2204803D1*
X1258418Y2205792D1*
X1254999Y2207053D1*
X1251691Y2208579D1*
X1248512Y2210359D1*
X1245483Y2212383D1*
X1242622Y2214638D1*
X1239946Y2217112D1*
X1237473Y2219787D1*
X1235218Y2222648D1*
X1233193Y2225677D1*
X1231413Y2228856D1*
X1229888Y2232165D1*
X1228627Y2235583D1*
X1227638Y2239089D1*
X1226927Y2242663D1*
X1226499Y2246281D1*
X1226356Y2249921D1*
X1226499Y2253562D1*
X1226927Y2257180D1*
X1227638Y2260753D1*
X1228627Y2264260D1*
X1229888Y2267678D1*
X1231413Y2270986D1*
X1233193Y2274165D1*
X1235218Y2277194D1*
X1237473Y2280056D1*
X1239946Y2282731D1*
X1242622Y2285204D1*
X1245483Y2287460D1*
X1248512Y2289484D1*
X1251691Y2291264D1*
X1254999Y2292789D1*
X1258418Y2294050D1*
X1261924Y2295039D1*
X1265497Y2295750D1*
X1269115Y2296178D1*
X1272756Y2296321D1*
X1276396Y2296178D1*
X1280014Y2295750D1*
X1283588Y2295039D1*
X1287094Y2294050D1*
X1290512Y2292789D1*
X1293821Y2291264D1*
X1297000Y2289484D1*
X1300029Y2287460D1*
X1302890Y2285204D1*
X1305566Y2282731D1*
X1308039Y2280056D1*
X1310294Y2277194D1*
X1312318Y2274165D1*
X1314099Y2270986D1*
X1315624Y2267678D1*
X1316885Y2264260D1*
X1317874Y2260753D1*
X1318585Y2257180D1*
X1319013Y2253562D1*
X1319156Y2249921D1*
X1319013Y2246281D1*
X1419013D2*
X1418585Y2242663D1*
X1417874Y2239089D1*
X1416885Y2235583D1*
X1415624Y2232165D1*
X1414099Y2228856D1*
X1412318Y2225677D1*
X1410294Y2222648D1*
X1408039Y2219787D1*
X1405566Y2217112D1*
X1402890Y2214638D1*
X1400029Y2212383D1*
X1397000Y2210359D1*
X1393821Y2208579D1*
X1390512Y2207053D1*
X1387094Y2205792D1*
X1383588Y2204803D1*
X1380014Y2204093D1*
X1376396Y2203664D1*
X1372756Y2203521D1*
X1369115Y2203664D1*
X1365497Y2204093D1*
X1361924Y2204803D1*
X1358418Y2205792D1*
X1354999Y2207053D1*
X1351691Y2208579D1*
X1348512Y2210359D1*
X1345483Y2212383D1*
X1342622Y2214638D1*
X1339946Y2217112D1*
X1337473Y2219787D1*
X1335218Y2222648D1*
X1333193Y2225677D1*
X1331413Y2228856D1*
X1329888Y2232165D1*
X1328627Y2235583D1*
X1327638Y2239089D1*
X1326927Y2242663D1*
X1326499Y2246281D1*
X1326356Y2249921D1*
X1326499Y2253562D1*
X1326927Y2257180D1*
X1327638Y2260753D1*
X1328627Y2264260D1*
X1329888Y2267678D1*
X1331413Y2270986D1*
X1333193Y2274165D1*
X1335218Y2277194D1*
X1337473Y2280056D1*
X1339946Y2282731D1*
X1342622Y2285204D1*
X1345483Y2287460D1*
X1348512Y2289484D1*
X1351691Y2291264D1*
X1354999Y2292789D1*
X1358418Y2294050D1*
X1361924Y2295039D1*
X1365497Y2295750D1*
X1369115Y2296178D1*
X1372756Y2296321D1*
X1376396Y2296178D1*
X1380014Y2295750D1*
X1383588Y2295039D1*
X1387094Y2294050D1*
X1390512Y2292789D1*
X1393821Y2291264D1*
X1397000Y2289484D1*
X1400029Y2287460D1*
X1402890Y2285204D1*
X1405566Y2282731D1*
X1408039Y2280056D1*
X1410294Y2277194D1*
X1412318Y2274165D1*
X1414099Y2270986D1*
X1415624Y2267678D1*
X1416885Y2264260D1*
X1417874Y2260753D1*
X1418585Y2257180D1*
X1419013Y2253562D1*
X1419156Y2249921D1*
X1419013Y2246281D1*
X1519013D2*
X1518585Y2242663D1*
X1517874Y2239089D1*
X1516885Y2235583D1*
X1515624Y2232165D1*
X1514099Y2228856D1*
X1512318Y2225677D1*
X1510294Y2222648D1*
X1508039Y2219787D1*
X1505566Y2217112D1*
X1502890Y2214638D1*
X1500029Y2212383D1*
X1497000Y2210359D1*
X1493821Y2208579D1*
X1490512Y2207053D1*
X1487094Y2205792D1*
X1483588Y2204803D1*
X1480014Y2204093D1*
X1476396Y2203664D1*
X1472756Y2203521D1*
X1469115Y2203664D1*
X1465497Y2204093D1*
X1461924Y2204803D1*
X1458418Y2205792D1*
X1454999Y2207053D1*
X1451691Y2208579D1*
X1448512Y2210359D1*
X1445483Y2212383D1*
X1442622Y2214638D1*
X1439946Y2217112D1*
X1437473Y2219787D1*
X1435218Y2222648D1*
X1433193Y2225677D1*
X1431413Y2228856D1*
X1429888Y2232165D1*
X1428627Y2235583D1*
X1427638Y2239089D1*
X1426927Y2242663D1*
X1426499Y2246281D1*
X1426356Y2249921D1*
X1426499Y2253562D1*
X1426927Y2257180D1*
X1427638Y2260753D1*
X1428627Y2264260D1*
X1429888Y2267678D1*
X1431413Y2270986D1*
X1433193Y2274165D1*
X1435218Y2277194D1*
X1437473Y2280056D1*
X1439946Y2282731D1*
X1442622Y2285204D1*
X1445483Y2287460D1*
X1448512Y2289484D1*
X1451691Y2291264D1*
X1454999Y2292789D1*
X1458418Y2294050D1*
X1461924Y2295039D1*
X1465497Y2295750D1*
X1469115Y2296178D1*
X1472756Y2296321D1*
X1476396Y2296178D1*
X1480014Y2295750D1*
X1483588Y2295039D1*
X1487094Y2294050D1*
X1490512Y2292789D1*
X1493821Y2291264D1*
X1497000Y2289484D1*
X1500029Y2287460D1*
X1502890Y2285204D1*
X1505566Y2282731D1*
X1508039Y2280056D1*
X1510294Y2277194D1*
X1512318Y2274165D1*
X1514099Y2270986D1*
X1515624Y2267678D1*
X1516885Y2264260D1*
X1517874Y2260753D1*
X1518585Y2257180D1*
X1519013Y2253562D1*
X1519156Y2249921D1*
X1519013Y2246281D1*
X1619013D2*
X1618585Y2242663D1*
X1617874Y2239089D1*
X1616885Y2235583D1*
X1615624Y2232165D1*
X1614099Y2228856D1*
X1612318Y2225677D1*
X1610294Y2222648D1*
X1608039Y2219787D1*
X1605566Y2217112D1*
X1602890Y2214638D1*
X1600029Y2212383D1*
X1597000Y2210359D1*
X1593821Y2208579D1*
X1590512Y2207053D1*
X1587094Y2205792D1*
X1583588Y2204803D1*
X1580014Y2204093D1*
X1576396Y2203664D1*
X1572756Y2203521D1*
X1569115Y2203664D1*
X1565497Y2204093D1*
X1561924Y2204803D1*
X1558418Y2205792D1*
X1554999Y2207053D1*
X1551691Y2208579D1*
X1548512Y2210359D1*
X1545483Y2212383D1*
X1542622Y2214638D1*
X1539946Y2217112D1*
X1537473Y2219787D1*
X1535218Y2222648D1*
X1533193Y2225677D1*
X1531413Y2228856D1*
X1529888Y2232165D1*
X1528627Y2235583D1*
X1527638Y2239089D1*
X1526927Y2242663D1*
X1526499Y2246281D1*
X1526356Y2249921D1*
X1526499Y2253562D1*
X1526927Y2257180D1*
X1527638Y2260753D1*
X1528627Y2264260D1*
X1529888Y2267678D1*
X1531413Y2270986D1*
X1533193Y2274165D1*
X1535218Y2277194D1*
X1537473Y2280056D1*
X1539946Y2282731D1*
X1542622Y2285204D1*
X1545483Y2287460D1*
X1548512Y2289484D1*
X1551691Y2291264D1*
X1554999Y2292789D1*
X1558418Y2294050D1*
X1561924Y2295039D1*
X1565497Y2295750D1*
X1569115Y2296178D1*
X1572756Y2296321D1*
X1576396Y2296178D1*
X1580014Y2295750D1*
X1583588Y2295039D1*
X1587094Y2294050D1*
X1590512Y2292789D1*
X1593821Y2291264D1*
X1597000Y2289484D1*
X1600029Y2287460D1*
X1602890Y2285204D1*
X1605566Y2282731D1*
X1608039Y2280056D1*
X1610294Y2277194D1*
X1612318Y2274165D1*
X1614099Y2270986D1*
X1615624Y2267678D1*
X1616885Y2264260D1*
X1617874Y2260753D1*
X1618585Y2257180D1*
X1619013Y2253562D1*
X1619156Y2249921D1*
X1619013Y2246281D1*
X1817035Y2246436D2*
X1816625Y2242973D1*
X1815944Y2239553D1*
X1814998Y2236196D1*
X1813791Y2232924D1*
X1812331Y2229757D1*
X1810627Y2226714D1*
X1808689Y2223814D1*
X1806530Y2221076D1*
X1804163Y2218515D1*
X1801602Y2216147D1*
X1798863Y2213988D1*
X1795963Y2212051D1*
X1792920Y2210347D1*
X1789753Y2208886D1*
X1786481Y2207679D1*
X1783125Y2206733D1*
X1779704Y2206052D1*
X1776241Y2205642D1*
X1772756Y2205506D1*
X1769271Y2205642D1*
X1765808Y2206052D1*
X1762387Y2206733D1*
X1759031Y2207679D1*
X1755759Y2208886D1*
X1752592Y2210347D1*
X1749549Y2212051D1*
X1746649Y2213988D1*
X1743910Y2216147D1*
X1741349Y2218515D1*
X1738982Y2221076D1*
X1736823Y2223814D1*
X1734885Y2226714D1*
X1733181Y2229757D1*
X1731721Y2232924D1*
X1730514Y2236196D1*
X1729567Y2239553D1*
X1728887Y2242973D1*
X1728477Y2246436D1*
X1728340Y2249921D1*
X1728477Y2253406D1*
X1728887Y2256869D1*
X1729567Y2260290D1*
X1730514Y2263646D1*
X1731721Y2266918D1*
X1733181Y2270086D1*
X1734885Y2273128D1*
X1736823Y2276028D1*
X1738982Y2278767D1*
X1741349Y2281328D1*
X1743910Y2283695D1*
X1746649Y2285854D1*
X1749549Y2287792D1*
X1752592Y2289496D1*
X1755759Y2290956D1*
X1759031Y2292163D1*
X1762387Y2293110D1*
X1765808Y2293790D1*
X1769271Y2294200D1*
X1772756Y2294337D1*
X1776241Y2294200D1*
X1779704Y2293790D1*
X1783125Y2293110D1*
X1786481Y2292163D1*
X1789753Y2290956D1*
X1792920Y2289496D1*
X1795963Y2287792D1*
X1798863Y2285854D1*
X1801602Y2283695D1*
X1804163Y2281328D1*
X1806530Y2278767D1*
X1808689Y2276028D1*
X1810627Y2273128D1*
X1812331Y2270086D1*
X1813791Y2266918D1*
X1814998Y2263646D1*
X1815944Y2260290D1*
X1816625Y2256869D1*
X1817035Y2253406D1*
X1817172Y2249921D1*
X1817035Y2246436D1*
X1917035D2*
X1916625Y2242973D1*
X1915944Y2239553D1*
X1914998Y2236196D1*
X1913791Y2232924D1*
X1912331Y2229757D1*
X1910627Y2226714D1*
X1908689Y2223814D1*
X1906530Y2221076D1*
X1904163Y2218515D1*
X1901602Y2216147D1*
X1898863Y2213988D1*
X1895963Y2212051D1*
X1892920Y2210347D1*
X1889753Y2208886D1*
X1886481Y2207679D1*
X1883125Y2206733D1*
X1879704Y2206052D1*
X1876241Y2205642D1*
X1872756Y2205506D1*
X1869271Y2205642D1*
X1865808Y2206052D1*
X1862387Y2206733D1*
X1859031Y2207679D1*
X1855759Y2208886D1*
X1852592Y2210347D1*
X1849549Y2212051D1*
X1846649Y2213988D1*
X1843910Y2216147D1*
X1841349Y2218515D1*
X1838982Y2221076D1*
X1836823Y2223814D1*
X1834885Y2226714D1*
X1833181Y2229757D1*
X1831721Y2232924D1*
X1830514Y2236196D1*
X1829567Y2239553D1*
X1828887Y2242973D1*
X1828477Y2246436D1*
X1828340Y2249921D1*
X1828477Y2253406D1*
X1828887Y2256869D1*
X1829567Y2260290D1*
X1830514Y2263646D1*
X1831721Y2266918D1*
X1833181Y2270086D1*
X1834885Y2273128D1*
X1836823Y2276028D1*
X1838982Y2278767D1*
X1841349Y2281328D1*
X1843910Y2283695D1*
X1846649Y2285854D1*
X1849549Y2287792D1*
X1852592Y2289496D1*
X1855759Y2290956D1*
X1859031Y2292163D1*
X1862387Y2293110D1*
X1865808Y2293790D1*
X1869271Y2294200D1*
X1872756Y2294337D1*
X1876241Y2294200D1*
X1879704Y2293790D1*
X1883125Y2293110D1*
X1886481Y2292163D1*
X1889753Y2290956D1*
X1892920Y2289496D1*
X1895963Y2287792D1*
X1898863Y2285854D1*
X1901602Y2283695D1*
X1904163Y2281328D1*
X1906530Y2278767D1*
X1908689Y2276028D1*
X1910627Y2273128D1*
X1912331Y2270086D1*
X1913791Y2266918D1*
X1914998Y2263646D1*
X1915944Y2260290D1*
X1916625Y2256869D1*
X1917035Y2253406D1*
X1917172Y2249921D1*
X1917035Y2246436D1*
X2017035D2*
X2016625Y2242973D1*
X2015944Y2239553D1*
X2014998Y2236196D1*
X2013791Y2232924D1*
X2012331Y2229757D1*
X2010627Y2226714D1*
X2008689Y2223814D1*
X2006530Y2221076D1*
X2004163Y2218515D1*
X2001602Y2216147D1*
X1998863Y2213988D1*
X1995963Y2212051D1*
X1992920Y2210347D1*
X1989753Y2208886D1*
X1986481Y2207679D1*
X1983125Y2206733D1*
X1979704Y2206052D1*
X1976241Y2205642D1*
X1972756Y2205506D1*
X1969271Y2205642D1*
X1965808Y2206052D1*
X1962387Y2206733D1*
X1959031Y2207679D1*
X1955759Y2208886D1*
X1952592Y2210347D1*
X1949549Y2212051D1*
X1946649Y2213988D1*
X1943910Y2216147D1*
X1941349Y2218515D1*
X1938982Y2221076D1*
X1936823Y2223814D1*
X1934885Y2226714D1*
X1933181Y2229757D1*
X1931721Y2232924D1*
X1930514Y2236196D1*
X1929567Y2239553D1*
X1928887Y2242973D1*
X1928477Y2246436D1*
X1928340Y2249921D1*
X1928477Y2253406D1*
X1928887Y2256869D1*
X1929567Y2260290D1*
X1930514Y2263646D1*
X1931721Y2266918D1*
X1933181Y2270086D1*
X1934885Y2273128D1*
X1936823Y2276028D1*
X1938982Y2278767D1*
X1941349Y2281328D1*
X1943910Y2283695D1*
X1946649Y2285854D1*
X1949549Y2287792D1*
X1952592Y2289496D1*
X1955759Y2290956D1*
X1959031Y2292163D1*
X1962387Y2293110D1*
X1965808Y2293790D1*
X1969271Y2294200D1*
X1972756Y2294337D1*
X1976241Y2294200D1*
X1979704Y2293790D1*
X1983125Y2293110D1*
X1986481Y2292163D1*
X1989753Y2290956D1*
X1992920Y2289496D1*
X1995963Y2287792D1*
X1998863Y2285854D1*
X2001602Y2283695D1*
X2004163Y2281328D1*
X2006530Y2278767D1*
X2008689Y2276028D1*
X2010627Y2273128D1*
X2012331Y2270086D1*
X2013791Y2266918D1*
X2014998Y2263646D1*
X2015944Y2260290D1*
X2016625Y2256869D1*
X2017035Y2253406D1*
X2017172Y2249921D1*
X2017035Y2246436D1*
X2117035D2*
X2116625Y2242973D1*
X2115944Y2239553D1*
X2114998Y2236196D1*
X2113791Y2232924D1*
X2112331Y2229757D1*
X2110627Y2226714D1*
X2108689Y2223814D1*
X2106530Y2221076D1*
X2104163Y2218515D1*
X2101602Y2216147D1*
X2098863Y2213988D1*
X2095963Y2212051D1*
X2092920Y2210347D1*
X2089753Y2208886D1*
X2086481Y2207679D1*
X2083125Y2206733D1*
X2079704Y2206052D1*
X2076241Y2205642D1*
X2072756Y2205506D1*
X2069271Y2205642D1*
X2065808Y2206052D1*
X2062387Y2206733D1*
X2059031Y2207679D1*
X2055759Y2208886D1*
X2052592Y2210347D1*
X2049549Y2212051D1*
X2046649Y2213988D1*
X2043910Y2216147D1*
X2041349Y2218515D1*
X2038982Y2221076D1*
X2036823Y2223814D1*
X2034885Y2226714D1*
X2033181Y2229757D1*
X2031721Y2232924D1*
X2030514Y2236196D1*
X2029567Y2239553D1*
X2028887Y2242973D1*
X2028477Y2246436D1*
X2028340Y2249921D1*
X2028477Y2253406D1*
X2028887Y2256869D1*
X2029567Y2260290D1*
X2030514Y2263646D1*
X2031721Y2266918D1*
X2033181Y2270086D1*
X2034885Y2273128D1*
X2036823Y2276028D1*
X2038982Y2278767D1*
X2041349Y2281328D1*
X2043910Y2283695D1*
X2046649Y2285854D1*
X2049549Y2287792D1*
X2052592Y2289496D1*
X2055759Y2290956D1*
X2059031Y2292163D1*
X2062387Y2293110D1*
X2065808Y2293790D1*
X2069271Y2294200D1*
X2072756Y2294337D1*
X2076241Y2294200D1*
X2079704Y2293790D1*
X2083125Y2293110D1*
X2086481Y2292163D1*
X2089753Y2290956D1*
X2092920Y2289496D1*
X2095963Y2287792D1*
X2098863Y2285854D1*
X2101602Y2283695D1*
X2104163Y2281328D1*
X2106530Y2278767D1*
X2108689Y2276028D1*
X2110627Y2273128D1*
X2112331Y2270086D1*
X2113791Y2266918D1*
X2114998Y2263646D1*
X2115944Y2260290D1*
X2116625Y2256869D1*
X2117035Y2253406D1*
X2117172Y2249921D1*
X2117035Y2246436D1*
X2219013Y2246281D2*
X2218585Y2242663D1*
X2217874Y2239089D1*
X2216885Y2235583D1*
X2215624Y2232165D1*
X2214099Y2228856D1*
X2212318Y2225677D1*
X2210294Y2222648D1*
X2208039Y2219787D1*
X2205566Y2217112D1*
X2202890Y2214638D1*
X2200029Y2212383D1*
X2197000Y2210359D1*
X2193821Y2208579D1*
X2190512Y2207053D1*
X2187094Y2205792D1*
X2183588Y2204803D1*
X2180014Y2204093D1*
X2176396Y2203664D1*
X2172756Y2203521D1*
X2169115Y2203664D1*
X2165497Y2204093D1*
X2161924Y2204803D1*
X2158418Y2205792D1*
X2154999Y2207053D1*
X2151691Y2208579D1*
X2148512Y2210359D1*
X2145483Y2212383D1*
X2142622Y2214638D1*
X2139946Y2217112D1*
X2137473Y2219787D1*
X2135218Y2222648D1*
X2133193Y2225677D1*
X2131413Y2228856D1*
X2129888Y2232165D1*
X2128627Y2235583D1*
X2127638Y2239089D1*
X2126927Y2242663D1*
X2126499Y2246281D1*
X2126356Y2249921D1*
X2126499Y2253562D1*
X2126927Y2257180D1*
X2127638Y2260753D1*
X2128627Y2264260D1*
X2129888Y2267678D1*
X2131413Y2270986D1*
X2133193Y2274165D1*
X2135218Y2277194D1*
X2137473Y2280056D1*
X2139946Y2282731D1*
X2142622Y2285204D1*
X2145483Y2287460D1*
X2150859Y2290798D1*
X2150856Y2305566D1*
X2094307Y2362123D1*
X1811668Y2362183D1*
X1808273Y2362721D1*
X1805005Y2363783D1*
X1801943Y2365343D1*
X1799163Y2367363D1*
X1783758Y2382672D1*
X1684307Y2482123D1*
X1351668Y2482183D1*
X1348273Y2482721D1*
X1345005Y2483783D1*
X1341943Y2485343D1*
X1339163Y2487363D1*
X1323758Y2502672D1*
X1234306Y2592124D1*
X1144896Y2592183D1*
X1141502Y2592721D1*
X1138233Y2593783D1*
X1135171Y2595343D1*
X1132391Y2597363D1*
X1116986Y2612672D1*
X1085070Y2644589D1*
X1080000Y2644230D1*
X1074306Y2644678D1*
X1068752Y2646011D1*
X1063475Y2648197D1*
X1058605Y2651182D1*
X1054261Y2654891D1*
X1050552Y2659235D1*
X1047567Y2664105D1*
X1045382Y2669382D1*
X1044048Y2674936D1*
X1043600Y2680630D1*
X1044048Y2686324D1*
X1045382Y2691878D1*
X1047567Y2697155D1*
X1050552Y2702025D1*
X1054261Y2706369D1*
X1058605Y2710078D1*
X1063475Y2713063D1*
X1068752Y2715248D1*
X1074306Y2716582D1*
X1080000Y2717030D1*
X1085694Y2716582D1*
X1091248Y2715248D1*
X1096525Y2713063D1*
X1101395Y2710078D1*
X1105739Y2706369D1*
X1109448Y2702025D1*
X1112433Y2697155D1*
X1114618Y2691878D1*
X1115952Y2686324D1*
X1116400Y2680630D1*
X1116027Y2675568D1*
X1155686Y2635915D1*
X1245104Y2635848D1*
X1248498Y2635311D1*
X1251767Y2634249D1*
X1254829Y2632689D1*
X1257609Y2630669D1*
X1273014Y2615359D1*
X1362465Y2525908D1*
X1695104Y2525848D1*
X1698498Y2525311D1*
X1701767Y2524249D1*
X1704829Y2522689D1*
X1707609Y2520669D1*
X1723014Y2505359D1*
X1822464Y2405909D1*
X2105104Y2405848D1*
X2108498Y2405311D1*
X2111767Y2404249D1*
X2114829Y2402689D1*
X2117609Y2400669D1*
X2133014Y2385359D1*
X2189409Y2328869D1*
X2191429Y2326088D1*
X2192989Y2323026D1*
X2194051Y2319758D1*
X2194589Y2316364D1*
X2194656Y2290837D1*
X2200029Y2287460D1*
X2202890Y2285204D1*
X2205566Y2282731D1*
X2208039Y2280056D1*
X2210294Y2277194D1*
X2212318Y2274165D1*
X2214099Y2270986D1*
X2215624Y2267678D1*
X2216885Y2264260D1*
X2217874Y2260753D1*
X2218585Y2257180D1*
X2219013Y2253562D1*
X2219156Y2249921D1*
X2219013Y2246281D1*
X1598634Y1555042D2*
X1619853Y1420384D1*
Y1414892D1*
X1617966Y1402286D1*
X1597316Y1272599D1*
X1595619Y1267376D1*
X1589928Y1255970D1*
X1530214Y1139012D1*
X1526986Y1134569D1*
X1518049Y1125480D1*
X1425116Y1032699D1*
X1420673Y1029471D1*
X1409365Y1023588D1*
X1292309Y964066D1*
X1287086Y962369D1*
X1274513Y960269D1*
X1144793Y939832D1*
X1139301D1*
X1126695Y941720D1*
X997009Y962369D1*
X991786Y964066D1*
X980380Y969757D1*
X863422Y1029471D1*
X858979Y1032699D1*
X849889Y1041636D1*
X757109Y1134569D1*
X753880Y1139012D1*
X747998Y1150320D1*
X688476Y1267376D1*
X686779Y1272599D1*
X684678Y1285172D1*
X664242Y1414892D1*
Y1420384D1*
X666129Y1432990D1*
X686779Y1562676D1*
X688476Y1567900D1*
X694166Y1579305D1*
X753880Y1696263D1*
X757109Y1700706D1*
X766045Y1709796D1*
X858979Y1802577D1*
X863422Y1805805D1*
X874730Y1811687D1*
X991786Y1871209D1*
X997009Y1872906D1*
X1009581Y1875007D1*
X1139301Y1895443D1*
X1144793D1*
X1157399Y1893556D1*
X1287086Y1872906D1*
X1292309Y1871209D1*
X1303715Y1865519D1*
X1420673Y1805805D1*
X1425116Y1802577D1*
X1434205Y1793640D1*
X1526986Y1700707D1*
X1530214Y1696263D1*
X1536097Y1684955D1*
X1595619Y1567900D1*
X1597316Y1562676D1*
X1598634Y1555042D1*
X1594463Y1570405D2*
X1596570Y1565321D1*
X1597852Y1559981D1*
X1619523Y1423154D1*
X3603533Y1561000D2*
X3605217Y1555761D1*
X3607275Y1543181D1*
X3627417Y1413185D1*
D25*
X3504252Y3189291D3*
X3740472D3*
D26*
X3622362Y3374331D3*
D27*
X3743386Y2244016D3*
D28*
X3643386D3*
X3543386D3*
D27*
X2770640Y581496D3*
D28*
X2670640D3*
X2570640D3*
D29*
X2163386Y2054016D3*
D30*
Y1954016D3*
Y1854016D3*
Y1754016D3*
D29*
X2165669Y1235748D3*
D30*
Y1335748D3*
Y1435748D3*
Y1535748D3*
D31*
X630236Y1929449D3*
Y905827D3*
X1653858Y1929449D3*
X1142047Y590866D3*
X3661732Y905827D3*
X2638110Y1929449D3*
X3661732D3*
X3149921Y590866D3*
D32*
X3593386Y2734016D3*
D33*
Y2634016D3*
Y2534016D3*
D34*
X1426199Y2794803D3*
D35*
Y2594803D3*
Y2394803D3*
D34*
X2345984Y760157D3*
D35*
X2145984D3*
X1945984D3*
D36*
X3278386Y3319016D3*
D37*
X3178386D3*
X3078386D3*
X2978386D3*
X2878386D3*
X2778386D3*
X2678386D3*
X2578386D3*
Y2819016D3*
X2678386D3*
X2778386D3*
X2878386D3*
X2978386D3*
X3078386D3*
X3178386D3*
X3278386D3*
D36*
Y2694016D3*
D37*
X3178386D3*
X3078386D3*
X2978386D3*
X2878386D3*
X2778386D3*
X2678386D3*
X2578386D3*
Y2194016D3*
X2678386D3*
X2778386D3*
X2878386D3*
X2978386D3*
X3078386D3*
X3178386D3*
X3278386D3*
D38*
X472756Y3149921D3*
X572756D3*
X672756D3*
X772756D3*
X872756D3*
X972756D3*
X1072756D3*
X1172756D3*
X1272756D3*
X1372756D3*
X1472756D3*
X1572756D3*
X1672756D3*
X1772756D3*
X1872756D3*
X1972756D3*
X2072756D3*
X2172756D3*
X2272756D3*
X472756Y2249921D3*
X572756D3*
X672756D3*
X772756D3*
X872756D3*
X972756D3*
X1072756D3*
X1172756D3*
X1272756D3*
X1372756D3*
X1472756D3*
X1572756D3*
X1672756D3*
X1772756D3*
X1872756D3*
X1972756D3*
X2072756D3*
X2172756D3*
X2272756D3*
D31*
X590866Y590866D3*
X3701102D3*
X2401890Y3327087D3*
M02*
