M48
INCH
T01C0.0191
T02C0.035
T03C0.0354
T04C0.0394
T05C0.0433
T06C0.0453
T07C0.0492
T08C0.0827
T09C0.14
%
T04
X+035043Y+031696G85X+035043Y+032090
X+037405Y+031696G85X+037405Y+032090
X+036420Y+033743G85X+036027Y+033743
T05
X+037434Y+022440
X+036434Y+022440
X+035434Y+022440
X+027706Y+005815
X+026706Y+005815
X+025706Y+005815
T03
X+021634Y+020540
X+021634Y+019540
X+021634Y+018540
X+021634Y+017540
X+021657Y+012357
X+021657Y+013357
X+021657Y+014357
X+021657Y+015357
T09
X+006302Y+019294
X+006302Y+009058
X+016539Y+019294
X+011420Y+005909
X+036617Y+009058
X+026381Y+019294
X+036617Y+019294
X+031499Y+005909
T06
X+035934Y+027340
X+035934Y+026340
X+035934Y+025340
T07
X+014262Y+027948
X+014262Y+025948
X+014262Y+023948
T08
X+012569Y+027228
X+012569Y+024669
T07
X+023460Y+007602
X+021460Y+007602
X+019460Y+007602
T08
X+022739Y+005909
X+020180Y+005909
T02
X+032784Y+033190
X+031784Y+033190
X+030784Y+033190
X+029784Y+033190
X+028784Y+033190
X+027784Y+033190
X+026784Y+033190
X+025784Y+033190
X+025784Y+028190
X+026784Y+028190
X+027784Y+028190
X+028784Y+028190
X+029784Y+028190
X+030784Y+028190
X+031784Y+028190
X+032784Y+028190
X+032784Y+026940
X+031784Y+026940
X+030784Y+026940
X+029784Y+026940
X+028784Y+026940
X+027784Y+026940
X+026784Y+026940
X+025784Y+026940
X+025784Y+021940
X+026784Y+021940
X+027784Y+021940
X+028784Y+021940
X+029784Y+021940
X+030784Y+021940
X+031784Y+021940
X+032784Y+021940
X+004728Y+031499
X+005728Y+031499
X+006728Y+031499
X+007728Y+031499
X+008728Y+031499
X+009728Y+031499
X+010728Y+031499
X+011728Y+031499
X+012728Y+031499
X+013728Y+031499
X+014728Y+031499
X+015728Y+031499
X+016728Y+031499
X+017728Y+031499
X+018728Y+031499
X+019728Y+031499
X+020728Y+031499
X+021728Y+031499
X+022728Y+031499
X+004728Y+022499
X+005728Y+022499
X+006728Y+022499
X+007728Y+022499
X+008728Y+022499
X+009728Y+022499
X+010728Y+022499
X+011728Y+022499
X+012728Y+022499
X+013728Y+022499
X+014728Y+022499
X+015728Y+022499
X+016728Y+022499
X+017728Y+022499
X+018728Y+022499
X+019728Y+022499
X+020728Y+022499
X+021728Y+022499
X+022728Y+022499
T04
X+004823Y+028731
X+004823Y+025582
T09
X+005909Y+005909
X+037011Y+005909
X+024019Y+033271
T01
X+029334Y+031440
X+030034Y+031440
X+030634Y+031440
X+030034Y+023740
X+029334Y+023740
X+030734Y+023740
X+005634Y+029440
X+005634Y+024540
X+008734Y+030340
X+009334Y+024040
X+008634Y+028140
X+024034Y+010240
X+019334Y+013840
X+010800Y+026806
T00
M30
