M48
INCH
T01C0.0191
T02C0.035
T03C0.0354
T04C0.0394
T05C0.0433
T06C0.0453
T07C0.0492
T08C0.0827
T09C0.14
%
T01
X+029706Y+031437
X+030406Y+031437
X+031006Y+031437
X+025562Y+031437
X+023187Y+030312
X+023062Y+029687
X+021437Y+029687
X+019937Y+028937
X+019062Y+032687
X+014562Y+029687
X+015937Y+028187
X+011562Y+028937
X+010187Y+028902
X+011062Y+027187
X+010687Y+025812
X+009812Y+026303
X+008437Y+026812
X+008437Y+027562
X+008062Y+029312
X+005506Y+029437
X+007062Y+033062
X+012562Y+032687
X+011062Y+023812
X+010687Y+023437
X+010187Y+023062
X+009812Y+022687
X+009312Y+023562
X+012062Y+023062
X+012812Y+023062
X+013437Y+023062
X+015062Y+021437
X+021562Y+022687
X+025187Y+026937
X+027187Y+024812
X+029706Y+023737
X+030406Y+023737
X+031106Y+023737
X+019062Y+014062
X+005687Y+023562
T02
X+033156Y+033187
X+032156Y+033187
X+031156Y+033187
X+030156Y+033187
X+029156Y+033187
X+028156Y+033187
X+027156Y+033187
X+026156Y+033187
X+022562Y+030937
X+021562Y+030937
X+020562Y+030937
X+019562Y+030937
X+018562Y+030937
X+017562Y+030937
X+016562Y+030937
X+015562Y+030937
X+014562Y+030937
X+013562Y+030937
X+012562Y+030937
X+011562Y+030937
X+010562Y+030937
X+009562Y+030937
X+008562Y+030937
X+007562Y+030937
X+006562Y+030937
X+005562Y+030937
X+004562Y+030937
X+004562Y+021937
X+005562Y+021937
X+006562Y+021937
X+007562Y+021937
X+008562Y+021937
X+009562Y+021937
X+010562Y+021937
X+011562Y+021937
X+012562Y+021937
X+013562Y+021937
X+014562Y+021937
X+015562Y+021937
X+016562Y+021937
X+017562Y+021937
X+018562Y+021937
X+019562Y+021937
X+020562Y+021937
X+021562Y+021937
X+022562Y+021937
X+026156Y+021937
X+027156Y+021937
X+028156Y+021937
X+029156Y+021937
X+030156Y+021937
X+031156Y+021937
X+032156Y+021937
X+033156Y+021937
X+033156Y+026937
X+032156Y+026937
X+031156Y+026937
X+030156Y+026937
X+029156Y+026937
X+028156Y+026937
X+027156Y+026937
X+026156Y+026937
X+026156Y+028187
X+027156Y+028187
X+028156Y+028187
X+029156Y+028187
X+030156Y+028187
X+031156Y+028187
X+032156Y+028187
X+033156Y+028187
T03
X+021631Y+020537
X+021631Y+019537
X+021631Y+018537
X+021631Y+017537
X+021654Y+015354
X+021654Y+014354
X+021654Y+013354
X+021654Y+012354
X+021562Y+031937
X+022562Y+031937
X+020562Y+031937
X+019562Y+031937
X+018562Y+031937
X+017562Y+031937
X+016562Y+031937
X+015562Y+031937
X+014562Y+031937
X+013562Y+031937
X+012562Y+031937
X+011562Y+031937
X+010562Y+031937
X+009562Y+031937
X+008562Y+031937
X+007562Y+031937
X+006562Y+031937
X+005562Y+031937
X+004562Y+031937
T04
X+035039Y+031693G85X+035039Y+032087
X+036417Y+033740G85X+036024Y+033740
X+037402Y+031693G85X+037402Y+032087
X+004695Y+028228
X+004695Y+025079
T05
X+027703Y+005812
X+026703Y+005812
X+025703Y+005812
X+035431Y+022437
X+036431Y+022437
X+037431Y+022437
T06
X+035806Y+027337
X+035806Y+026337
X+035806Y+025337
T07
X+014134Y+027945
X+014134Y+025945
X+014134Y+023945
X+019457Y+007598
X+021457Y+007598
X+023457Y+007598
T08
X+012441Y+027224
X+012441Y+024665
X+020177Y+005906
X+022736Y+005906
T09
X+006299Y+019291
X+006299Y+009055
X+005906Y+005906
X+011417Y+005906
X+016535Y+019291
X+026378Y+019291
X+036614Y+019291
X+036614Y+009055
X+037008Y+005906
X+031496Y+005906
X+023891Y+033268
T00
M30
