G04 DipTrace 3.3.1.3*
G04 Top.gbr*
%MOIN*%
G04 #@! TF.FileFunction,Copper,L1,Top*
G04 #@! TF.Part,Single*
G04 #@! TA.AperFunction,Conductor*
%ADD14C,0.025*%
%ADD15C,0.011*%
%ADD16C,0.02*%
%ADD17C,0.029528*%
%ADD18C,0.03*%
%ADD23R,0.070866X0.062992*%
%ADD25R,0.163386X0.062992*%
G04 #@! TA.AperFunction,ComponentPad*
%ADD26O,0.07874X0.11811*%
%ADD27O,0.11811X0.07874*%
%ADD28R,0.059055X0.059055*%
%ADD29C,0.059055*%
%ADD30R,0.051181X0.027559*%
%ADD31R,0.07874X0.047244*%
%ADD32R,0.055118X0.047244*%
%ADD33R,0.055118X0.031496*%
G04 #@! TA.AperFunction,ComponentPad*
%ADD34R,0.066929X0.066929*%
%ADD35C,0.066929*%
%ADD36C,0.2*%
%ADD37R,0.070866X0.070866*%
%ADD38C,0.070866*%
%ADD39R,0.098425X0.098425*%
%ADD40C,0.098425*%
%ADD41R,0.059X0.059*%
%ADD42C,0.059*%
%ADD43C,0.06*%
G04 #@! TA.AperFunction,ViaPad*
%ADD44C,0.04*%
%FSLAX26Y26*%
G04*
G70*
G90*
G75*
G01*
G04 Top*
%LPD*%
X3743070Y2243700D2*
D14*
Y2371200D1*
X3580570Y2533700D1*
X3453070Y2473700D2*
D15*
X3520570D1*
X3580570Y2533700D1*
X456200Y3093700D2*
Y3193700D1*
D16*
Y3218700D1*
X593700Y3356200D1*
X2181200D1*
X2393700Y3143700D1*
X2556200D1*
X3453070Y2683464D2*
D15*
Y2633700D1*
Y2583936D1*
X3580570Y2633700D2*
X3453070D1*
X2970570Y3143700D2*
Y3143661D1*
X3038998Y3075233D1*
X3040570Y3143700D2*
Y3076805D1*
X3038998Y3075233D1*
X3100570Y3143700D2*
Y3136805D1*
X3038998Y3075233D1*
X3040570Y2373700D2*
Y2443700D1*
X2970570Y2373700D2*
X3040570Y2443700D1*
X3110570Y2373700D2*
X3040570Y2443700D1*
X485216Y2933464D2*
X540334D1*
X550570Y2943700D1*
X485216Y2355511D2*
X568011D1*
X568700Y2356200D1*
X867106Y2355511D2*
X930511D1*
X931200Y2356200D1*
X867106Y2933464D2*
X808464D1*
X806200Y2931200D1*
X900570Y2760235D2*
X847735D1*
X843700Y2756200D1*
X956200Y3093700D2*
Y3193700D1*
X556200Y3093700D2*
Y3193700D1*
X1056200Y3093700D2*
Y3193700D1*
X2306200Y2968700D2*
X2268700Y3006200D1*
X1056200D1*
Y3093700D1*
X2715570Y2818700D2*
Y2788700D1*
X2750570Y2753700D1*
X2955570D1*
X3015570Y2693700D1*
X3010570D1*
X2715570Y2398700D1*
Y2193700D1*
X2256200Y3093700D2*
Y3193700D1*
X3015570Y3318700D2*
Y3315570D1*
X2756200Y3056200D1*
X2343700D1*
X2306200Y3093700D1*
X2256200D1*
Y3193700D2*
X2143700Y3306200D1*
X706200D1*
X843700Y2681200D2*
X892991D1*
X900570Y2673621D1*
X1356200Y3093700D2*
Y3193700D1*
X2318700Y3031200D2*
X1356200D1*
Y3093700D1*
X1256200D2*
Y3193700D1*
X2770325Y581180D2*
Y642075D1*
X2756200Y656200D1*
X2456200D1*
X2431200Y681200D1*
Y881200D1*
X1906200Y1406200D1*
Y3268700D2*
X1256200D1*
X2163070Y2053700D2*
D16*
X2216200D1*
X2349704Y2187204D1*
Y2874015D1*
X2479389Y3003700D1*
X3035570D1*
X3115570Y2923700D1*
Y2818700D1*
X2163070Y1953700D2*
X2178700D1*
X2389074Y2164074D1*
Y2814704D1*
X2538070Y2963700D1*
X3000570D1*
X3015570Y2948700D1*
Y2818700D1*
X2915570D2*
Y2908700D1*
X2900570Y2923700D1*
X2570570D1*
X2431200Y2784330D1*
Y2156200D1*
X2283464Y2008464D1*
Y1978346D1*
X2158818Y1853700D1*
X2163070D1*
X2815570Y2818700D2*
Y2873700D1*
X2580570D1*
X2468700Y2761830D1*
Y2143897D1*
X2318700Y1993897D1*
Y1909330D1*
X2163070Y1753700D1*
X1156200Y3093700D2*
D15*
Y3193700D1*
Y2893700D2*
X1993700D1*
X2718700Y2481200D2*
X2715570Y2484330D1*
Y2693700D1*
X2815570Y3318700D2*
X2915570D1*
X900570Y2890157D2*
X1018700D1*
Y2306200D2*
X1206200D1*
X1456200Y3093700D2*
Y3193700D1*
X2615570Y2693700D2*
X2518700D1*
X2143700Y2968700D2*
X1456200D1*
X856200Y2193700D2*
Y2168700D1*
X881200Y2143700D1*
X1506200D1*
X900570Y2630314D2*
X981200D1*
Y2268700D2*
X2156200D1*
Y3093700D2*
Y3193700D1*
X2056200Y3093700D2*
Y3193700D1*
X1956200Y3093700D2*
Y3193700D1*
X1856200Y3093700D2*
Y3193700D1*
X1756200Y3093700D2*
Y3193700D1*
X1656200Y3093700D2*
Y3193700D1*
X1556200Y3093700D2*
Y3193700D1*
X2815570Y2693700D2*
X2915570D1*
X756200Y3093700D2*
Y3193700D1*
X656200Y3093700D2*
Y3193700D1*
X900570Y2587007D2*
X1074507D1*
X1068700Y2581200D1*
Y2343700D2*
X1243700D1*
X1281200Y2306200D1*
X900570Y2803543D2*
X1141043D1*
X1206200Y2868700D1*
X1543700D1*
X1593700Y2818700D1*
X900570Y2716928D2*
X1104428D1*
X1106200Y2718700D1*
Y2381200D2*
X1268700D1*
X1343700Y2306200D1*
X856200Y3093700D2*
Y3193700D1*
Y3093700D2*
Y3043700D1*
X868700Y3031200D1*
X931200D1*
X1018700Y2943700D1*
X1306200D1*
X1318700Y2931200D1*
X2343700D1*
X2443700Y3031200D1*
X2781200D1*
X2993700Y3243700D1*
X3243700D1*
X3315570Y3315570D1*
Y3318700D1*
X3288602Y2443700D2*
D17*
X3350570D1*
Y2228700D1*
X3315570Y2193700D1*
Y2818700D2*
X3318700D1*
Y3043562D1*
X3287029Y3075233D1*
X3503936Y3188976D2*
D18*
Y2972834D1*
X3580570Y2896200D1*
Y2733700D1*
X3287029Y3075233D2*
X3390193D1*
X3430472Y3115511D1*
X3503936Y3188976D1*
X3288602Y2443700D2*
X3281200D1*
X3381200Y2543700D1*
Y3066239D1*
X3430472Y3115511D1*
X3643070Y2243700D2*
D15*
X3523070Y2363700D1*
X3410570D1*
X3340570Y2433700D1*
X3288602D1*
Y2443700D1*
X3453070Y2793700D2*
X3520570D1*
X3580570Y2733700D1*
D44*
X2556200Y3143700D3*
X2306200Y2968700D3*
X706200Y3306200D3*
X843700Y2681200D3*
X2318700Y3031200D3*
X1906200Y1406200D3*
Y3268700D3*
X1256200D3*
X1156200Y2893700D3*
X1993700D3*
X2718700Y2481200D3*
X1018700Y2890157D3*
Y2306200D3*
X1206200D3*
X2518700Y2693700D3*
X2143700Y2968700D3*
X1456200D3*
X1506200Y2143700D3*
X981200Y2630314D3*
Y2268700D3*
X2156200D3*
X1068700Y2581200D3*
Y2343700D3*
X1281200Y2306200D3*
X1593700Y2818700D3*
X1106200Y2718700D3*
Y2381200D3*
X1343700Y2306200D3*
X2970570Y3143700D3*
X3040570D3*
X3100570D3*
X3040570Y2373700D3*
X2970570D3*
X3110570D3*
X550570Y2943700D3*
X568700Y2356200D3*
X806200Y2931200D3*
X931200Y2356200D3*
X843700Y2756200D3*
D23*
X3453070Y2793700D3*
Y2683464D3*
Y2473700D3*
Y2583936D3*
D25*
X3038998Y3075233D3*
X3287029D3*
X3040570Y2443700D3*
X3288602D3*
D26*
X3503936Y3188976D3*
X3740157D3*
D27*
X3622046Y3374015D3*
D28*
X2163070Y2053700D3*
D29*
Y1953700D3*
Y1853700D3*
Y1753700D3*
D30*
X900570Y2543700D3*
Y2587007D3*
Y2630314D3*
Y2673621D3*
Y2716928D3*
Y2760235D3*
Y2803543D3*
Y2846850D3*
Y2890157D3*
D31*
X485216Y2355511D3*
D32*
X867106D3*
D33*
Y2933464D3*
D31*
X485216D3*
D28*
X2165354Y1235432D3*
D29*
Y1335432D3*
Y1435432D3*
Y1535432D3*
D34*
X2770325Y581180D3*
D35*
X2670325D3*
X2570325D3*
D34*
X3743070Y2243700D3*
D35*
X3643070D3*
X3543070D3*
D28*
X2256200Y3193700D3*
D29*
X2156200D3*
X2056200D3*
X1956200D3*
X1856200D3*
X1756200D3*
X1656200D3*
X1556200D3*
X1456200D3*
X1356200D3*
X1256200D3*
X1156200D3*
X1056200D3*
X956200D3*
X856200D3*
X756200D3*
X656200D3*
X556200D3*
X456200D3*
D36*
X629920Y1929133D3*
Y905511D3*
X1653543Y1929133D3*
X1141731Y590550D3*
X3661417Y905511D3*
X2637794Y1929133D3*
X3661417D3*
X3149606Y590550D3*
X590550D3*
X3700787D3*
X2389074Y3326771D3*
D37*
X3580570Y2733700D3*
D38*
Y2633700D3*
Y2533700D3*
D39*
X1413384Y2794487D3*
D40*
Y2594487D3*
Y2394487D3*
D39*
X2345669Y759842D3*
D40*
X2145669D3*
X1945669D3*
D41*
X3315570Y3318700D3*
D42*
X3215570D3*
X3115570D3*
X3015570D3*
X2915570D3*
X2815570D3*
X2715570D3*
X2615570D3*
Y2818700D3*
X2715570D3*
X2815570D3*
X2915570D3*
X3015570D3*
X3115570D3*
X3215570D3*
X3315570D3*
D41*
Y2693700D3*
D42*
X3215570D3*
X3115570D3*
X3015570D3*
X2915570D3*
X2815570D3*
X2715570D3*
X2615570D3*
Y2193700D3*
X2715570D3*
X2815570D3*
X2915570D3*
X3015570D3*
X3115570D3*
X3215570D3*
X3315570D3*
D43*
X456200Y3093700D3*
X556200D3*
X656200D3*
X756200D3*
X856200D3*
X956200D3*
X1056200D3*
X1156200D3*
X1256200D3*
X1356200D3*
X1456200D3*
X1556200D3*
X1656200D3*
X1756200D3*
X1856200D3*
X1956200D3*
X2056200D3*
X2156200D3*
X2256200D3*
X456200Y2193700D3*
X556200D3*
X656200D3*
X756200D3*
X856200D3*
X956200D3*
X1056200D3*
X1156200D3*
X1256200D3*
X1356200D3*
X1456200D3*
X1556200D3*
X1656200D3*
X1756200D3*
X1856200D3*
X1956200D3*
X2056200D3*
X2156200D3*
X2256200D3*
M02*
