G04 DipTrace 3.3.1.3*
G04 TopSilk.gbr*
%MOIN*%
G04 #@! TF.FileFunction,Legend,Top*
G04 #@! TF.Part,Single*
%ADD10C,0.009843*%
%ADD19C,0.01*%
%ADD22C,0.008*%
%ADD24C,0.031499*%
%ADD97C,0.006176*%
%ADD98C,0.012351*%
%ADD99C,0.010807*%
%FSLAX26Y26*%
G04*
G70*
G90*
G75*
G01*
G04 TopSilk*
%LPD*%
X3421606Y2742913D2*
D10*
X3484535D1*
X3421606Y2750361D2*
X3484535D1*
X3421606D2*
Y2726802D1*
X3484535Y2750361D2*
Y2726802D1*
Y2524487D2*
X3421606D1*
X3484535Y2517039D2*
X3421606D1*
X3484535D2*
Y2540598D1*
X3421606Y2517039D2*
Y2540598D1*
X3283166Y2910233D2*
X2997923D1*
X3328092Y2955113D2*
X3283166Y2910233D1*
Y3240233D2*
X2997923D1*
X3328092Y3195353D2*
X3283166Y3240233D1*
X3328092Y3027977D2*
Y2955113D1*
Y3195353D2*
Y3122489D1*
X2997923Y3027977D2*
Y2910233D1*
Y3240233D2*
Y3122489D1*
D24*
X3359863Y3016196D3*
X3284738Y2278700D2*
D10*
X2999495D1*
X3329665Y2323580D2*
X3284738Y2278700D1*
Y2608700D2*
X2999495D1*
X3329665Y2563820D2*
X3284738Y2608700D1*
X3329665Y2396444D2*
Y2323580D1*
Y2563820D2*
Y2490956D1*
X2999495Y2396444D2*
Y2278700D1*
Y2608700D2*
Y2490956D1*
D24*
X3361435Y2384663D3*
X3698840Y3366161D2*
D10*
X4043306D1*
Y3011818D1*
X4039371D1*
X4043306D2*
X3476372D1*
Y3118113D1*
Y3259826D2*
Y3366161D1*
X3545300D1*
X2113070Y1703700D2*
X2213070D1*
X2113070Y2103700D2*
Y1703700D1*
X2213070Y2103700D2*
Y1703700D1*
X2113070Y2103700D2*
X2213070D1*
X351161Y2933446D2*
X376181Y2908471D1*
X351161Y2983464D2*
X951161D1*
Y2308464D1*
X351161D1*
Y2983464D1*
X376181Y2908471D2*
Y2383456D1*
X351161Y2358481D1*
X376181Y2658451D2*
X551141D1*
X526181Y2708469D1*
X551141Y2658451D2*
X526181Y2608434D1*
X2215354Y1585432D2*
X2115354D1*
X2215354Y1185432D2*
Y1585432D1*
X2115354Y1185432D2*
Y1585432D1*
X2215354Y1185432D2*
X2115354D1*
X2820306Y531175D2*
X2520344D1*
Y631180D1*
X2820306D1*
Y531175D1*
X3793051Y2193695D2*
X3493089D1*
Y2293700D1*
X3793051D1*
Y2193695D1*
X780500Y3143700D2*
X772900D1*
X2232100D2*
X406200D1*
X2306200D2*
X2232100D1*
X2306200Y3243700D2*
Y3143700D1*
Y3243700D2*
X406200D1*
Y3143700D1*
X3836476Y2860078D2*
X3501830D1*
Y2403385D1*
X3836476D1*
Y2860078D1*
X2397637Y393725D2*
X1893700D1*
Y649584D1*
X2397637D1*
Y393725D1*
X2358179Y384850D2*
Y347328D1*
X1958154Y247343D1*
X2320686Y372324D2*
G02X2258147Y372324I-31269J31392D01*
G01*
X2320686D2*
Y384850D1*
X2258147Y372324D2*
Y384850D1*
X3365570Y3368700D2*
X2565570D1*
Y3268680D1*
X3365570D1*
Y3368700D1*
Y2868720D2*
X2565570D1*
Y2768700D1*
X3365570D1*
Y2868720D1*
Y3268680D2*
X2565570D1*
Y2868720D1*
X3365570D1*
Y3268680D1*
Y2743700D2*
X2565570D1*
Y2643680D1*
X3365570D1*
Y2743700D1*
Y2243720D2*
X2565570D1*
Y2143700D1*
X3365570D1*
Y2243720D1*
Y2643680D2*
X2565570D1*
Y2243720D1*
X3365570D1*
Y2643680D1*
X2306217Y3143700D2*
X406200D1*
Y2143700D1*
X2306217D1*
Y3143700D1*
Y3043700D2*
X406200D1*
X2306217Y2243700D2*
X406200D1*
X2306645Y2959800D2*
D3*
X556100Y2793700D2*
X406200D1*
Y2493700D1*
X556100D1*
Y2793700D1*
X2460629Y2106298D2*
D19*
X3838582D1*
Y728346D1*
X2460629D1*
Y2106298D1*
X452755D2*
X1830708D1*
Y728346D1*
X452755D1*
Y2106298D1*
X2116141Y1535432D2*
D22*
X1830708D1*
X2116141Y1437007D2*
X1830708D1*
X2116141Y1338582D2*
X1830708D1*
X2116141Y1230314D2*
X1830708D1*
X2214566Y1751968D2*
X2460629D1*
X2214566Y1850393D2*
X2460629D1*
X2214566Y1948818D2*
X2460629D1*
X2214566Y2057086D2*
X2460629D1*
X3443609Y2866957D2*
D97*
X3439807Y2865056D1*
X3435960Y2861209D1*
X3434059Y2857406D1*
Y2849757D1*
X3435960Y2845910D1*
X3439807Y2842108D1*
X3443609Y2840162D1*
X3449357Y2838261D1*
X3458952D1*
X3464656Y2840162D1*
X3468503Y2842108D1*
X3472305Y2845910D1*
X3474251Y2849757D1*
Y2857406D1*
X3472305Y2861209D1*
X3468503Y2865056D1*
X3464656Y2866957D1*
X3441752Y2879308D2*
X3439807Y2883155D1*
X3434103Y2888903D1*
X3474251D1*
X3443609Y2386093D2*
X3439807Y2384192D1*
X3435960Y2380345D1*
X3434059Y2376543D1*
Y2368893D1*
X3435960Y2365047D1*
X3439807Y2361244D1*
X3443609Y2359299D1*
X3449357Y2357397D1*
X3458952D1*
X3464656Y2359299D1*
X3468503Y2361244D1*
X3472305Y2365047D1*
X3474251Y2368893D1*
Y2376543D1*
X3472305Y2380345D1*
X3468503Y2384192D1*
X3464656Y2386093D1*
X3443653Y2400390D2*
X3441752D1*
X3437905Y2402291D1*
X3436004Y2404193D1*
X3434103Y2408039D1*
Y2415689D1*
X3436004Y2419491D1*
X3437905Y2421392D1*
X3441752Y2423338D1*
X3445555D1*
X3449401Y2421392D1*
X3455105Y2417590D1*
X3474251Y2398444D1*
Y2425239D1*
X2908745Y3220549D2*
X2906844Y3224352D1*
X2902997Y3228199D1*
X2899195Y3230100D1*
X2891545D1*
X2887699Y3228199D1*
X2883896Y3224352D1*
X2881951Y3220549D1*
X2880049Y3214801D1*
Y3205207D1*
X2881951Y3199503D1*
X2883896Y3195656D1*
X2887699Y3191853D1*
X2891545Y3189908D1*
X2899195D1*
X2902997Y3191853D1*
X2906844Y3195656D1*
X2908745Y3199503D1*
X2924943Y3230056D2*
X2945946D1*
X2934494Y3214757D1*
X2940242D1*
X2944045Y3212856D1*
X2945946Y3210955D1*
X2947891Y3205207D1*
Y3201404D1*
X2945946Y3195656D1*
X2942143Y3191809D1*
X2936395Y3189908D1*
X2930647D1*
X2924943Y3191809D1*
X2923042Y3193755D1*
X2921097Y3197557D1*
X2929367Y2552767D2*
X2927466Y2556570D1*
X2923619Y2560417D1*
X2919816Y2562318D1*
X2912167D1*
X2908320Y2560417D1*
X2904518Y2556570D1*
X2902572Y2552767D1*
X2900671Y2547019D1*
Y2537424D1*
X2902572Y2531721D1*
X2904518Y2527874D1*
X2908320Y2524071D1*
X2912167Y2522126D1*
X2919816D1*
X2923619Y2524071D1*
X2927466Y2527874D1*
X2929367Y2531721D1*
X2960864Y2522126D2*
Y2562274D1*
X2941718Y2535523D1*
X2970414D1*
X3416265Y3346987D2*
Y3316390D1*
X3414364Y3310642D1*
X3412419Y3308741D1*
X3408616Y3306795D1*
X3404769D1*
X3400967Y3308741D1*
X3399066Y3310642D1*
X3397120Y3316390D1*
Y3320192D1*
X3428617Y3339294D2*
X3432464Y3341239D1*
X3438212Y3346943D1*
Y3306795D1*
X2145729Y2162704D2*
Y2132106D1*
X2143827Y2126358D1*
X2141882Y2124457D1*
X2138079Y2122512D1*
X2134232D1*
X2130430Y2124457D1*
X2128529Y2126358D1*
X2126583Y2132106D1*
Y2135909D1*
X2160025Y2153109D2*
Y2155010D1*
X2161927Y2158857D1*
X2163828Y2160758D1*
X2167675Y2162659D1*
X2175324D1*
X2179127Y2160758D1*
X2181028Y2158857D1*
X2182973Y2155010D1*
Y2151208D1*
X2181028Y2147361D1*
X2177225Y2141657D1*
X2158080Y2122512D1*
X2184875D1*
X641160Y3042042D2*
Y3011445D1*
X639259Y3005697D1*
X637314Y3003796D1*
X633511Y3001850D1*
X629664D1*
X625862Y3003796D1*
X623960Y3005697D1*
X622015Y3011445D1*
Y3015248D1*
X657358Y3041998D2*
X678361D1*
X666909Y3026699D1*
X672657D1*
X676460Y3024798D1*
X678361Y3022897D1*
X680306Y3017149D1*
Y3013346D1*
X678361Y3007598D1*
X674558Y3003752D1*
X668810Y3001850D1*
X663062D1*
X657358Y3003752D1*
X655457Y3005697D1*
X653512Y3009500D1*
X2155811Y1642147D2*
Y1611550D1*
X2153909Y1605802D1*
X2151964Y1603901D1*
X2148161Y1601955D1*
X2144315D1*
X2140512Y1603901D1*
X2138611Y1605802D1*
X2136665Y1611550D1*
Y1615353D1*
X2187307Y1601955D2*
Y1642103D1*
X2168162Y1615353D1*
X2196858D1*
X2872802Y602268D2*
Y571671D1*
X2870901Y565923D1*
X2868955Y564021D1*
X2865153Y562076D1*
X2861306D1*
X2857503Y564021D1*
X2855602Y565923D1*
X2853657Y571671D1*
Y575473D1*
X2908101Y602224D2*
X2889000D1*
X2887099Y585024D1*
X2889000Y586925D1*
X2894748Y588871D1*
X2900452D1*
X2906200Y586925D1*
X2910047Y583123D1*
X2911948Y577375D1*
Y573572D1*
X2910047Y567824D1*
X2906200Y563977D1*
X2900452Y562076D1*
X2894748D1*
X2889000Y563977D1*
X2887099Y565923D1*
X2885153Y569725D1*
X3427814Y2264788D2*
Y2234190D1*
X3425913Y2228442D1*
X3423967Y2226541D1*
X3420165Y2224596D1*
X3416318D1*
X3412516Y2226541D1*
X3410614Y2228442D1*
X3408669Y2234190D1*
Y2237993D1*
X3463113Y2259040D2*
X3461212Y2262842D1*
X3455464Y2264743D1*
X3451662D1*
X3445914Y2262842D1*
X3442067Y2257094D1*
X3440166Y2247544D1*
Y2237993D1*
X3442067Y2230344D1*
X3445914Y2226497D1*
X3451662Y2224596D1*
X3453563D1*
X3459267Y2226497D1*
X3463113Y2230344D1*
X3465015Y2236092D1*
Y2237993D1*
X3463113Y2243741D1*
X3459267Y2247544D1*
X3453563Y2249445D1*
X3451662D1*
X3445914Y2247544D1*
X3442067Y2243741D1*
X3440166Y2237993D1*
X1346200Y3302278D2*
Y3271681D1*
X1344298Y3265933D1*
X1342353Y3264032D1*
X1338550Y3262086D1*
X1334704D1*
X1330901Y3264032D1*
X1329000Y3265933D1*
X1327054Y3271681D1*
Y3275484D1*
X1366200Y3262086D2*
X1385346Y3302234D1*
X1358551D1*
X1629695Y2047520D2*
Y2087712D1*
X1614396Y2047520D1*
X1599098Y2087712D1*
Y2047520D1*
X1642046Y2087712D2*
Y2047520D1*
X1668841Y2087712D2*
Y2047520D1*
X1642046Y2068566D2*
X1668841D1*
X1685039Y2087667D2*
X1706042D1*
X1694590Y2072369D1*
X1700338D1*
X1704140Y2070467D1*
X1706042Y2068566D1*
X1707987Y2062818D1*
Y2059016D1*
X1706042Y2053268D1*
X1702239Y2049421D1*
X1696491Y2047520D1*
X1690743D1*
X1685039Y2049421D1*
X1683138Y2051366D1*
X1681193Y2055169D1*
X3725207Y2816392D2*
X3742451D1*
X3748155Y2818293D1*
X3750100Y2820239D1*
X3752001Y2824041D1*
Y2829789D1*
X3750100Y2833592D1*
X3748155Y2835537D1*
X3742451Y2837439D1*
X3725207D1*
Y2797247D1*
X3791147Y2831691D2*
X3787345Y2835537D1*
X3781597Y2837439D1*
X3773948D1*
X3768199Y2835537D1*
X3764353Y2831691D1*
Y2827888D1*
X3766298Y2824041D1*
X3768199Y2822140D1*
X3772002Y2820239D1*
X3783498Y2816392D1*
X3787345Y2814491D1*
X3789246Y2812545D1*
X3791147Y2808743D1*
Y2802995D1*
X3787345Y2799192D1*
X3781597Y2797247D1*
X3773948D1*
X3768199Y2799192D1*
X3764353Y2802995D1*
X3803499Y2829745D2*
X3807346Y2831691D1*
X3813094Y2837394D1*
Y2797247D1*
X2142923Y880470D2*
X2139121Y884317D1*
X2133373Y886218D1*
X2125723D1*
X2119975Y884317D1*
X2116129Y880470D1*
Y876668D1*
X2118074Y872821D1*
X2119975Y870919D1*
X2123778Y869018D1*
X2135274Y865171D1*
X2139121Y863270D1*
X2141022Y861325D1*
X2142923Y857522D1*
Y851774D1*
X2139121Y847972D1*
X2133373Y846026D1*
X2125723D1*
X2119975Y847972D1*
X2116129Y851774D1*
X2157220Y876623D2*
Y878525D1*
X2159121Y882371D1*
X2161023Y884273D1*
X2164869Y886174D1*
X2172519D1*
X2176321Y884273D1*
X2178223Y882371D1*
X2180168Y878525D1*
Y874722D1*
X2178223Y870875D1*
X2174420Y865171D1*
X2155275Y846026D1*
X2182069D1*
X2488543Y3074113D2*
Y3045417D1*
X2490445Y3039669D1*
X2494292Y3035867D1*
X2500040Y3033921D1*
X2503842D1*
X2509590Y3035867D1*
X2513437Y3039669D1*
X2515338Y3045417D1*
Y3074113D1*
X2527690Y3066420D2*
X2531536Y3068365D1*
X2537284Y3074069D1*
Y3033921D1*
X2470101Y2468798D2*
Y2440102D1*
X2472002Y2434354D1*
X2475849Y2430552D1*
X2481597Y2428606D1*
X2485400D1*
X2491148Y2430552D1*
X2494994Y2434354D1*
X2496896Y2440102D1*
Y2468798D1*
X2511193Y2459203D2*
Y2461105D1*
X2513094Y2464951D1*
X2514995Y2466853D1*
X2518842Y2468754D1*
X2526491D1*
X2530294Y2466853D1*
X2532195Y2464951D1*
X2534140Y2461105D1*
Y2457302D1*
X2532195Y2453455D1*
X2528392Y2447752D1*
X2509247Y2428606D1*
X2536042D1*
X1445474Y3202278D2*
Y3173583D1*
X1447375Y3167834D1*
X1451222Y3164032D1*
X1456970Y3162086D1*
X1460772D1*
X1466520Y3164032D1*
X1470367Y3167834D1*
X1472268Y3173583D1*
Y3202278D1*
X1488467Y3202234D2*
X1509469D1*
X1498017Y3186936D1*
X1503765D1*
X1507568Y3185034D1*
X1509469Y3183133D1*
X1511414Y3177385D1*
Y3173583D1*
X1509469Y3167834D1*
X1505666Y3163988D1*
X1499918Y3162086D1*
X1494170D1*
X1488467Y3163988D1*
X1486565Y3165933D1*
X1484620Y3169736D1*
X2551836Y694960D2*
X2548033Y693059D1*
X2544187Y689212D1*
X2542285Y685410D1*
Y677760D1*
X2544187Y673914D1*
X2548033Y670111D1*
X2551836Y668166D1*
X2557584Y666264D1*
X2567179D1*
X2572883Y668166D1*
X2576729Y670111D1*
X2580532Y673914D1*
X2582477Y677760D1*
Y685410D1*
X2580532Y689212D1*
X2576729Y693059D1*
X2572883Y694960D1*
X2567179D1*
Y685410D1*
X2536014Y429115D2*
X2576206D1*
Y446359D1*
X2574260Y452107D1*
X2572359Y454008D1*
X2568556Y455909D1*
X2562808D1*
X2558962Y454008D1*
X2557060Y452107D1*
X2555159Y446359D1*
X2553214Y452107D1*
X2551312Y454008D1*
X2547510Y455909D1*
X2543663D1*
X2539860Y454008D1*
X2537915Y452107D1*
X2536014Y446359D1*
Y429115D1*
X2555159D2*
Y446359D1*
X2549411Y468261D2*
X2576206D1*
X2560907D2*
X2555159Y470206D1*
X2551312Y474009D1*
X2549411Y477856D1*
Y483604D1*
Y495955D2*
X2576206D1*
X2557060D2*
X2551312Y501703D1*
X2549411Y505550D1*
Y511254D1*
X2551312Y515100D1*
X2557060Y517002D1*
X2576206D1*
X2642275Y431809D2*
X2644176Y427962D1*
X2648023Y424160D1*
X2651825Y422214D1*
X2657573Y420313D1*
X2667168D1*
X2672872Y422214D1*
X2676719Y424160D1*
X2680521Y427962D1*
X2682467Y431809D1*
Y439458D1*
X2680521Y443261D1*
X2676719Y447108D1*
X2672872Y449009D1*
X2667168Y450910D1*
X2657573D1*
X2651825Y449009D1*
X2648023Y447108D1*
X2644176Y443261D1*
X2642275Y439458D1*
Y431809D1*
X2655672Y463261D2*
X2682467D1*
X2667168D2*
X2661420Y465207D1*
X2657573Y469009D1*
X2655672Y472856D1*
Y478604D1*
X2657573Y513904D2*
X2688215D1*
X2693919Y512002D1*
X2695864Y510101D1*
X2697765Y506254D1*
Y500506D1*
X2695864Y496704D1*
X2663322Y513904D2*
X2659519Y510101D1*
X2657573Y506254D1*
Y500506D1*
X2659519Y496704D1*
X2663322Y492857D1*
X2669070Y490956D1*
X2672916D1*
X2678620Y492857D1*
X2682467Y496704D1*
X2684368Y500506D1*
Y506254D1*
X2682467Y510101D1*
X2678620Y513904D1*
X1332461Y639544D2*
D98*
Y585955D1*
Y624246D2*
X1343957Y635742D1*
X1351651Y639544D1*
X1363058D1*
X1370752Y635742D1*
X1374554Y624246D1*
Y585955D1*
Y624246D2*
X1386050Y635742D1*
X1393744Y639544D1*
X1405151D1*
X1412845Y635742D1*
X1416736Y624246D1*
Y585955D1*
X1441439Y666339D2*
X1445241Y662537D1*
X1449132Y666339D1*
X1445241Y670230D1*
X1441439Y666339D1*
X1445241Y639544D2*
Y585955D1*
X1519731Y666339D2*
Y585955D1*
Y628048D2*
X1512126Y635742D1*
X1504432Y639544D1*
X1492936D1*
X1485331Y635742D1*
X1477638Y628048D1*
X1473835Y616552D1*
Y608947D1*
X1477638Y597451D1*
X1485331Y589846D1*
X1492936Y585955D1*
X1504432D1*
X1512126Y589846D1*
X1519731Y597451D1*
X1571228Y666339D2*
Y585955D1*
X1544434Y666339D2*
X1598023D1*
X1622726D2*
Y585955D1*
Y628048D2*
X1630419Y635742D1*
X1638024Y639544D1*
X1649521D1*
X1657126Y635742D1*
X1664819Y628048D1*
X1668622Y616552D1*
Y608947D1*
X1664819Y597451D1*
X1657126Y589846D1*
X1649521Y585955D1*
X1638024D1*
X1630419Y589846D1*
X1622726Y597451D1*
X1712426Y639544D2*
X1704821Y635742D1*
X1697127Y628048D1*
X1693324Y616552D1*
Y608947D1*
X1697127Y597451D1*
X1704821Y589846D1*
X1712426Y585955D1*
X1723922D1*
X1731615Y589846D1*
X1739220Y597451D1*
X1743111Y608947D1*
Y616552D1*
X1739220Y628048D1*
X1731615Y635742D1*
X1723922Y639544D1*
X1712426D1*
X1779310Y666339D2*
Y601254D1*
X1783113Y589846D1*
X1790806Y585955D1*
X1798411D1*
X1767814Y639544D2*
X1794609D1*
X1345075Y515604D2*
X1333579D1*
X1325974Y511801D1*
X1322083Y507998D1*
X1318281Y500305D1*
Y485006D1*
X1322083Y481204D1*
X1329777D1*
X1345075Y485006D1*
X1348878Y477401D1*
X1352680D1*
X1360374Y485006D1*
X1364176Y504107D1*
X1360374Y515604D1*
X1356571Y523297D1*
X1348878Y530902D1*
X1341273Y534705D1*
X1325974D1*
X1318281Y530902D1*
X1310676Y523297D1*
X1306785Y515604D1*
X1302982Y504107D1*
Y485006D1*
X1306785Y473510D1*
X1310676Y465905D1*
X1318281Y458212D1*
X1325974Y454409D1*
X1341273D1*
X1348878Y458212D1*
X1356571Y465905D1*
X1345075Y519406D2*
Y485006D1*
X1388879Y534793D2*
Y454409D1*
Y496502D2*
X1396573Y504196D1*
X1404178Y507998D1*
X1415674D1*
X1423279Y504196D1*
X1430972Y496502D1*
X1434775Y485006D1*
Y477401D1*
X1430972Y465905D1*
X1423279Y458300D1*
X1415674Y454409D1*
X1404178D1*
X1396573Y458300D1*
X1388879Y465905D1*
X1459478Y507998D2*
Y469708D1*
X1463280Y458300D1*
X1470974Y454409D1*
X1482470D1*
X1490075Y458300D1*
X1501571Y469708D1*
Y507998D2*
Y454409D1*
X1526274Y534793D2*
X1530076Y530991D1*
X1533967Y534793D1*
X1530076Y538684D1*
X1526274Y534793D1*
X1530076Y507998D2*
Y454409D1*
X1558670Y534793D2*
Y454409D1*
X1629269Y534793D2*
Y454409D1*
Y496502D2*
X1621664Y504196D1*
X1613970Y507998D1*
X1602474D1*
X1594869Y504196D1*
X1587176Y496502D1*
X1583373Y485006D1*
Y477401D1*
X1587176Y465905D1*
X1594869Y458300D1*
X1602474Y454409D1*
X1613970D1*
X1621664Y458300D1*
X1629269Y465905D1*
X1653972Y534793D2*
Y454409D1*
X1697776Y507998D2*
X1690170Y504196D1*
X1682477Y496502D1*
X1678674Y485006D1*
Y477401D1*
X1682477Y465905D1*
X1690170Y458300D1*
X1697776Y454409D1*
X1709272D1*
X1716965Y458300D1*
X1724570Y465905D1*
X1728461Y477401D1*
Y485006D1*
X1724570Y496502D1*
X1716965Y504196D1*
X1709272Y507998D1*
X1697776D1*
X1799060Y504196D2*
Y442913D1*
X1795257Y431505D1*
X1791455Y427614D1*
X1783761Y423812D1*
X1772265D1*
X1764660Y427614D1*
X1799060Y492700D2*
X1791455Y500305D1*
X1783761Y504196D1*
X1772265D1*
X1764660Y500305D1*
X1756967Y492700D1*
X1753164Y481204D1*
Y473510D1*
X1756967Y462103D1*
X1764660Y454409D1*
X1772265Y450607D1*
X1783761D1*
X1791455Y454409D1*
X1799060Y462103D1*
X3476095Y2969773D2*
D97*
X3479942Y2971718D1*
X3485690Y2977422D1*
Y2937274D1*
X3499987Y2967872D2*
Y2969773D1*
X3501888Y2973620D1*
X3503789Y2975521D1*
X3507636Y2977422D1*
X3515285D1*
X3519088Y2975521D1*
X3520989Y2973620D1*
X3522935Y2969773D1*
Y2965970D1*
X3520989Y2962124D1*
X3517186Y2956420D1*
X3498041Y2937274D1*
X3524836D1*
X3537187Y2977466D2*
X3552486Y2937274D1*
X3567784Y2977466D1*
X3647713Y2967916D2*
X3645811Y2971718D1*
X3641964Y2975565D1*
X3638162Y2977466D1*
X3630513D1*
X3626666Y2975565D1*
X3622863Y2971718D1*
X3620918Y2967916D1*
X3619017Y2962168D1*
Y2952573D1*
X3620918Y2946869D1*
X3622863Y2943022D1*
X3626666Y2939220D1*
X3630513Y2937274D1*
X3638162D1*
X3641964Y2939220D1*
X3645811Y2943022D1*
X3647713Y2946869D1*
X3660064Y2952573D2*
X3683012D1*
Y2956420D1*
X3681111Y2960267D1*
X3679209Y2962168D1*
X3675363Y2964069D1*
X3669614D1*
X3665812Y2962168D1*
X3661965Y2958321D1*
X3660064Y2952573D1*
Y2948770D1*
X3661965Y2943022D1*
X3665812Y2939220D1*
X3669614Y2937274D1*
X3675363D1*
X3679209Y2939220D1*
X3683012Y2943022D1*
X3695363Y2964069D2*
Y2937274D1*
Y2956420D2*
X3701111Y2962168D1*
X3704958Y2964069D1*
X3710662D1*
X3714509Y2962168D1*
X3716410Y2956420D1*
Y2937274D1*
X3734509Y2977466D2*
Y2944924D1*
X3736411Y2939220D1*
X3740257Y2937274D1*
X3744060D1*
X3728761Y2964069D2*
X3742159D1*
X3756411Y2952573D2*
X3779359D1*
Y2956420D1*
X3777458Y2960267D1*
X3775557Y2962168D1*
X3771710Y2964069D1*
X3765962D1*
X3762159Y2962168D1*
X3758313Y2958321D1*
X3756411Y2952573D1*
Y2948770D1*
X3758313Y2943022D1*
X3762159Y2939220D1*
X3765962Y2937274D1*
X3771710D1*
X3775557Y2939220D1*
X3779359Y2943022D1*
X3791711Y2964069D2*
Y2937274D1*
Y2952573D2*
X3793656Y2958321D1*
X3797459Y2962168D1*
X3801305Y2964069D1*
X3807053D1*
X3836605Y2974570D2*
Y2940126D1*
X3819405Y2957326D2*
X3853849D1*
X581153Y3376592D2*
D98*
Y3323002D1*
Y3361293D2*
X592649Y3372789D1*
X600342Y3376592D1*
X611750D1*
X619443Y3372789D1*
X623246Y3361293D1*
Y3323002D1*
Y3361293D2*
X634742Y3372789D1*
X642435Y3376592D1*
X653843D1*
X661537Y3372789D1*
X665428Y3361293D1*
Y3323002D1*
X690130Y3403386D2*
X693933Y3399584D1*
X697824Y3403386D1*
X693933Y3407277D1*
X690130Y3403386D1*
X693933Y3376592D2*
Y3323002D1*
X768423Y3403386D2*
Y3323002D1*
Y3365096D2*
X760817Y3372789D1*
X753124Y3376592D1*
X741628D1*
X734023Y3372789D1*
X726329Y3365096D1*
X722527Y3353600D1*
Y3345994D1*
X726329Y3334498D1*
X734023Y3326893D1*
X741628Y3323002D1*
X753124D1*
X760817Y3326893D1*
X768423Y3334498D1*
X819920Y3403386D2*
Y3323002D1*
X793125Y3403386D2*
X846715D1*
X871417D2*
Y3323002D1*
Y3365096D2*
X879111Y3372789D1*
X886716Y3376592D1*
X898212D1*
X905817Y3372789D1*
X913511Y3365096D1*
X917313Y3353600D1*
Y3345994D1*
X913511Y3334498D1*
X905817Y3326893D1*
X898212Y3323002D1*
X886716D1*
X879111Y3326893D1*
X871417Y3334498D1*
X961117Y3376592D2*
X953512Y3372789D1*
X945819Y3365096D1*
X942016Y3353600D1*
Y3345994D1*
X945819Y3334498D1*
X953512Y3326893D1*
X961117Y3323002D1*
X972613D1*
X980307Y3326893D1*
X987912Y3334498D1*
X991803Y3345994D1*
Y3353600D1*
X987912Y3365096D1*
X980307Y3372789D1*
X972613Y3376592D1*
X961117D1*
X1028002Y3403386D2*
Y3338301D1*
X1031804Y3326893D1*
X1039498Y3323002D1*
X1047103D1*
X1016506Y3376592D2*
X1043300D1*
X1199266Y3403386D2*
X1149567D1*
Y3323002D1*
X1199266D1*
X1149567Y3365096D2*
X1180164D1*
X1277558Y3391890D2*
X1269953Y3399584D1*
X1258457Y3403386D1*
X1243158D1*
X1231662Y3399584D1*
X1223968Y3391890D1*
Y3384285D1*
X1227859Y3376592D1*
X1231662Y3372789D1*
X1239267Y3368987D1*
X1262259Y3361293D1*
X1269953Y3357490D1*
X1273755Y3353600D1*
X1277558Y3345994D1*
Y3334498D1*
X1269953Y3326893D1*
X1258457Y3323002D1*
X1243158D1*
X1231662Y3326893D1*
X1223968Y3334498D1*
X1302260Y3361293D2*
X1336749D1*
X1348156Y3365096D1*
X1352047Y3368987D1*
X1355850Y3376592D1*
Y3388088D1*
X1352047Y3395693D1*
X1348156Y3399584D1*
X1336749Y3403386D1*
X1302260D1*
Y3323002D1*
X1388246Y3403298D2*
X1430251D1*
X1407347Y3372701D1*
X1418843D1*
X1426448Y3368898D1*
X1430251Y3365096D1*
X1434142Y3353600D1*
Y3345994D1*
X1430251Y3334498D1*
X1422646Y3326805D1*
X1411150Y3323002D1*
X1399654D1*
X1388246Y3326805D1*
X1384444Y3330696D1*
X1380553Y3338301D1*
X1462736Y3384197D2*
Y3387999D1*
X1466538Y3395693D1*
X1470341Y3399495D1*
X1478034Y3403298D1*
X1493333D1*
X1500938Y3399495D1*
X1504741Y3395693D1*
X1508632Y3387999D1*
Y3380394D1*
X1504741Y3372701D1*
X1497136Y3361293D1*
X1458845Y3323002D1*
X1512434D1*
X1614898Y3403386D2*
X1645496Y3323002D1*
X1676093Y3403386D1*
X1704687Y3384197D2*
Y3387999D1*
X1708489Y3395693D1*
X1712292Y3399495D1*
X1719985Y3403298D1*
X1735284D1*
X1742889Y3399495D1*
X1746691Y3395693D1*
X1750582Y3387999D1*
Y3380394D1*
X1746691Y3372701D1*
X1739086Y3361293D1*
X1700796Y3323002D1*
X1754385D1*
X3536088Y2359724D2*
D97*
X3532285Y2357823D1*
X3528439Y2353976D1*
X3526537Y2350173D1*
Y2342524D1*
X3528439Y2338677D1*
X3532285Y2334875D1*
X3536088Y2332929D1*
X3541836Y2331028D1*
X3551431D1*
X3557135Y2332929D1*
X3560981Y2334875D1*
X3564784Y2338677D1*
X3566729Y2342524D1*
Y2350173D1*
X3564784Y2353976D1*
X3560981Y2357823D1*
X3557135Y2359724D1*
X3551431D1*
Y2350173D1*
X3627980Y2318528D2*
X3626035Y2322375D1*
X3620331Y2328123D1*
X3660479D1*
X3629881Y2342420D2*
X3627980D1*
X3624133Y2344321D1*
X3622232Y2346222D1*
X3620331Y2350069D1*
Y2357718D1*
X3622232Y2361521D1*
X3624133Y2363422D1*
X3627980Y2365368D1*
X3631783D1*
X3635630Y2363422D1*
X3641333Y2359620D1*
X3660479Y2340474D1*
Y2367269D1*
X3720331Y2353976D2*
Y2334875D1*
X3737531Y2332974D1*
X3735629Y2334875D1*
X3733684Y2340623D1*
Y2346327D1*
X3735630Y2352075D1*
X3739432Y2355921D1*
X3745180Y2357823D1*
X3748983D1*
X3754731Y2355921D1*
X3758577Y2352075D1*
X3760479Y2346327D1*
Y2340623D1*
X3758577Y2334875D1*
X3756632Y2332974D1*
X3752829Y2331028D1*
X3535592Y2174132D2*
Y2133940D1*
X3522195Y2174132D2*
X3548989D1*
X3561341Y2149238D2*
X3584289D1*
Y2153085D1*
X3582387Y2156932D1*
X3580486Y2158833D1*
X3576639Y2160734D1*
X3570891D1*
X3567089Y2158833D1*
X3563242Y2154986D1*
X3561341Y2149238D1*
Y2145436D1*
X3563242Y2139688D1*
X3567089Y2135885D1*
X3570891Y2133940D1*
X3576639D1*
X3580486Y2135885D1*
X3584289Y2139688D1*
X3617687Y2154986D2*
X3615785Y2158833D1*
X3610037Y2160734D1*
X3604289D1*
X3598541Y2158833D1*
X3596640Y2154986D1*
X3598541Y2151184D1*
X3602388Y2149238D1*
X3611939Y2147337D1*
X3615785Y2145436D1*
X3617687Y2141589D1*
Y2139688D1*
X3615785Y2135885D1*
X3610037Y2133940D1*
X3604289D1*
X3598541Y2135885D1*
X3596640Y2139688D1*
X3635786Y2174132D2*
Y2141589D1*
X3637687Y2135885D1*
X3641534Y2133940D1*
X3645337D1*
X3630038Y2160734D2*
X3643435D1*
X3696569Y2153085D2*
X3713813D1*
X3719517Y2154986D1*
X3721462Y2156932D1*
X3723364Y2160734D1*
Y2166482D1*
X3721462Y2170285D1*
X3719517Y2172230D1*
X3713813Y2174132D1*
X3696569D1*
Y2133940D1*
X3741463Y2174132D2*
Y2141589D1*
X3743364Y2135885D1*
X3747211Y2133940D1*
X3751014D1*
X3735715Y2160734D2*
X3749112D1*
X3784412Y2154986D2*
X3782510Y2158833D1*
X3776762Y2160734D1*
X3771014D1*
X3765266Y2158833D1*
X3763365Y2154986D1*
X3765266Y2151184D1*
X3769113Y2149238D1*
X3778664Y2147337D1*
X3782510Y2145436D1*
X3784412Y2141589D1*
Y2139688D1*
X3782510Y2135885D1*
X3776762Y2133940D1*
X3771014D1*
X3765266Y2135885D1*
X3763365Y2139688D1*
X2880240Y487133D2*
X2876437Y490980D1*
X2870689Y492881D1*
X2863040D1*
X2857292Y490980D1*
X2853445Y487133D1*
Y483331D1*
X2855391Y479484D1*
X2857292Y477582D1*
X2861095Y475681D1*
X2872591Y471834D1*
X2876437Y469933D1*
X2878339Y467988D1*
X2880240Y464185D1*
Y458437D1*
X2876437Y454635D1*
X2870689Y452689D1*
X2863040D1*
X2857292Y454635D1*
X2853445Y458437D1*
X2892591Y467988D2*
X2915539D1*
Y471834D1*
X2913638Y475681D1*
X2911737Y477582D1*
X2907890Y479484D1*
X2902142D1*
X2898339Y477582D1*
X2894493Y473736D1*
X2892591Y467988D1*
Y464185D1*
X2894493Y458437D1*
X2898339Y454635D1*
X2902142Y452689D1*
X2907890D1*
X2911737Y454635D1*
X2915539Y458437D1*
X2927891Y479484D2*
Y452689D1*
Y467988D2*
X2929836Y473736D1*
X2933639Y477582D1*
X2937485Y479484D1*
X2943234D1*
X2955585D2*
X2967081Y452689D1*
X2978533Y479484D1*
X3000435D2*
X2996632Y477582D1*
X2992786Y473736D1*
X2990884Y467988D1*
Y464185D1*
X2992786Y458437D1*
X2996632Y454635D1*
X3000435Y452689D1*
X3006183D1*
X3010030Y454635D1*
X3013832Y458437D1*
X3015778Y464185D1*
Y467988D1*
X3013832Y473736D1*
X3010030Y477582D1*
X3006183Y479484D1*
X3000435D1*
X2642330Y689212D2*
Y670111D1*
X2659529Y668210D1*
X2657628Y670111D1*
X2655683Y675859D1*
Y681563D1*
X2657628Y687311D1*
X2661431Y691158D1*
X2667179Y693059D1*
X2670981D1*
X2676729Y691158D1*
X2680576Y687311D1*
X2682477Y681563D1*
Y675859D1*
X2680576Y670111D1*
X2678631Y668210D1*
X2674828Y666264D1*
X2769581D2*
Y683508D1*
X2767680Y689212D1*
X2765735Y691158D1*
X2761932Y693059D1*
X2756184D1*
X2752381Y691158D1*
X2750436Y689212D1*
X2748535Y683508D1*
Y666264D1*
X2788727D1*
X2748535Y422515D2*
X2767680Y437814D1*
X2788727D1*
X2748535Y453112D2*
X2767680Y437814D1*
X2773428Y465464D2*
Y488411D1*
X2769581D1*
X2765735Y486510D1*
X2763833Y484609D1*
X2761932Y480762D1*
Y475014D1*
X2763833Y471212D1*
X2767680Y467365D1*
X2773428Y465464D1*
X2777231D1*
X2782979Y467365D1*
X2786781Y471212D1*
X2788727Y475014D1*
Y480762D1*
X2786781Y484609D1*
X2782979Y488411D1*
X2748535Y500763D2*
X2788727D1*
X924311Y599787D2*
X941556D1*
X947259Y601688D1*
X949205Y603634D1*
X951106Y607437D1*
Y613185D1*
X949205Y616987D1*
X947259Y618933D1*
X941556Y620834D1*
X924311D1*
Y580642D1*
X963458Y607437D2*
Y588291D1*
X965359Y582587D1*
X969206Y580642D1*
X974954D1*
X978756Y582587D1*
X984504Y588291D1*
Y607437D2*
Y580642D1*
X996856Y620834D2*
Y580642D1*
X2287419Y1263254D2*
D99*
X2284092Y1269908D1*
X2277360Y1276640D1*
X2270705Y1279967D1*
X2257319D1*
X2250587Y1276640D1*
X2243933Y1269908D1*
X2240528Y1263254D1*
X2237201Y1253194D1*
Y1236404D1*
X2240528Y1226422D1*
X2243933Y1219690D1*
X2250587Y1213036D1*
X2257319Y1209631D1*
X2270705D1*
X2277360Y1213036D1*
X2284092Y1219690D1*
X2287419Y1226422D1*
Y1236404D1*
X2270705D1*
X2309034Y1256522D2*
Y1209631D1*
Y1236404D2*
X2312438Y1246463D1*
X2319093Y1253194D1*
X2325825Y1256522D1*
X2335884D1*
X2357499D2*
Y1209631D1*
Y1243135D2*
X2367558Y1253194D1*
X2374289Y1256522D1*
X2384271D1*
X2391003Y1253194D1*
X2394330Y1243135D1*
Y1209631D1*
X2247043Y1378392D2*
Y1308056D1*
X2277221D1*
X2287280Y1311461D1*
X2290607Y1314788D1*
X2293934Y1321442D1*
Y1331502D1*
X2290607Y1338233D1*
X2287280Y1341561D1*
X2277221Y1344888D1*
X2287280Y1348292D1*
X2290607Y1351620D1*
X2293934Y1358274D1*
Y1365006D1*
X2290607Y1371660D1*
X2287280Y1375065D1*
X2277221Y1378392D1*
X2247043D1*
Y1344888D2*
X2277221D1*
X2315549Y1378392D2*
Y1308056D1*
X2337164Y1378392D2*
Y1308056D1*
X2370668Y1354947D2*
X2337164Y1321442D1*
X2350550Y1334829D2*
X2373996Y1308056D1*
X2237201Y1476817D2*
Y1406481D1*
X2267378D1*
X2277437Y1409886D1*
X2280764Y1413213D1*
X2284092Y1419868D1*
Y1429927D1*
X2280764Y1436659D1*
X2277437Y1439986D1*
X2267378Y1443313D1*
X2277437Y1446718D1*
X2280764Y1450045D1*
X2284092Y1456699D1*
Y1463431D1*
X2280764Y1470086D1*
X2277437Y1473490D1*
X2267378Y1476817D1*
X2237201D1*
Y1443313D2*
X2267378D1*
X2305706Y1476817D2*
Y1406481D1*
X2327321Y1453372D2*
Y1419868D1*
X2330649Y1409886D1*
X2337380Y1406481D1*
X2347440D1*
X2354094Y1409886D1*
X2364153Y1419868D1*
Y1453372D2*
Y1406481D1*
X2237201Y1541738D2*
X2267301D1*
X2277360Y1545143D1*
X2280764Y1548470D1*
X2284092Y1555124D1*
Y1561856D1*
X2280764Y1568511D1*
X2277360Y1571915D1*
X2267301Y1575243D1*
X2237201D1*
Y1504907D1*
X2260646Y1541738D2*
X2284092Y1504907D1*
X2305706Y1531679D2*
X2345865D1*
Y1538411D1*
X2342538Y1545143D1*
X2339211Y1548470D1*
X2332479Y1551797D1*
X2322420D1*
X2315766Y1548470D1*
X2309034Y1541738D1*
X2305706Y1531679D1*
Y1525025D1*
X2309034Y1514966D1*
X2315766Y1508311D1*
X2322420Y1504907D1*
X2332479D1*
X2339211Y1508311D1*
X2345865Y1514966D1*
X2407639Y1575243D2*
Y1504907D1*
Y1541738D2*
X2400985Y1548470D1*
X2394253Y1551797D1*
X2384194D1*
X2377539Y1548470D1*
X2370807Y1541738D1*
X2367480Y1531679D1*
Y1525025D1*
X2370807Y1514966D1*
X2377539Y1508311D1*
X2384194Y1504907D1*
X2394253D1*
X2400985Y1508311D1*
X2407639Y1514966D1*
X1972458Y2090025D2*
X1969131Y2096680D1*
X1962399Y2103411D1*
X1955745Y2106739D1*
X1942358D1*
X1935627Y2103411D1*
X1928972Y2096680D1*
X1925567Y2090025D1*
X1922240Y2079966D1*
Y2063175D1*
X1925567Y2053194D1*
X1928972Y2046462D1*
X1935627Y2039807D1*
X1942358Y2036403D1*
X1955745D1*
X1962399Y2039807D1*
X1969131Y2046462D1*
X1972458Y2053194D1*
Y2063175D1*
X1955745D1*
X1994073Y2083293D2*
Y2036403D1*
Y2063175D2*
X1997478Y2073234D1*
X2004132Y2079966D1*
X2010864Y2083293D1*
X2020923D1*
X2042538D2*
Y2036403D1*
Y2069907D2*
X2052597Y2079966D1*
X2059329Y2083293D1*
X2069311D1*
X2076042Y2079966D1*
X2079370Y2069907D1*
Y2036403D1*
X1951768Y1998471D2*
Y1928135D1*
X1981945D1*
X1992004Y1931540D1*
X1995331Y1934867D1*
X1998658Y1941521D1*
Y1951580D1*
X1995331Y1958312D1*
X1992004Y1961639D1*
X1981945Y1964967D1*
X1992004Y1968371D1*
X1995331Y1971698D1*
X1998658Y1978353D1*
Y1985085D1*
X1995331Y1991739D1*
X1992004Y1995144D1*
X1981945Y1998471D1*
X1951768D1*
Y1964967D2*
X1981945D1*
X2020273Y1998471D2*
Y1928135D1*
X2041888Y1998471D2*
Y1928135D1*
X2075393Y1975026D2*
X2041888Y1941521D1*
X2055275Y1954908D2*
X2078720Y1928135D1*
X1951768Y1900046D2*
Y1829710D1*
X1981945D1*
X1992004Y1833114D1*
X1995331Y1836442D1*
X1998658Y1843096D1*
Y1853155D1*
X1995331Y1859887D1*
X1992004Y1863214D1*
X1981945Y1866541D1*
X1992004Y1869946D1*
X1995331Y1873273D1*
X1998658Y1879928D1*
Y1886659D1*
X1995331Y1893314D1*
X1992004Y1896719D1*
X1981945Y1900046D1*
X1951768D1*
Y1866541D2*
X1981945D1*
X2020273Y1900046D2*
Y1829710D1*
X2041888Y1876600D2*
Y1843096D1*
X2045216Y1833114D1*
X2051947Y1829710D1*
X2062006D1*
X2068661Y1833114D1*
X2078720Y1843096D1*
Y1876600D2*
Y1829710D1*
X1912398Y1758274D2*
X1942497D1*
X1952557Y1761678D1*
X1955961Y1765005D1*
X1959288Y1771660D1*
Y1778392D1*
X1955961Y1785046D1*
X1952557Y1788451D1*
X1942497Y1791778D1*
X1912398D1*
Y1721442D1*
X1935843Y1758274D2*
X1959288Y1721442D1*
X1980903Y1748215D2*
X2021062D1*
Y1754946D1*
X2017735Y1761678D1*
X2014408Y1765005D1*
X2007676Y1768333D1*
X1997617D1*
X1990962Y1765005D1*
X1984231Y1758274D1*
X1980903Y1748215D1*
Y1741560D1*
X1984231Y1731501D1*
X1990962Y1724847D1*
X1997617Y1721442D1*
X2007676D1*
X2014408Y1724847D1*
X2021062Y1731501D1*
X2082836Y1791778D2*
Y1721442D1*
Y1758274D2*
X2076181Y1765005D1*
X2069450Y1768333D1*
X2059391D1*
X2052736Y1765005D1*
X2046004Y1758274D1*
X2042677Y1748215D1*
Y1741560D1*
X2046004Y1731501D1*
X2052736Y1724847D1*
X2059391Y1721442D1*
X2069450D1*
X2076181Y1724847D1*
X2082836Y1731501D1*
X3651095Y2752466D2*
D97*
X3666394Y2712274D1*
X3681692Y2752466D1*
X3694044D2*
X3695945Y2750565D1*
X3697890Y2752466D1*
X3695945Y2754412D1*
X3694044Y2752466D1*
X3695945Y2739069D2*
Y2712274D1*
X3710242Y2739069D2*
Y2712274D1*
Y2731420D2*
X3715990Y2737168D1*
X3719836Y2739069D1*
X3725540D1*
X3729387Y2737168D1*
X3731288Y2731420D1*
Y2712274D1*
X3679791Y2642916D2*
X3677890Y2646718D1*
X3674043Y2650565D1*
X3670240Y2652466D1*
X3662591D1*
X3658744Y2650565D1*
X3654942Y2646718D1*
X3652996Y2642916D1*
X3651095Y2637168D1*
Y2627573D1*
X3652996Y2621869D1*
X3654942Y2618022D1*
X3658744Y2614220D1*
X3662591Y2612274D1*
X3670240D1*
X3674043Y2614220D1*
X3677890Y2618022D1*
X3679791Y2621869D1*
Y2627573D1*
X3670240D1*
X3692142Y2639069D2*
Y2612274D1*
Y2631420D2*
X3697890Y2637168D1*
X3701737Y2639069D1*
X3707441D1*
X3711288Y2637168D1*
X3713189Y2631420D1*
Y2612274D1*
X3748488Y2652466D2*
Y2612274D1*
Y2633321D2*
X3744686Y2637168D1*
X3740839Y2639069D1*
X3735091D1*
X3731288Y2637168D1*
X3727442Y2633321D1*
X3725540Y2627573D1*
Y2623770D1*
X3727442Y2618022D1*
X3731288Y2614220D1*
X3735091Y2612274D1*
X3740839D1*
X3744686Y2614220D1*
X3748488Y2618022D1*
X3651095Y2552466D2*
X3666394Y2512274D1*
X3681692Y2552466D1*
X3703594Y2539069D2*
X3699792Y2537168D1*
X3695945Y2533321D1*
X3694044Y2527573D1*
Y2523770D1*
X3695945Y2518022D1*
X3699792Y2514220D1*
X3703594Y2512274D1*
X3709342D1*
X3713189Y2514220D1*
X3716991Y2518022D1*
X3718937Y2523770D1*
Y2527573D1*
X3716991Y2533321D1*
X3713189Y2537168D1*
X3709342Y2539069D1*
X3703594D1*
X3731288D2*
Y2519924D1*
X3733190Y2514220D1*
X3737036Y2512274D1*
X3742784D1*
X3746587Y2514220D1*
X3752335Y2519924D1*
Y2539069D2*
Y2512274D1*
X3770434Y2552466D2*
Y2519924D1*
X3772336Y2514220D1*
X3776182Y2512274D1*
X3779985D1*
X3764686Y2539069D2*
X3778084D1*
X3339523Y3040592D2*
X3299331Y3025293D1*
X3339523Y3009995D1*
X3299331Y2967046D2*
X3339523D1*
X3299331Y2982345D1*
X3339523Y2997643D1*
X3299331Y2997644D1*
X3326126Y2945144D2*
X3324224Y2948947D1*
X3320378Y2952794D1*
X3314630Y2954695D1*
X3310827D1*
X3305079Y2952794D1*
X3301277Y2948947D1*
X3299331Y2945144D1*
Y2939396D1*
X3301277Y2935550D1*
X3305079Y2931747D1*
X3310827Y2929802D1*
X3314630D1*
X3320378Y2931747D1*
X3324224Y2935550D1*
X3326126Y2939396D1*
Y2945144D1*
X3339523Y2911702D2*
X3306980D1*
X3301277Y2909801D1*
X3299331Y2905954D1*
Y2902152D1*
X3326126Y2917450D2*
Y2904053D1*
X2629972Y2961916D2*
X2633775Y2963817D1*
X2637622Y2967664D1*
X2639523Y2971467D1*
Y2979116D1*
X2637622Y2982963D1*
X2633775Y2986765D1*
X2629973Y2988711D1*
X2624225Y2990612D1*
X2614630D1*
X2608926Y2988711D1*
X2605079Y2986765D1*
X2601277Y2982963D1*
X2599331Y2979116D1*
Y2971467D1*
X2601277Y2967664D1*
X2605079Y2963817D1*
X2608926Y2961916D1*
X2614630D1*
Y2971467D1*
X2626126Y2949565D2*
X2599331D1*
X2618476D2*
X2624224Y2943817D1*
X2626126Y2939970D1*
Y2934266D1*
X2624224Y2930419D1*
X2618476Y2928518D1*
X2599331D1*
X2639523Y2893219D2*
X2599331D1*
X2620378D2*
X2624224Y2897021D1*
X2626126Y2900868D1*
Y2906616D1*
X2624224Y2910419D1*
X2620378Y2914265D1*
X2614630Y2916167D1*
X2610827D1*
X2605079Y2914265D1*
X2601277Y2910419D1*
X2599331Y2906616D1*
Y2900868D1*
X2601277Y2897021D1*
X2605079Y2893219D1*
X3339523Y3215783D2*
Y3240632D1*
X3299331D1*
Y3215783D1*
X3320378Y3240632D2*
Y3225333D1*
X3326126Y3203431D2*
X3299331Y3203432D1*
X3318476D2*
X3324224Y3197683D1*
X3326126Y3193837D1*
Y3188133D1*
X3324224Y3184286D1*
X3318476Y3182385D1*
X3299331D1*
X2639523Y3240632D2*
X2599331D1*
Y3227235D1*
X2601277Y3221487D1*
X2605079Y3217640D1*
X2608926Y3215739D1*
X2614630Y3213837D1*
X2624224D1*
X2629972Y3215739D1*
X2633775Y3217640D1*
X2637622Y3221487D1*
X2639523Y3227235D1*
Y3240632D1*
Y3201486D2*
X2637622Y3199585D1*
X2639523Y3197639D1*
X2641469Y3199585D1*
X2639523Y3201486D1*
X2626126Y3199585D2*
X2599331D1*
X2626126Y3185288D2*
X2599331D1*
X2614630D2*
X2620378Y3183342D1*
X2624224Y3179540D1*
X2626126Y3175693D1*
Y3169945D1*
X3339523Y2415592D2*
X3299331Y2400293D1*
X3339523Y2384995D1*
X3299331Y2342046D2*
X3339523D1*
X3299331Y2357345D1*
X3339523Y2372643D1*
X3299331Y2372644D1*
X3326126Y2320144D2*
X3324224Y2323947D1*
X3320378Y2327794D1*
X3314630Y2329695D1*
X3310827D1*
X3305079Y2327794D1*
X3301277Y2323947D1*
X3299331Y2320144D1*
Y2314396D1*
X3301277Y2310550D1*
X3305079Y2306747D1*
X3310827Y2304802D1*
X3314630D1*
X3320378Y2306747D1*
X3324224Y2310550D1*
X3326126Y2314396D1*
Y2320144D1*
X3339523Y2286702D2*
X3306980D1*
X3301277Y2284801D1*
X3299331Y2280954D1*
Y2277152D1*
X3326126Y2292450D2*
Y2279053D1*
X2629972Y2336916D2*
X2633775Y2338817D1*
X2637622Y2342664D1*
X2639523Y2346467D1*
Y2354116D1*
X2637622Y2357963D1*
X2633775Y2361765D1*
X2629973Y2363711D1*
X2624225Y2365612D1*
X2614630D1*
X2608926Y2363711D1*
X2605079Y2361765D1*
X2601277Y2357963D1*
X2599331Y2354116D1*
Y2346467D1*
X2601277Y2342664D1*
X2605079Y2338817D1*
X2608926Y2336916D1*
X2614630D1*
Y2346467D1*
X2626126Y2324565D2*
X2599331D1*
X2618476D2*
X2624224Y2318817D1*
X2626126Y2314970D1*
Y2309266D1*
X2624224Y2305419D1*
X2618476Y2303518D1*
X2599331D1*
X2639523Y2268219D2*
X2599331D1*
X2620378D2*
X2624224Y2272021D1*
X2626126Y2275868D1*
Y2281616D1*
X2624224Y2285419D1*
X2620378Y2289265D1*
X2614630Y2291167D1*
X2610827D1*
X2605079Y2289265D1*
X2601277Y2285419D1*
X2599331Y2281616D1*
Y2275868D1*
X2601277Y2272021D1*
X2605079Y2268219D1*
X3339523Y2590783D2*
Y2615632D1*
X3299331D1*
Y2590783D1*
X3320378Y2615632D2*
Y2600333D1*
X3326126Y2578431D2*
X3299331Y2578432D1*
X3318476D2*
X3324224Y2572683D1*
X3326126Y2568837D1*
Y2563133D1*
X3324224Y2559286D1*
X3318476Y2557385D1*
X3299331D1*
X2639523Y2615632D2*
X2599331D1*
Y2602235D1*
X2601277Y2596487D1*
X2605079Y2592640D1*
X2608926Y2590739D1*
X2614630Y2588837D1*
X2624224D1*
X2629972Y2590739D1*
X2633775Y2592640D1*
X2637622Y2596487D1*
X2639523Y2602235D1*
Y2615632D1*
Y2576486D2*
X2637622Y2574585D1*
X2639523Y2572639D1*
X2641469Y2574585D1*
X2639523Y2576486D1*
X2626126Y2574585D2*
X2599331D1*
X2626126Y2560288D2*
X2599331D1*
X2614630D2*
X2620378Y2558342D1*
X2624224Y2554540D1*
X2626126Y2550693D1*
Y2544945D1*
X519920Y2731896D2*
D99*
X469702D1*
X459643Y2728569D1*
X452988Y2721837D1*
X449583Y2711778D1*
Y2705124D1*
X452988Y2695065D1*
X459643Y2688333D1*
X469702Y2685006D1*
X519919Y2685005D1*
X509860Y2616500D2*
X516592Y2623154D1*
X519919Y2633213D1*
Y2646600D1*
X516592Y2656659D1*
X509860Y2663391D1*
X503206D1*
X496474Y2659986D1*
X493147Y2656659D1*
X489820Y2650004D1*
X483088Y2629886D1*
X479761Y2623154D1*
X476356Y2619827D1*
X469702Y2616500D1*
X459643D1*
X452988Y2623154D1*
X449583Y2633213D1*
Y2646600D1*
X452988Y2656659D1*
X459643Y2663391D1*
X519919Y2594885D2*
X449583D1*
Y2564708D1*
X452988Y2554649D1*
X456315Y2551322D1*
X462970Y2547994D1*
X473029D1*
X479761Y2551322D1*
X483088Y2554649D1*
X486415Y2564708D1*
X489820Y2554649D1*
X493147Y2551322D1*
X499801Y2547994D1*
X506533D1*
X513188Y2551322D1*
X516592Y2554649D1*
X519919Y2564708D1*
Y2594885D1*
X486415D2*
Y2564708D1*
M02*
