G04 DipTrace 3.3.0.0*
G04 TopMask.gbr*
%MOIN*%
G04 #@! TF.FileFunction,Soldermask,Top*
G04 #@! TF.Part,Single*
%ADD45C,0.082677*%
%ADD46C,0.03937*%
%ADD56R,0.06315X0.039528*%
%ADD58R,0.06315X0.055276*%
%ADD60R,0.086772X0.055276*%
%ADD62R,0.059213X0.035591*%
%ADD64C,0.068031*%
%ADD66C,0.067031*%
%ADD68R,0.067031X0.067031*%
%ADD70C,0.106457*%
%ADD72R,0.106457X0.106457*%
%ADD74C,0.078898*%
%ADD76R,0.078898X0.078898*%
%ADD78C,0.208031*%
%ADD80C,0.067087*%
%ADD82R,0.067087X0.067087*%
%ADD84C,0.074961*%
%ADD86R,0.074961X0.074961*%
%ADD88O,0.126142X0.086772*%
%ADD90O,0.086772X0.126142*%
%ADD92R,0.171417X0.071024*%
%ADD94R,0.078898X0.071024*%
%FSLAX26Y26*%
G04*
G70*
G90*
G75*
G01*
G04 TopMask*
%LPD*%
D94*
X3453386Y2794016D3*
Y2683780D3*
Y2474016D3*
Y2584252D3*
D92*
X3001814Y3075549D3*
X3249845D3*
X3003386Y2444016D3*
X3251417D3*
D90*
X3504252Y3189291D3*
X3740472D3*
D88*
X3622362Y3374331D3*
D86*
X3743386Y2244016D3*
D84*
X3643386D3*
X3543386D3*
D86*
X2770640Y581496D3*
D84*
X2670640D3*
X2570640D3*
D82*
X2163386Y2054016D3*
D80*
Y1954016D3*
Y1854016D3*
Y1754016D3*
D82*
X2165669Y1235748D3*
D80*
Y1335748D3*
Y1435748D3*
Y1535748D3*
D78*
X630236Y1929449D3*
Y905827D3*
X1653858Y1929449D3*
X1142047Y590866D3*
X3661732Y905827D3*
X2638110Y1929449D3*
X3661732D3*
X3149921Y590866D3*
D76*
X3593386Y2734016D3*
D74*
Y2634016D3*
Y2534016D3*
D72*
X1426199Y2794803D3*
D70*
Y2594803D3*
Y2394803D3*
D45*
X1256909Y2722756D3*
Y2466850D3*
D72*
X2345984Y760157D3*
D70*
X2145984D3*
X1945984D3*
D45*
X2273937Y590867D3*
X2018031D3*
D68*
X3278386Y3319016D3*
D66*
X3178386D3*
X3078386D3*
X2978386D3*
X2878386D3*
X2778386D3*
X2678386D3*
X2578386D3*
Y2819016D3*
X2678386D3*
X2778386D3*
X2878386D3*
X2978386D3*
X3078386D3*
X3178386D3*
X3278386D3*
D68*
Y2694016D3*
D66*
X3178386D3*
X3078386D3*
X2978386D3*
X2878386D3*
X2778386D3*
X2678386D3*
X2578386D3*
Y2194016D3*
X2678386D3*
X2778386D3*
X2878386D3*
X2978386D3*
X3078386D3*
X3178386D3*
X3278386D3*
D64*
X472756Y3149921D3*
X572756D3*
X672756D3*
X772756D3*
X872756D3*
X972756D3*
X1072756D3*
X1172756D3*
X1272756D3*
X1372756D3*
X1472756D3*
X1572756D3*
X1672756D3*
X1772756D3*
X1872756D3*
X1972756D3*
X2072756D3*
X2172756D3*
X2272756D3*
X472756Y2249921D3*
X572756D3*
X672756D3*
X772756D3*
X872756D3*
X972756D3*
X1072756D3*
X1172756D3*
X1272756D3*
X1372756D3*
X1472756D3*
X1572756D3*
X1672756D3*
X1772756D3*
X1872756D3*
X1972756D3*
X2072756D3*
X2172756D3*
X2272756D3*
D62*
X913386Y2594016D3*
Y2637323D3*
Y2680630D3*
Y2723937D3*
Y2767244D3*
Y2810551D3*
Y2853858D3*
Y2897165D3*
Y2940472D3*
D60*
X498031Y2405827D3*
D58*
X879921D3*
D56*
Y2983780D3*
D60*
X498031D3*
D46*
X482283Y2873150D3*
Y2558189D3*
D78*
X590866Y590866D3*
X3701102D3*
X2401890Y3327087D3*
M02*
